<?xml version="1.0" standalone="no"?>
<!DOCTYPE svg PUBLIC "-//W3C//DTD SVG 1.1//EN" "http://www.w3.org/Graphics/SVG/1.1/DTD/svg11.dtd" >
<svg xmlns="http://www.w3.org/2000/svg">
<metadata></metadata>
<defs>
<font id="archivo_narrowregular" horiz-adv-x="934" >
<font-face units-per-em="2048" ascent="1638" descent="-410" />
<missing-glyph horiz-adv-x="467" />
<glyph unicode=" "  horiz-adv-x="467" />
<glyph unicode="&#x09;" horiz-adv-x="467" />
<glyph unicode="&#xa0;" horiz-adv-x="467" />
<glyph unicode="!" horiz-adv-x="467" d="M354 1405q-3 -29 -6.5 -93t-8 -150t-9 -189t-10 -210.5t-10.5 -213.5t-9 -199h-127q-12 265 -24 528t-27 527h231zM342 0h-205v222h205v-222z" />
<glyph unicode="&#x22;" horiz-adv-x="596" d="M517 1104q-14 -69 -24.5 -136t-21.5 -134h-80q-11 67 -21.5 134t-21.5 136v301h169v-301zM244 1104q-11 -69 -22 -136l-22 -134h-79q-12 67 -22 134t-23 136v301h168v-301z" />
<glyph unicode="#" d="M784 996h123v-156h-158l-69 -317h146v-156h-181l-82 -367h-155l81 367h-184l-81 -367h-157l82 367h-131v156h166l70 317h-155v156h190l96 430h156l-97 -430h184l97 430h156zM410 840l-70 -317h185l69 317h-184z" />
<glyph unicode="$" d="M515 1264q69 -5 122 -30.5t88.5 -65t54 -90.5t18.5 -107q0 -11 -1 -23.5t-1 -16.5h-166v19q0 28 -5.5 55t-19 49.5t-35.5 39.5t-55 25v-325q53 -18 107.5 -39.5t98.5 -57.5t71.5 -90t27.5 -136q0 -80 -23 -139.5t-63.5 -100t-96.5 -62.5t-122 -28v-242h-101v242 q-83 7 -140.5 36t-94.5 72t-53.5 96.5t-16.5 109.5q0 21 1 31t1 13h168v-20q0 -87 37.5 -132.5t97.5 -59.5v366q-51 18 -101.5 40t-90.5 56t-64.5 84.5t-24.5 125.5q0 64 19.5 116t56 90.5t88.5 63t117 33.5v219h101v-217zM515 285q58 9 97 49t39 112q0 34 -10.5 60 t-28.5 46.5t-43 35.5t-54 28v-331zM414 1119q-35 -7 -57 -23.5t-34.5 -37.5t-17 -44t-4.5 -43q0 -54 31.5 -85t81.5 -52v285z" />
<glyph unicode="%" horiz-adv-x="1493" d="M400 0h-144l856 1405h146zM354 1430q62 0 110.5 -18t82.5 -61t51.5 -114.5t17.5 -177.5q0 -107 -17.5 -178t-51.5 -113.5t-82.5 -60t-110.5 -17.5t-110 18t-82 60.5t-51.5 113.5t-17.5 177t17.5 177.5t51.5 114.5t82 61t110 18zM354 1309q-37 0 -60 -17.5t-36.5 -48.5 t-18.5 -74t-5 -94v-31q0 -51 5 -94t18.5 -74t36.5 -48t60 -17t60.5 17t37 48t18.5 74t5 94v31q0 51 -5 94t-18.5 74t-37 48.5t-60.5 17.5zM1157 594q-37 0 -60.5 -17.5t-37 -48.5t-18.5 -74t-5 -94v-31q0 -51 5 -94t18.5 -73.5t37 -47.5t60.5 -17t60.5 17t37 47.5t18.5 73.5 t5 94v31q0 51 -5 94t-18.5 74t-37 48.5t-60.5 17.5zM1157 715q61 0 110 -18t83 -61t52 -114.5t18 -177.5q0 -107 -18 -178t-52 -113t-83 -59.5t-110 -17.5q-62 0 -110.5 17.5t-82 60t-51.5 113.5t-18 177t18 177.5t51.5 114.5t82 61t110.5 18z" />
<glyph unicode="&#x26;" horiz-adv-x="1120" d="M525 1430q93 0 171.5 -27.5t134.5 -78t87.5 -121.5t31.5 -159v-36h-168v18q0 65 -19.5 112.5t-54 78t-82 45t-103.5 14.5q-50 0 -95 -13.5t-78.5 -42.5t-53 -75t-19.5 -111q0 -62 17.5 -108.5t47 -77t68 -45.5t81.5 -15h105v-149h-101q-47 0 -90.5 -11t-77.5 -39.5 t-54.5 -76.5t-20.5 -123q0 -69 19.5 -118.5t54.5 -81t85 -46t110 -14.5q261 0 261 262v397h311v-151h-143v-239q0 -96 -28.5 -174t-84 -133t-138.5 -85t-192 -30q-96 0 -176 27.5t-137.5 79t-90 126t-32.5 168.5q0 70 16 126t43.5 99t65.5 72.5t83 46.5v8q-39 22 -72.5 51 t-58 67t-38 86.5t-13.5 110.5q0 94 30.5 166t87 121t135.5 74t175 25z" />
<glyph unicode="'" horiz-adv-x="322" d="M240 1104q-11 -69 -22 -136l-22 -134h-79q-12 67 -22.5 134t-23.5 136v301h169v-301z" />
<glyph unicode="(" horiz-adv-x="559" d="M529 1505q-58 -93 -108 -202.5t-86.5 -227t-57.5 -239.5t-21 -242t21 -242.5t57.5 -241t86.5 -228t108 -203.5h-111q-81 94 -143.5 201t-105.5 223t-65 238.5t-22 248.5t22 249t65 240t105.5 224.5t143.5 201.5h111z" />
<glyph unicode=")" horiz-adv-x="559" d="M141 1505q81 -94 143.5 -201.5t105 -224.5t65 -240t22.5 -249t-22.5 -248.5t-65 -238.5t-105 -223t-143.5 -201h-110q57 94 107 203.5t86.5 228t57.5 241t21 242.5t-21 242t-57.5 239.5t-86.5 227t-107 202.5h110z" />
<glyph unicode="*" horiz-adv-x="653" d="M377 1224l152 105l69 -119l-168 -77l168 -78l-69 -122l-152 107l19 -182h-140l19 182l-152 -107l-70 122l169 78l-169 77l70 119l152 -107l-19 183h140z" />
<glyph unicode="+" horiz-adv-x="981" d="M574 608h317v-172h-317v-436h-170v436h-316v172h316v438h170v-438z" />
<glyph unicode="," horiz-adv-x="467" d="M336 18l-98 -272h-107l82 254h-82v222h205v-204z" />
<glyph unicode="-" horiz-adv-x="559" d="M537 453h-517v200h517v-200z" />
<glyph unicode="." horiz-adv-x="467" d="M336 0h-205v222h205v-222z" />
<glyph unicode="/" horiz-adv-x="467" d="M147 -101h-145l321 1606h144z" />
<glyph unicode="0" d="M467 1430q90 0 161.5 -33.5t121 -116t76 -223t26.5 -354.5q0 -215 -26.5 -355t-76 -223t-121 -116t-161.5 -33t-161.5 33t-121 116t-76 223t-26.5 355q0 214 26.5 354.5t76 223t121 116t161.5 33.5zM467 1280q-63 0 -104 -38t-65.5 -105.5t-34 -160t-9.5 -202.5v-144 q0 -110 9.5 -202.5t34 -159.5t65.5 -105t104 -38t104 38t65.5 105t34 159.5t9.5 202.5v144q0 110 -9.5 202.5t-34 160t-65.5 105.5t-104 38z" />
<glyph unicode="1" d="M604 149h307v-149h-808v149h333v1000h-335v107q43 4 98 17t114.5 32.5t118 45t107.5 54.5h65v-1256z" />
<glyph unicode="2" d="M471 1430q76 0 143 -21t116.5 -65t78.5 -113t29 -166q0 -88 -27 -166.5t-71 -149.5t-100 -136t-113 -127t-111 -122t-93 -120q-12 -19 -21 -37t-15 -35h557v-172h-764v26q0 84 25 160.5t73 145.5q42 61 94 119.5t105.5 116.5t104.5 116t90.5 119.5t63.5 126.5t24 137 q0 35 -9 72t-30.5 67t-58.5 49t-93 19q-55 0 -92.5 -21.5t-60.5 -58t-33 -85.5t-10 -103v-85h-174q-2 10 -3 23q-3 22 -3 60q0 113 30.5 193.5t82.5 132.5t120.5 76t144.5 24z" />
<glyph unicode="3" d="M461 1430q82 0 149.5 -25t116 -74t75 -121t26.5 -166q0 -62 -14 -110.5t-38.5 -86.5t-58 -67t-72.5 -51v-8q45 -17 82.5 -46.5t65.5 -72.5t43.5 -99t15.5 -126q0 -94 -28.5 -168.5t-79.5 -126t-122 -79t-155 -27.5q-96 0 -170 30t-124.5 85t-76 133t-25.5 174v16h173v-23 q0 -131 53.5 -198.5t157.5 -67.5q50 0 91.5 15t71 47.5t46 82.5t16.5 119q0 75 -19.5 123t-52 76.5t-74 39.5t-86.5 11h-116v149h121q40 0 77 15t64.5 45.5t44 77t16.5 108.5q0 65 -15.5 111.5t-42 76.5t-61.5 44t-73 14q-42 0 -78 -15t-62 -46.5t-40.5 -79.5t-14.5 -113 v-18h-171v36q0 88 27 159t75 121.5t115 78t147 27.5z" />
<glyph unicode="4" d="M576 1430q-20 -95 -50 -193t-65.5 -192.5t-73.5 -181.5t-73.5 -159.5t-65.5 -126.5t-50 -82h386v443q15 37 26.5 71t21.5 67t19 68t19 76h81v-725h144v-149h-144v-346h-167v346h-543v151q55 101 107.5 214.5t99 233t87 242.5t71.5 243h170z" />
<glyph unicode="5" d="M807 1232h-494l-26 -427q17 17 41 36t54.5 35t69 26.5t83.5 10.5q69 0 129.5 -27.5t105 -83.5t70.5 -141.5t26 -201.5t-27 -206t-77.5 -151.5t-123 -93.5t-163.5 -32q-89 0 -161.5 31.5t-124 91t-79.5 144.5t-28 193h174q0 -72 17 -130t46.5 -98.5t69.5 -62.5t86 -22 q47 0 86.5 20.5t68.5 62.5t45.5 105t16.5 148q0 73 -15 129.5t-42 95t-64 58.5t-82 20q-67 0 -122.5 -44.5t-85.5 -117.5l-160 26l47 779h639v-173z" />
<glyph unicode="6" d="M475 1430q90 0 154.5 -35t106 -96.5t61 -145t19.5 -180.5h-171q0 146 -44 226.5t-134 80.5q-64 0 -105 -37t-64.5 -106t-33 -167.5t-10.5 -220.5q45 63 108 98.5t139 35.5q89 0 155 -35.5t109.5 -96.5t65 -144t21.5 -177q0 -105 -27.5 -189.5t-76.5 -143t-116.5 -90 t-146.5 -31.5q-94 0 -169 34t-127 113.5t-79.5 211.5t-27.5 327q0 220 26.5 367.5t77 236.5t123.5 126.5t166 37.5zM475 735q-53 0 -92 -24t-64.5 -65.5t-38 -97t-12.5 -118.5t12.5 -118.5t38 -97t64.5 -65.5t92 -24t91.5 24t64 65.5t37.5 97t12 118.5t-12 118.5t-37.5 97 t-64 65.5t-91.5 24z" />
<glyph unicode="7" d="M866 1297q-48 -73 -99 -158t-99 -179.5t-91 -197.5t-75 -211t-51 -220.5t-19 -225.5v-49q0 -11 0.5 -24.5t1.5 -31.5h-190q0 181 38.5 355t98.5 332.5t133 296.5t141 248h-588v173h799v-108z" />
<glyph unicode="8" d="M467 1430q88 0 155 -31t112 -84t67.5 -124.5t22.5 -152.5q0 -100 -38.5 -183t-115.5 -134q96 -48 139 -135t43 -201q0 -84 -22 -158.5t-68.5 -130t-119.5 -88t-175 -32.5t-175 32.5t-119.5 88t-68.5 130t-22 158.5q0 114 42.5 201t137.5 135q-75 51 -113 134t-38 183 q0 81 22.5 152.5t67.5 124.5t111.5 84t154.5 31zM467 643q-105 0 -159 -69t-54 -189q0 -60 13.5 -108t40.5 -81.5t66.5 -52t92.5 -18.5q52 0 92 18.5t67 52t40.5 81.5t13.5 108q0 121 -54 189.5t-159 68.5zM467 1280q-87 0 -137.5 -64.5t-50.5 -179.5q0 -114 50.5 -179 t137.5 -65t138.5 65t51.5 179q0 115 -51.5 179.5t-138.5 64.5z" />
<glyph unicode="9" d="M448 1430q95 0 170 -34t127 -114t79.5 -212t27.5 -327q0 -219 -26 -366.5t-75.5 -236.5t-121 -126.5t-162.5 -37.5q-92 0 -158 34.5t-108 96t-62 144.5t-20 181h170q0 -146 46 -226.5t140 -80.5q61 0 100.5 37t62 105.5t31.5 166t11 219.5q-47 -62 -108.5 -96t-139.5 -34 q-89 0 -155 35t-109.5 96.5t-64.5 143.5t-21 177q0 105 27.5 189.5t76.5 143.5t116 90.5t146 31.5zM459 1280q-53 0 -92 -24t-64 -65.5t-37 -97t-12 -118.5t12 -118.5t37 -97t64 -65.5t92 -24t92 24t64.5 65.5t38 97t12.5 118.5t-12.5 118.5t-38 97t-64.5 65.5t-92 24z" />
<glyph unicode=":" horiz-adv-x="467" d="M336 0h-205v222h205v-222zM336 856h-205v221h205v-221z" />
<glyph unicode=";" horiz-adv-x="467" d="M336 18l-98 -272h-107l82 254h-82v222h205v-204zM336 856h-205v221h205v-221z" />
<glyph unicode="&#x3c;" horiz-adv-x="981" d="M893 848l-637 -327l637 -329v-184l-802 402v218l802 404v-184z" />
<glyph unicode="=" horiz-adv-x="981" d="M891 651h-803v173h803v-173zM891 217h-803v170h803v-170z" />
<glyph unicode="&#x3e;" horiz-adv-x="981" d="M893 628v-218l-802 -402v184l636 329l-636 327v184z" />
<glyph unicode="?" d="M483 1430q76 0 141 -27t112.5 -75t74.5 -115t27 -148q0 -99 -20 -165.5t-49.5 -114.5t-64 -83t-64 -70t-49.5 -76.5t-20 -102.5v-84h-177v114q0 69 19 118.5t47.5 89t62 74.5t62 74t47.5 87.5t19 115.5q0 14 -2 37t-8.5 48.5t-19 51.5t-32.5 46.5t-49.5 33.5t-70.5 13 q-65 0 -103.5 -30t-58.5 -73t-26 -90.5t-6 -82.5v-23q0 -9 1 -17q0 -9 1 -16h-182q-2 14 -4 27q-2 11 -2.5 23t-0.5 22q0 86 24.5 162t74 133t123.5 90t173 33zM584 0h-205v222h205v-222z" />
<glyph unicode="@" horiz-adv-x="1704" d="M875 1430q158 0 292.5 -43.5t233 -137t154 -240t55.5 -352.5q0 -116 -17.5 -206.5t-47 -158.5t-68.5 -115t-82.5 -76.5t-88 -42.5t-84.5 -13q-44 0 -75 9.5t-52.5 26t-34.5 40t-20 51.5h-8q-38 -60 -100 -94.5t-140 -34.5q-35 0 -79 10t-83 39t-66 83t-27 142 q0 102 37.5 166t103.5 100t156.5 49t197.5 13v127q0 35 -6.5 64.5t-24 50.5t-47.5 32.5t-77 11.5q-43 0 -72 -13.5t-46 -35.5t-24.5 -50t-7.5 -56v-22h-151q-2 9 -2 18v22q0 68 23.5 119t65 85.5t99.5 51.5t127 17q148 0 221.5 -71.5t73.5 -203.5v-536q0 -42 17.5 -60 t52.5 -18q40 0 82 22t76.5 77t56.5 148t22 235q0 174 -45.5 298.5t-127 204t-195.5 117t-251 37.5q-153 0 -275.5 -48t-208.5 -145t-132 -244t-46 -345q0 -368 147 -551.5t452 -183.5q32 0 74.5 5t86 13.5t82.5 20.5t65 26v-123q-30 -12 -70.5 -22.5t-83 -17.5t-83.5 -11 t-71 -4q-166 0 -298.5 49.5t-225.5 153.5t-142.5 264.5t-49.5 382.5q0 163 28.5 293t80.5 229t124 169.5t159 115t186 65.5t204 21zM1032 509q-74 0 -136 -7t-106 -26.5t-68.5 -55t-24.5 -93.5q0 -84 34 -116.5t99 -32.5q36 0 72 15t65 45t47 75.5t18 106.5v89z" />
<glyph unicode="A" horiz-adv-x="1120" d="M831 313h-557l-96 -313h-180l446 1405h232l446 -1405h-194zM324 477h456l-190 625q-6 17 -11.5 43.5t-10.5 51.5q-5 29 -11 60h-8q-6 -32 -11 -61q-5 -25 -11 -51t-11 -43z" />
<glyph unicode="B" horiz-adv-x="1120" d="M133 1405h533q78 0 144.5 -24.5t114.5 -69.5t75.5 -108.5t27.5 -141.5q0 -61 -16.5 -113t-45.5 -93.5t-68.5 -71.5t-84.5 -46v-8q52 -16 97.5 -48.5t79 -78t52.5 -104t19 -125.5q0 -89 -31.5 -158t-85.5 -117t-125.5 -73t-152.5 -25h-533v1405zM313 637v-473h328 q50 0 92.5 15t73 44.5t48 73t17.5 100.5q0 48 -17 91.5t-48.5 76.5t-76.5 52.5t-101 19.5h-316zM313 1241v-440h299q52 0 94 18t72 48t46 70t16 85q0 110 -59 164.5t-156 54.5h-312z" />
<glyph unicode="C" horiz-adv-x="1212" d="M639 1430q107 0 197 -33t155 -99t101.5 -166t36.5 -235h-185q0 92 -21.5 161t-61.5 114.5t-96.5 68.5t-125.5 23q-185 0 -274.5 -126.5t-89.5 -383.5v-103q0 -258 89.5 -384t274.5 -126q71 0 128.5 22.5t98 67.5t62.5 113t22 159h179q0 -136 -36.5 -235t-101.5 -164 t-155 -96.5t-197 -31.5q-273 0 -413 180.5t-140 546.5q0 365 140 546t413 181z" />
<glyph unicode="D" horiz-adv-x="1212" d="M143 0v1405h437q124 0 222.5 -43t167.5 -128.5t105.5 -213t36.5 -297.5q0 -180 -36.5 -315.5t-105.5 -226t-167.5 -136t-222.5 -45.5h-437zM324 1241v-1077h239q83 0 149.5 31.5t113.5 94.5t72.5 158.5t25.5 223.5v102q0 117 -25.5 205t-72.5 146t-113.5 87t-149.5 29 h-239z" />
<glyph unicode="E" horiz-adv-x="1120" d="M143 0v1405h867v-164h-686v-440h596v-164h-596v-473h698v-164h-879z" />
<glyph unicode="F" horiz-adv-x="1026" d="M143 0v1405h811v-164h-630v-455h557v-163h-557v-623h-181z" />
<glyph unicode="G" horiz-adv-x="1307" d="M1016 156q-65 -96 -156.5 -138.5t-206.5 -42.5q-133 0 -236 45t-173.5 136t-107 227t-36.5 319t39 319.5t111.5 227.5t177 136t236.5 45q109 0 202.5 -31t162 -93.5t107 -157.5t38.5 -222h-185q0 87 -24 151t-66.5 105.5t-102.5 61.5t-132 20q-87 0 -156.5 -31.5 t-118 -95t-74.5 -159.5t-26 -224v-103q0 -257 94 -383.5t270 -126.5q175 0 255.5 99t80.5 301v32h-364v158h549v-731h-119z" />
<glyph unicode="H" horiz-adv-x="1212" d="M1069 0h-180v637h-565v-637h-181v1405h181v-604h565v604h180v-1405z" />
<glyph unicode="I" horiz-adv-x="467" d="M323 0h-180v1405h180v-1405z" />
<glyph unicode="J" horiz-adv-x="840" d="M707 334q0 -176 -89 -267t-251 -91t-251.5 91t-89.5 267v92h180v-103q0 -90 41.5 -136t119.5 -46q77 0 118.5 46t41.5 136v1082h180v-1071z" />
<glyph unicode="K" horiz-adv-x="1120" d="M324 662l557 743h200l-422 -567l437 -838h-205l-342 686l-225 -250v-436h-181v1405h181v-743z" />
<glyph unicode="L" d="M143 0v1405h181v-1241h573v-164h-754z" />
<glyph unicode="M" horiz-adv-x="1399" d="M1092 0v1020q0 18 2 54.5t5 72.5q3 42 7 90h-8q-9 -48 -18 -90q-8 -36 -16 -72.5t-13 -54.5l-281 -1020h-162l-280 1020q-2 7 -5 20.5t-6.5 30t-7.5 35.5t-7 37q-8 43 -17 94h-9q3 -50 6 -93q2 -37 4.5 -73t2.5 -51v-1020h-162v1405h274l248 -922q5 -19 9.5 -43t9 -49.5 t8.5 -52t7 -51.5q7 -58 13 -119h9q5 62 12 121q6 50 14 103.5t19 90.5l249 922h273v-1405h-180z" />
<glyph unicode="N" horiz-adv-x="1212" d="M1069 0h-150l-525 895q-14 23 -29.5 54.5t-29.5 61.5q-16 34 -32 72l-6 -2q2 -37 4 -71q2 -29 3 -61t1 -54v-895h-162v1405h156l523 -882q11 -20 25.5 -52.5t28.5 -62.5q15 -36 31 -74l6 2q-2 40 -3 76q-2 31 -2.5 62.5t-0.5 48.5v882h162v-1405z" />
<glyph unicode="O" horiz-adv-x="1307" d="M653 1430q129 0 232 -45t174 -136t109 -227t38 -319t-38 -319.5t-109 -227t-174 -135.5t-232 -45t-231.5 45t-173.5 135.5t-109 227t-38 319.5t38 319t109 227t173.5 136t231.5 45zM653 1264q-84 0 -151.5 -31.5t-115 -95.5t-72.5 -159.5t-25 -223.5v-103q0 -128 25 -224 t72.5 -159.5t115 -95t151.5 -31.5q85 0 152.5 31.5t114.5 95t72.5 159.5t25.5 224v103q0 128 -25.5 223.5t-72.5 159.5t-114.5 95.5t-152.5 31.5z" />
<glyph unicode="P" horiz-adv-x="1120" d="M324 580v-580h-181v1405h502q104 0 182.5 -30t131.5 -84t79.5 -129.5t26.5 -166.5q0 -93 -29 -169t-83.5 -131t-132.5 -85t-175 -30h-321zM324 1241v-498h315q54 0 97.5 18t75 51t48.5 79.5t17 103.5q0 115 -61 180.5t-177 65.5h-315z" />
<glyph unicode="Q" horiz-adv-x="1307" d="M100 702q0 183 38 319.5t109.5 227.5t174 136t231.5 45t231.5 -45t174 -136t109.5 -227.5t38 -319.5q0 -279 -88 -451.5t-246 -236.5l291 -268h-241l-244 229h-25q-129 0 -231.5 45t-174 136t-109.5 227t-38 319zM289 651q0 -128 25 -224t72.5 -159.5t115 -95 t151.5 -31.5q85 0 152.5 31.5t114.5 95t72.5 159.5t25.5 224v103q0 128 -25.5 224t-72.5 159.5t-114.5 95t-152.5 31.5q-84 0 -151.5 -31.5t-115 -95t-72.5 -159.5t-25 -224v-103z" />
<glyph unicode="R" horiz-adv-x="1212" d="M1128 1016q0 -131 -65.5 -226.5t-183.5 -136.5l282 -653h-200l-261 621h-376v-621h-181v1405h566q103 0 181.5 -28.5t131.5 -79.5t79.5 -122.5t26.5 -158.5zM324 1241v-457h378q54 0 98 16.5t75 47t48 73.5t17 95q0 105 -61 165t-177 60h-378z" />
<glyph unicode="S" horiz-adv-x="1120" d="M559 1430q91 0 171.5 -22.5t140.5 -70.5t94.5 -123t34.5 -180v-24h-186v30q0 54 -19.5 95.5t-53 70t-79.5 43.5t-99 15q-55 0 -102.5 -12t-82.5 -36t-55 -61t-20 -88q0 -63 31.5 -104.5t82.5 -71t116.5 -51.5t134 -45t134 -52t116.5 -73t82.5 -108t31.5 -156 q0 -118 -36 -200t-99.5 -133t-150.5 -74t-189 -23q-96 0 -182 22.5t-150.5 72.5t-102.5 130.5t-38 196.5q0 11 1 23t1 17h187q0 -1 -0.5 -6t-1 -11.5t-1 -13.5t-0.5 -11q0 -65 21 -112.5t58.5 -79.5t88.5 -47.5t111 -15.5q142 0 218.5 60t76.5 174q0 66 -31.5 109.5t-83 74 t-117 52.5t-134 45t-134 52t-117 74t-83 110t-31.5 160q0 97 35 168.5t95.5 118t142 69t173.5 22.5z" />
<glyph unicode="T" horiz-adv-x="1026" d="M39 1405h946v-164h-383v-1241h-180v1241h-383v164z" />
<glyph unicode="U" horiz-adv-x="1212" d="M1069 457q0 -119 -31.5 -208.5t-91.5 -150.5t-146 -91.5t-194 -30.5t-194 30.5t-146 91.5t-91.5 150.5t-31.5 208.5v948h180v-959q0 -149 75.5 -227t207.5 -78t207.5 78t75.5 227v959h180v-948z" />
<glyph unicode="V" horiz-adv-x="1120" d="M676 0h-232l-428 1405h199l348 -1207h8l358 1207h175z" />
<glyph unicode="W" horiz-adv-x="1585" d="M1239 0h-233l-172 953q-6 35 -13 82.5t-13 92.5q-7 52 -14 106h-8q-6 -54 -13 -106q-6 -45 -13 -92.5t-13 -82.5l-167 -953h-234l-326 1405h190l216 -971q7 -31 14 -74t14 -82q7 -46 15 -94h8q4 38 9 79q5 35 11 79.5t14 91.5l163 971h249l175 -971q7 -38 14 -81.5 t12 -81.5q6 -44 11 -87h8l14 90q6 38 13.5 81.5t15.5 78.5l215 971h164z" />
<glyph unicode="X" horiz-adv-x="1120" d="M1067 1405l-18 -29q-17 -29 -45.5 -75.5t-65.5 -105.5t-75 -121q-90 -145 -203 -329l452 -745h-213l-346 574l-353 -574h-192l449 729l-408 676h213l303 -502q86 140 155 250q29 47 57 92t49.5 80.5t34.5 57.5l14 22h192z" />
<glyph unicode="Y" horiz-adv-x="1120" d="M651 582v-582h-180v582l-455 823h199l356 -651h9l349 651h175z" />
<glyph unicode="Z" horiz-adv-x="1026" d="M41 0v78l668 1163h-625v164h883v-78l-670 -1163h684v-164h-940z" />
<glyph unicode="[" horiz-adv-x="467" d="M426 1372h-170v-1568h170v-133h-325v1834h325v-133z" />
<glyph unicode="\" horiz-adv-x="467" d="M467 -101h-146l-319 1606h143z" />
<glyph unicode="]" horiz-adv-x="467" d="M367 -329h-326v133h169v1568h-169v133h326v-1834z" />
<glyph unicode="^" horiz-adv-x="788" d="M786 602h-184l-206 646l-204 -646h-184l279 803h218z" />
<glyph unicode="_" d="M931 -254h-931v109h931v-109z" />
<glyph unicode="`" horiz-adv-x="559" d="M418 1210h-141l-222 264l2 7h185z" />
<glyph unicode="a" d="M457 1102q163 0 244 -79.5t81 -222.5v-604q0 -38 18 -54.5t40 -16.5h65v-117q-14 -8 -42 -16t-69 -8q-66 0 -110 36.5t-60 96.5h-10q-42 -67 -109.5 -104t-152.5 -37q-27 0 -58 4.5t-62.5 16t-61 33t-52 55t-36 81.5t-13.5 113q0 111 41 181.5t114 110t173 54t217 14.5 v139q0 39 -7 71t-26 55t-52 36t-85 13q-48 0 -79.5 -15t-50.5 -39.5t-27 -55t-8 -61.5v-24h-166q-2 9 -2 19v25q0 74 25.5 130.5t71.5 94t109.5 56.5t139.5 19zM614 489q-82 0 -149.5 -7.5t-116 -29.5t-75.5 -61t-27 -102q0 -92 37 -128t108 -36q40 0 79.5 16.5t71.5 49.5 t52 83t20 117v98z" />
<glyph unicode="b" d="M272 125l-22 -125h-127v1481h168v-506h10q28 60 89.5 93.5t139.5 33.5q67 0 126 -32.5t102.5 -101t68.5 -174.5t25 -253q0 -149 -23.5 -256t-67 -176t-105 -101.5t-138.5 -32.5q-74 0 -135.5 38t-99.5 112h-11zM676 578q0 100 -12 171t-36 116t-60.5 66t-84.5 21 q-192 0 -192 -383v-69q0 -187 47.5 -281t144.5 -94q48 0 84.5 21t60.5 66t36 116t12 172v78z" />
<glyph unicode="c" horiz-adv-x="840" d="M442 1102q88 0 150.5 -27.5t102.5 -81.5t58.5 -133t18.5 -182h-174q0 70 -7.5 121.5t-25.5 85.5t-48 51t-75 17q-100 0 -146 -94t-46 -281v-79q0 -186 45 -280t147 -94q45 0 76.5 18t51 53t28 86t8.5 118h166q0 -85 -18 -161.5t-57.5 -135t-102.5 -93t-152 -34.5 q-95 0 -164.5 33.5t-114.5 103t-67 175.5t-22 251q0 289 89.5 426t278.5 137z" />
<glyph unicode="d" d="M811 0h-127l-22 125h-11q-38 -75 -99 -112t-136 -37q-77 0 -139 32.5t-105.5 101.5t-66.5 175.5t-23 255.5q0 146 25.5 252t69 174.5t102 101.5t125.5 33q78 0 139.5 -33.5t89.5 -93.5h10v506h168v-1481zM450 953q-48 0 -84 -21t-60 -66t-36 -116.5t-12 -171.5v-79 q0 -100 12 -171t36 -116t60 -66t84 -21q98 0 145.5 94t47.5 280v70q0 384 -193 384z" />
<glyph unicode="e" d="M491 1102q88 0 155 -28.5t111 -89.5t66.5 -157t22.5 -231v-107h-584q1 -188 58.5 -276t176.5 -88q40 0 73.5 16.5t58 48t38 76.5t13.5 101h166q0 -91 -25.5 -163.5t-72 -123t-111.5 -77.5t-144 -27q-100 0 -176 31.5t-127.5 100t-77.5 175t-26 256.5q0 289 101.5 426 t303.5 137zM491 953q-56 0 -96.5 -20t-67.5 -59.5t-42 -98t-21 -136.5h406q0 155 -45.5 234.5t-133.5 79.5z" />
<glyph unicode="f" horiz-adv-x="467" d="M325 1497q38 0 77 -7.5t65 -17.5v-116h-90q-48 0 -72 -25t-24 -73v-181h186v-150h-186v-927h-168v927h-95v150h95v173q0 46 10 90t34.5 79t65.5 56.5t102 21.5z" />
<glyph unicode="g" d="M893 1252q0 -48 -12 -90.5t-35.5 -76.5t-57 -57.5t-75.5 -34.5q45 -47 70.5 -110t25.5 -144q0 -83 -24.5 -150t-69.5 -113.5t-108.5 -72t-141.5 -26.5h-113q-21 0 -38.5 -7.5t-31 -20.5t-21 -30.5t-7.5 -37.5t8 -37.5t21.5 -31t31 -21t37.5 -7.5h308q58 0 105 -20 t80 -54.5t50.5 -80t17.5 -96.5q0 -64 -20.5 -120t-60.5 -97t-99 -65t-135 -24h-305q-66 0 -116 20t-83.5 55t-50.5 81.5t-17 99.5q0 39 10 75.5t28 66.5t44 53t58 35q-42 26 -65 69.5t-23 92.5q0 66 41.5 113.5t110.5 72.5q-59 48 -92 117.5t-33 160.5q0 85 24 152t69.5 114 t111 72t147.5 25q41 0 81 -10.5t74 -28.5q36 19 60 41.5t39 47t22.5 49.5t11.5 51h148zM319 24q-32 0 -55.5 -9.5t-39 -26.5t-23 -40t-7.5 -49t8 -49t23.5 -40.5t39 -27.5t54.5 -10h297q27 0 50 10t40.5 27.5t27 40.5t9.5 49t-7.5 49t-23.5 40t-39.5 26.5t-56.5 9.5h-297z M455 963q-90 0 -136 -60t-46 -164q0 -108 46 -165t136 -57t137 59.5t47 162.5q0 109 -47 166.5t-137 57.5z" />
<glyph unicode="h" d="M291 965h12q42 72 101.5 104.5t140.5 32.5q61 0 110 -17t83.5 -56t53.5 -101t19 -152v-776h-168v764q0 56 -11 92.5t-31 58t-48 30t-62 8.5q-40 0 -76 -20t-63.5 -58t-44 -93t-16.5 -125v-657h-168v1481h168v-516z" />
<glyph unicode="i" horiz-adv-x="373" d="M270 0h-167v1077h167v-1077zM270 1280h-167v201h167v-201z" />
<glyph unicode="j" horiz-adv-x="373" d="M270 -125q0 -46 -10 -90.5t-34.5 -79.5t-65.5 -56.5t-103 -21.5q-37 0 -76 8t-65 17v116h90q48 0 72.5 25.5t24.5 73.5v1210h167v-1202zM270 1280h-167v201h167v-201z" />
<glyph unicode="k" horiz-adv-x="840" d="M291 578l348 499h187l-319 -442l335 -635h-191l-245 491l-115 -124v-367h-168v1481h168v-903z" />
<glyph unicode="l" horiz-adv-x="373" d="M270 0h-167v1481h167v-1481z" />
<glyph unicode="m" horiz-adv-x="1399" d="M1022 1102q57 0 103.5 -17t80 -56t52 -101t18.5 -152v-776h-168v764q0 56 -10.5 92.5t-29.5 58t-44 30t-55 8.5q-38 0 -71.5 -20t-59 -58t-40 -93t-14.5 -125v-657h-168v764q0 56 -10.5 92.5t-29 58t-44 30t-55.5 8.5q-38 0 -71.5 -20t-59 -58t-40.5 -93t-15 -125v-657 h-168v1077h127l23 -124h12q43 80 105.5 114.5t140.5 34.5q79 0 139.5 -36.5t89.5 -119.5q44 77 114 116.5t148 39.5z" />
<glyph unicode="n" d="M545 1102q61 0 110 -17t83.5 -56t53.5 -101t19 -152v-776h-168v764q0 56 -11 92.5t-31 58t-48 30t-62 8.5q-40 0 -76 -20t-63.5 -58t-44 -93t-16.5 -125v-657h-168v1077h127l23 -124h12q45 80 112 114.5t148 34.5z" />
<glyph unicode="o" d="M467 1102q189 0 287 -137t98 -426q0 -290 -98 -426.5t-287 -136.5t-287 136.5t-98 426.5q0 289 98 426t287 137zM467 953q-106 0 -157.5 -94t-51.5 -281v-79q0 -186 51.5 -280t157.5 -94q105 0 157 94t52 280v79q0 187 -52 281t-157 94z" />
<glyph unicode="p" d="M519 1102q76 0 138 -33t105 -102t66.5 -175.5t23.5 -254.5q0 -147 -25 -253t-68.5 -174.5t-102 -101t-125.5 -32.5q-79 0 -140.5 31t-89.5 88h-10v-449h-168v1431h127l23 -124h10q38 73 99.5 111t136.5 38zM483 953q-97 0 -144.5 -94t-47.5 -281v-79q0 -186 47.5 -280 t144.5 -94q48 0 84.5 21t60.5 66t36 116t12 171v79q0 100 -12 171.5t-36 116.5t-60.5 66t-84.5 21z" />
<glyph unicode="q" d="M662 952l22 125h127v-1431h-168v448h-10q-28 -56 -89.5 -87.5t-140.5 -31.5q-67 0 -125.5 32.5t-102 101.5t-68.5 175t-25 253q0 148 23.5 255t67 176t105 101.5t138.5 32.5q74 0 135.5 -37.5t99.5 -112.5h11zM258 500q0 -101 12 -172t36 -116t60.5 -66t84.5 -21 q97 0 144.5 94t47.5 281v78q0 186 -47.5 280t-144.5 94q-48 0 -84.5 -21t-60.5 -66t-36 -116t-12 -171v-78z" />
<glyph unicode="r" horiz-adv-x="559" d="M467 1102q17 0 31 -3t25 -6l24 -8v-174h-56q-40 0 -76 -13t-63.5 -42.5t-44 -78t-16.5 -120.5v-657h-168v1077h127l23 -141h12q10 31 25 60.5t37 53t51.5 38t68.5 14.5z" />
<glyph unicode="s" horiz-adv-x="840" d="M428 1102q75 0 132.5 -23.5t97 -64t59.5 -94t20 -113.5q0 -11 -1 -23.5t-1 -15.5h-174v18q0 31 -7 61.5t-24.5 54.5t-46 38.5t-71.5 14.5q-45 0 -73 -15t-44.5 -37t-22.5 -48t-6 -48q0 -44 21 -72.5t55.5 -48.5t79 -35t90.5 -32t90.5 -39.5t79 -58t55.5 -87.5t21 -127 q0 -87 -26 -149.5t-72 -103t-109 -59.5t-137 -19q-93 0 -159 26.5t-107.5 71t-61 101t-19.5 116.5q0 21 1 31.5t1 13.5h177v-21q0 -51 13.5 -87t37.5 -59.5t56 -34.5t69 -11q33 0 62 10t51.5 30.5t35.5 50.5t13 69q0 51 -21 84t-55.5 55.5t-78.5 39t-90.5 33.5t-90.5 39 t-78.5 55.5t-55.5 83t-21 121.5t23.5 129t67.5 96.5t105.5 61t138.5 21.5z" />
<glyph unicode="t" horiz-adv-x="467" d="M289 1077h145v-150h-145v-703q0 -48 24 -73.5t72 -25.5h49v-117q-21 -12 -55.5 -20t-65.5 -8q-55 0 -92 21.5t-59 56.5t-31.5 79.5t-9.5 90.5v699h-93v150h93l37 299h131v-299z" />
<glyph unicode="u" d="M811 0h-127l-22 125h-13q-45 -81 -112.5 -115t-147.5 -34q-60 0 -109.5 17t-84 55.5t-53.5 100.5t-19 152v776h168v-764q0 -56 11 -92.5t31 -57.5t47.5 -29.5t61.5 -8.5q40 0 76.5 20t64 58t44 92.5t16.5 124.5v657h168v-1077z" />
<glyph unicode="v" horiz-adv-x="840" d="M511 0h-182l-309 1077h184l220 -819h8l219 819h171z" />
<glyph unicode="w" horiz-adv-x="1212" d="M940 0h-186l-113 614q-8 42 -13.5 86t-10.5 80q-5 42 -9 82h-8q-4 -40 -9 -82q-5 -36 -10.5 -80t-13.5 -86l-110 -614h-187l-268 1077h184l135 -606q8 -33 15.5 -77t13.5 -84q7 -47 14 -95h9q4 42 9 86q5 38 10.5 83t13.5 87l109 606h194l111 -606q7 -42 12.5 -86.5 t10.5 -82.5q5 -44 9 -87h8q5 39 12 82q5 37 13 82t18 92l135 606h170z" />
<glyph unicode="x" horiz-adv-x="840" d="M511 559l317 -559h-204l-210 394l-218 -394h-184l313 545l-299 532h204l194 -368l200 368h190z" />
<glyph unicode="y" horiz-adv-x="840" d="M547 55q-24 -88 -55 -166t-72.5 -136t-96 -92t-125.5 -34q-35 0 -64.5 3.5t-55.5 13.5v116h59q34 0 66 11.5t60 39.5t50 74t37 115l-330 1077h184l238 -835h8l201 835h171z" />
<glyph unicode="z" horiz-adv-x="840" d="M758 1000l-475 -851h501v-149h-731v80l474 847h-441v150h672v-77z" />
<glyph unicode="{" horiz-adv-x="561" d="M521 1388q-28 0 -57 -5.5t-52.5 -21.5t-38.5 -44.5t-15 -73.5q0 -106 -4.5 -209.5t-9.5 -211.5q-2 -53 -11.5 -94t-30.5 -69.5t-55 -43.5t-83 -15v-20q49 0 83 -15t55 -43.5t30.5 -70t11.5 -93.5q5 -108 9.5 -211.5t4.5 -209.5q0 -45 15 -73.5t38.5 -44.5t52.5 -21.5 t57 -5.5v-117q-64 0 -122.5 11t-103 43.5t-71 92t-26.5 156.5v403q0 34 -14 57.5t-36.5 38t-50.5 20.5t-56 6v173q28 0 56 6.5t50.5 20.5t36.5 37.5t14 57.5v404q0 97 26.5 156.5t71 92t103 43.5t122.5 11v-117z" />
<glyph unicode="|" horiz-adv-x="436" d="M299 -354h-162v1835h162v-1835z" />
<glyph unicode="}" horiz-adv-x="561" d="M41 1505q63 0 121.5 -11t102.5 -43.5t70.5 -92t26.5 -156.5v-404q0 -34 14.5 -57.5t37 -37.5t51 -20.5t56.5 -6.5v-173q-28 0 -56.5 -6t-51 -20.5t-37 -38t-14.5 -57.5v-403q0 -97 -26.5 -156.5t-70.5 -92t-102.5 -43.5t-121.5 -11v117q28 0 56.5 5.5t51.5 21.5t38 44.5 t15 73.5q0 106 5 209.5t10 211.5q2 52 12 93.5t31 70t54.5 43.5t83.5 15v20q-50 0 -83.5 15t-54.5 43.5t-31 69.5t-12 94q-5 108 -10 211.5t-5 209.5q0 45 -15 73.5t-38 44.5t-51.5 21.5t-56.5 5.5v117z" />
<glyph unicode="~" horiz-adv-x="981" d="M668 645q34 0 65 10.5t57.5 26.5t47.5 34.5t36.5 35t24.5 27.5q8 11 10 13v-186q-25 -42 -60 -75q-30 -28 -75 -51t-106 -23q-48 0 -91 19.5t-85 43t-86 43t-93 19.5q-52 0 -95.5 -22.5t-75.5 -50t-50.5 -51t-20.5 -26.5v188q26 42 61 75q30 28 75 51.5t106 23.5 q48 0 91 -19.5t85 -43t86 -43t93 -19.5z" />
<glyph unicode="&#xa1;" horiz-adv-x="559" d="M383 727q5 -93 10 -199t10 -213.5t10 -210t9 -188.5t7.5 -150t6.5 -93h-232q17 263 28.5 526.5t23.5 527.5h127zM424 856h-205v221h205v-221z" />
<glyph unicode="&#xa2;" d="M531 1264q80 -7 137.5 -37.5t94 -84t54 -129t17.5 -171.5h-174q0 123 -28 188.5t-101 81.5v-819q75 15 106 83.5t31 186.5h166q0 -79 -17 -151.5t-53.5 -130t-94 -94.5t-138.5 -46v-242h-101v242q-171 19 -251 155t-80 407q0 268 80 405t251 154v219h101v-217zM430 1108 q-82 -22 -118.5 -114t-36.5 -253v-77q0 -163 35.5 -254.5t119.5 -114.5v813z" />
<glyph unicode="&#xa3;" d="M517 1430q75 0 136 -21t103.5 -68t66 -123t23.5 -186v-26h-168v32q0 125 -41.5 183.5t-119.5 58.5q-79 0 -120 -54t-41 -171v-285h272v-148h-274l-18 -460h510v-162h-785v162h125v460h-147v148h147v252q0 204 87.5 306t243.5 102z" />
<glyph unicode="&#xa4;" d="M467 1206q82 0 155 -32t132 -89l88 88l98 -98l-100 -100q34 -60 52.5 -129.5t18.5 -144.5q0 -78 -18.5 -147.5t-52.5 -127.5l100 -101l-98 -97l-88 87q-59 -55 -132 -87t-155 -32q-84 0 -156 32t-131 87l-87 -87l-99 97l101 101q-35 58 -54 127.5t-19 147.5 q0 75 19 144.5t54 129.5l-101 100l99 98l85 -88q59 57 132 89t157 32zM467 1065q-64 0 -119.5 -28.5t-97 -78t-65 -115.5t-23.5 -142t23.5 -142t65 -115t97 -77.5t119.5 -28.5q63 0 118 28.5t96.5 77.5t65 115t23.5 142t-23.5 142t-65 115.5t-96.5 78t-118 28.5z" />
<glyph unicode="&#xa5;" d="M620 756h263v-134h-326v-143h326v-133h-326v-346h-180v346h-326v133h326v143h-326v134h262l-309 649h194l279 -600h8l273 600h169z" />
<glyph unicode="&#xa6;" horiz-adv-x="436" d="M299 703h-162v778h162v-778zM299 -354h-162v778h162v-778z" />
<glyph unicode="&#xa7;" d="M495 1430q76 0 134 -23.5t97 -64t59 -94t20 -113.5q0 -11 -1.5 -23.5t-1.5 -16.5h-174v20q0 31 -7 61t-24.5 53.5t-46 38t-71.5 14.5q-44 0 -72 -14.5t-44.5 -36.5t-22.5 -48t-6 -48q0 -57 21 -98.5t55.5 -73t79 -57.5t90.5 -53t90.5 -58t79 -73t55.5 -98.5t21 -134.5 q0 -50 -12.5 -92t-32.5 -76.5t-46 -61.5t-53 -46q26 -23 48.5 -50.5t39 -61t26 -75t9.5 -91.5q0 -72 -22.5 -129t-65.5 -96.5t-105.5 -61t-142.5 -21.5q-75 0 -133 23.5t-97 64t-59 94t-20 113.5q0 11 1 23.5t1 15.5h174v-18q0 -32 7 -62t24.5 -54t46 -38.5t71.5 -14.5 q44 0 72 15t44.5 37t22.5 48t6 48q0 57 -21 98.5t-55.5 73.5t-78.5 58t-90.5 52.5t-90.5 57.5t-78.5 73t-55.5 98.5t-21 133.5q0 50 12 92.5t32.5 76.5t46.5 60.5t53 45.5q-55 46 -89 112.5t-34 168.5q0 71 22.5 128t65.5 96.5t105 61t142 21.5zM373 776q-33 -25 -51.5 -67 t-18.5 -99q0 -70 26 -118.5t67 -85t92 -66t102 -61.5q32 26 52 68t20 99q0 70 -26 118.5t-67.5 85t-93 65.5t-102.5 61z" />
<glyph unicode="&#xa8;" horiz-adv-x="559" d="M523 1286h-179v195h179v-195zM215 1286h-178v195h178v-195z" />
<glyph unicode="&#xa9;" horiz-adv-x="1237" d="M618 1430q135 0 241.5 -51.5t181 -146.5t114 -229t39.5 -300t-39.5 -300.5t-114 -229t-181 -146t-241.5 -51.5q-134 0 -241 51.5t-181 146t-113.5 229t-39.5 300.5t39.5 300t113.5 229t181 146.5t241 51.5zM622 1143q63 0 116 -19.5t91.5 -58.5t60 -97.5t21.5 -137.5 h-119q0 105 -46 155.5t-124 50.5q-105 0 -154.5 -72t-49.5 -219v-61q0 -147 49.5 -220t154.5 -73q79 0 126.5 51t47.5 154h115q0 -80 -21.5 -138.5t-60 -97t-91.5 -57t-116 -18.5q-161 0 -243 106.5t-82 321.5q0 218 82 324t243 106zM618 1333q-112 0 -201 -44.5 t-151.5 -127t-95.5 -199t-33 -259.5q0 -144 33 -261t95.5 -199.5t151.5 -127t201 -44.5t201.5 44.5t151.5 127t95.5 199.5t33.5 261q0 143 -33.5 259.5t-95.5 199t-151.5 127t-201.5 44.5z" />
<glyph unicode="&#xaa;" horiz-adv-x="621" d="M305 1505q113 0 168.5 -53.5t55.5 -150.5v-406q0 -25 11 -35t23 -10h47v-84q-11 -8 -31 -13.5t-46 -5.5q-45 0 -76 24t-43 65q-29 -45 -75 -70t-103 -25q-28 0 -62 7.5t-63.5 29.5t-49.5 62.5t-20 107.5q0 77 27.5 125.5t76.5 75.5t116 37t147 10v88q0 25 -5 46 t-17.5 36.5t-33.5 24t-53 8.5q-31 0 -52 -10t-33.5 -26t-18 -36t-5.5 -41v-20h-121v35q0 51 17.5 89t49 63.5t75 38.5t94.5 13zM408 1087q-53 0 -97.5 -5t-76 -19.5t-49 -40.5t-17.5 -67q0 -59 23.5 -82t70.5 -23q25 0 51 10.5t47 32.5t34.5 54.5t13.5 76.5v63z" />
<glyph unicode="&#xab;" d="M624 668l230 -410h-143l-291 410l291 409h143zM313 668l232 -410h-145l-289 410l289 409h145z" />
<glyph unicode="&#xac;" horiz-adv-x="981" d="M891 404h-172v333h-639v190h811v-523z" />
<glyph unicode="&#xad;" horiz-adv-x="559" d="M537 453h-517v200h517v-200z" />
<glyph unicode="&#xae;" horiz-adv-x="1237" d="M618 1430q135 0 241.5 -51.5t181 -146.5t114 -229t39.5 -300t-39.5 -300.5t-114 -229t-181 -146t-241.5 -51.5q-134 0 -241 51.5t-181 146t-113.5 229t-39.5 300.5t39.5 300t113.5 229t181 146.5t241 51.5zM618 1333q-112 0 -201 -44.5t-151.5 -127t-95.5 -199 t-33 -259.5q0 -144 33 -261t95.5 -199.5t151.5 -127t201 -44.5t201.5 44.5t151.5 127t95.5 199.5t33.5 261q0 143 -33.5 259.5t-95.5 199t-151.5 127t-201.5 44.5zM686 1127q45 0 84 -15t67 -42.5t44 -66t16 -84.5q0 -36 -10 -67.5t-27.5 -56t-41 -42t-50.5 -26.5v-8 q9 -4 29.5 -16.5t41 -38t36.5 -66t16 -99.5q0 -43 3.5 -71t11 -45t18 -26.5t24.5 -14.5v-35q-8 -3 -25 -6.5t-34 -3.5q-23 0 -44 7.5t-37.5 25.5t-26 48t-9.5 75q0 63 -13 103.5t-32.5 64t-43 32.5t-44.5 9h-166v-359h-117v824h330zM473 1018v-248h170q62 0 97.5 36t35.5 91 q0 59 -35 90t-92 31h-176z" />
<glyph unicode="&#xaf;" horiz-adv-x="559" d="M537 1226h-513v148h513v-148z" />
<glyph unicode="&#xb0;" horiz-adv-x="819" d="M406 1430q57 0 107.5 -21.5t88 -59t59 -88t21.5 -108.5q0 -57 -21.5 -107.5t-59 -88t-88 -59t-107.5 -21.5q-58 0 -108.5 21.5t-88 59t-59 88t-21.5 107.5q0 58 21.5 108.5t59 88t88 59t108.5 21.5zM406 1319q-35 0 -65.5 -13t-53.5 -35.5t-36 -52.5t-13 -65t13 -65.5 t36 -53t53.5 -36t65.5 -13.5q34 0 64 13.5t52.5 36t35.5 53t13 65.5t-13 65t-35.5 52.5t-52.5 35.5t-64 13z" />
<glyph unicode="&#xb1;" horiz-adv-x="1124" d="M645 807h318v-172h-318v-375h-170v375h-315v172h315v377h170v-377zM963 0h-803v170h803v-170z" />
<glyph unicode="&#xb2;" horiz-adv-x="559" d="M289 1505q46 0 87 -12.5t72 -39t49 -69t18 -102.5q0 -51 -18 -98.5t-46 -91.5t-62.5 -84.5t-67.5 -76.5q-29 -32 -62 -66.5t-53 -76.5h311v-128h-468v32q0 63 24.5 116.5t61 100.5t79.5 91t79.5 88.5t61 91.5t24.5 102q0 17 -4 35t-14.5 33t-28.5 24.5t-45 9.5 q-26 0 -44.5 -10.5t-30 -29t-17 -43t-5.5 -51.5v-64h-129q-1 9 -2 20q-1 9 -1.5 20t-0.5 22q0 68 19 117t51 80t74 45.5t88 14.5z" />
<glyph unicode="&#xb3;" horiz-adv-x="559" d="M285 1505q51 0 92 -15.5t70.5 -45t45.5 -73.5t16 -101q0 -69 -25.5 -111t-71.5 -72q48 -24 79.5 -74t31.5 -122q0 -58 -17.5 -103t-48.5 -76.5t-74 -48t-94 -16.5q-118 0 -180 68.5t-62 187.5v22h131v-26q0 -135 103 -135q51 0 82 32t31 101q0 38 -9.5 62.5t-25.5 39 t-37 20t-43 5.5h-73v117h75q40 0 70 30t30 93q0 65 -28.5 94.5t-65.5 29.5q-40 0 -68.5 -31t-28.5 -97v-28h-129v38q0 54 16.5 97t46.5 74t71 47.5t90 16.5z" />
<glyph unicode="&#xb4;" horiz-adv-x="559" d="M501 1474l-220 -264h-142l176 271h184z" />
<glyph unicode="&#xb5;" d="M811 0h-127l-22 125h-13q-45 -81 -112.5 -115t-147.5 -34q-28 0 -52.5 3t-45.5 11v-344h-168v1431h168v-786q0 -49 11.5 -81t31.5 -51t48 -26.5t60 -7.5q40 0 76.5 20t64 58t44 92.5t16.5 124.5v657h168v-1077z" />
<glyph unicode="&#xb6;" horiz-adv-x="901" d="M858 1280h-98v-1634h-136v1634h-107v-1634h-134v865q-74 10 -137 48.5t-109.5 98t-73 136t-26.5 163.5q0 93 30.5 174.5t83.5 142t124.5 96t154.5 35.5h428v-125z" />
<glyph unicode="&#xb7;" horiz-adv-x="467" d="M336 590h-207v228h207v-228z" />
<glyph unicode="&#xb8;" horiz-adv-x="559" d="M293 -74q33 -2 63 -10t53 -23.5t36.5 -39.5t13.5 -59q0 -52 -21.5 -84.5t-54 -51t-69.5 -25t-68 -6.5q-44 0 -89.5 4.5t-82.5 12.5v100h156q34 0 53.5 10t19.5 40q0 24 -14.5 36t-54.5 12h-68l28 180h113z" />
<glyph unicode="&#xb9;" horiz-adv-x="559" d="M371 778h150v-118h-439v118h162v529h-164v88q24 3 54 11t61.5 20t61.5 26.5t54 30.5h60v-705z" />
<glyph unicode="&#xba;" horiz-adv-x="612" d="M305 1505q129 0 195.5 -93t66.5 -289q0 -198 -66 -291t-196 -93q-128 0 -195 93t-67 291q0 196 67 289t195 93zM305 1397q-69 0 -102 -62t-33 -186v-54q0 -124 33 -185.5t102 -61.5q137 0 137 247v54q0 248 -137 248z" />
<glyph unicode="&#xbb;" d="M824 668l-289 -410h-146l231 410l-231 409h146zM515 668l-291 -410h-144l229 410l-229 409h144z" />
<glyph unicode="&#xbc;" horiz-adv-x="1401" d="M364 -24h-128l851 1454h127zM354 701h149v-119h-438v119h163v527h-165v89q24 3 54.5 11t62 20t61.5 26.5t54 30.5h59v-704zM1137 846q-17 -78 -44 -158.5t-56 -152.5t-57.5 -130t-48.5 -92h175v186q7 19 17 45.5t20 57t19.5 63t15.5 62.5h54v-414h83v-117h-83v-196h-126 v196h-310v107q66 118 121 259t93 284h127z" />
<glyph unicode="&#xbd;" horiz-adv-x="1401" d="M342 -24h-129l852 1454h127zM354 701h149v-119h-438v119h163v527h-165v89q24 3 54.5 11t62 20t61.5 26.5t54 30.5h59v-704zM1085 846q46 0 87 -12.5t72 -39.5t49 -69.5t18 -102.5q0 -51 -18 -98t-45.5 -91t-61.5 -84t-67 -76q-30 -32 -63.5 -67.5t-51.5 -76.5h309v-129 h-467v33q0 63 24.5 116.5t61 100.5t79.5 91t79.5 88t61 91.5t24.5 101.5q0 17 -4 35.5t-14.5 33.5t-28.5 24.5t-46 9.5q-26 0 -44 -10.5t-29.5 -29t-17 -43t-5.5 -52.5v-63h-129q-1 9 -2 20q-1 9 -1.5 19.5t-0.5 21.5q0 68 19 117t51 80.5t73.5 46t87.5 14.5z" />
<glyph unicode="&#xbe;" horiz-adv-x="1401" d="M348 -24h-129l852 1454h127zM293 1430q51 0 92.5 -15.5t71 -45.5t46 -74t16.5 -101q0 -69 -26.5 -111t-72.5 -71q48 -25 79.5 -74.5t31.5 -121.5q0 -58 -17.5 -103.5t-48.5 -77t-74 -48t-94 -16.5q-118 0 -180 69t-62 188v22h131v-26q0 -136 103 -136q51 0 82 32t31 102 q0 37 -9.5 61.5t-25.5 38.5t-37 20t-43 6h-72v117h74q40 0 70 30t30 93q0 66 -28.5 95.5t-65.5 29.5q-40 0 -68.5 -31.5t-28.5 -97.5v-27h-129v37q0 54 16.5 97.5t46.5 74t71 47.5t90 17zM1137 846q-17 -78 -44 -158.5t-56 -152.5t-57.5 -130t-48.5 -92h175v186 q7 19 17 45.5t20 57t19.5 63t15.5 62.5h54v-414h83v-117h-83v-196h-126v196h-310v107q66 118 121 259t93 284h127z" />
<glyph unicode="&#xbf;" horiz-adv-x="1026" d="M588 594q0 -70 -19 -120t-48 -90.5t-62.5 -76t-62.5 -75t-48 -89t-19 -117.5q0 -14 2.5 -35.5t9.5 -45.5t20 -49t34.5 -45t53 -32.5t74.5 -12.5q62 0 98.5 29.5t55.5 72.5t24.5 90.5t5.5 83.5q0 12 -0.5 22t-0.5 18q-1 9 -1 15h182q1 -13 3 -26q1 -11 2 -23.5t1 -22.5 q0 -90 -24 -166.5t-72 -132t-120.5 -87t-169.5 -31.5q-78 0 -144.5 26t-115.5 73t-76.5 112.5t-27.5 144.5q0 95 20 160.5t49.5 114t64 85t64 74t49.5 81t20 105.5v85h178v-115zM602 856h-204v221h204v-221z" />
<glyph unicode="&#xc0;" horiz-adv-x="1120" d="M541 1538l-222 264l3 6h184l176 -270h-141zM831 313h-557l-96 -313h-180l446 1405h232l446 -1405h-194zM324 477h456l-190 625q-6 17 -11.5 43.5t-10.5 51.5q-5 29 -11 60h-8q-6 -32 -11 -61q-5 -25 -11 -51t-11 -43z" />
<glyph unicode="&#xc1;" horiz-adv-x="1120" d="M580 1538h-142l176 270h185l2 -6zM831 313h-557l-96 -313h-180l446 1405h232l446 -1405h-194zM324 477h456l-190 625q-6 17 -11.5 43.5t-10.5 51.5q-5 29 -11 60h-8q-6 -32 -11 -61q-5 -25 -11 -51t-11 -43z" />
<glyph unicode="&#xc2;" horiz-adv-x="1120" d="M815 1530h-164l-90 162l-92 -162h-164l176 276h160zM831 313h-557l-96 -313h-180l446 1405h232l446 -1405h-194zM324 477h456l-190 625q-6 17 -11.5 43.5t-10.5 51.5q-5 29 -11 60h-8q-6 -32 -11 -61q-5 -25 -11 -51t-11 -43z" />
<glyph unicode="&#xc3;" horiz-adv-x="1120" d="M858 1808q0 -35 -9.5 -73t-30.5 -69t-54 -51t-80 -20q-33 0 -62.5 10t-58 22t-56.5 22t-58 10q-28 0 -46.5 -14.5t-21.5 -49.5h-121q0 36 10 73.5t31 68.5t54 51t79 20q33 0 62.5 -9.5t58 -21t57 -21t58.5 -9.5q28 0 46 13t23 48h119zM831 313h-557l-96 -313h-180 l446 1405h232l446 -1405h-194zM324 477h456l-190 625q-6 17 -11.5 43.5t-10.5 51.5q-5 29 -11 60h-8q-6 -32 -11 -61q-5 -25 -11 -51t-11 -43z" />
<glyph unicode="&#xc4;" horiz-adv-x="1120" d="M803 1614h-178v194h178v-194zM496 1614h-179v194h179v-194zM831 313h-557l-96 -313h-180l446 1405h232l446 -1405h-194zM324 477h456l-190 625q-6 17 -11.5 43.5t-10.5 51.5q-5 29 -11 60h-8q-6 -32 -11 -61q-5 -25 -11 -51t-11 -43z" />
<glyph unicode="&#xc5;" horiz-adv-x="1120" d="M559 1874q42 0 78.5 -15.5t62.5 -42.5t41 -63t15 -76q0 -41 -15 -76.5t-41.5 -62t-62.5 -42t-78 -15.5q-40 0 -75.5 15t-62.5 41.5t-43 62.5t-16 77t15.5 77t42.5 62.5t62.5 42t76.5 15.5zM559 1782q-21 0 -39.5 -8.5t-33 -22.5t-23 -33t-8.5 -41q0 -21 8.5 -40t23 -33.5 t33 -22.5t39.5 -8t40 8t33.5 22.5t23 33.5t8.5 40q0 22 -8.5 41t-23 33t-33.5 22.5t-40 8.5zM831 313h-557l-96 -313h-180l446 1405h232l446 -1405h-194zM324 477h456l-190 625q-6 17 -11.5 43.5t-10.5 51.5q-5 29 -11 60h-8q-6 -32 -11 -61q-5 -25 -11 -51t-11 -43z" />
<glyph unicode="&#xc6;" horiz-adv-x="1679" d="M928 0l-70 313h-559l-121 -313h-180l573 1405h1020v-164h-751l100 -440h561v-164h-524l106 -473h521v-164h-676zM362 477h461l-139 635q-5 17 -9 39t-7 42q-4 23 -6 46h-9q-7 -24 -15 -47q-7 -20 -14.5 -41.5t-13.5 -38.5z" />
<glyph unicode="&#xc7;" horiz-adv-x="1212" d="M639 1430q107 0 197 -33t155 -99t101.5 -166t36.5 -235h-185q0 92 -21.5 161t-61.5 114.5t-96.5 68.5t-125.5 23q-185 0 -274.5 -126.5t-89.5 -383.5v-103q0 -258 89.5 -384t274.5 -126q71 0 128.5 22.5t98 67.5t62.5 113t22 159h179q0 -136 -36.5 -235t-101.5 -164 t-154.5 -96.5t-196.5 -31.5l-7 -50q33 -2 63 -10t53 -23.5t36.5 -39.5t13.5 -59q0 -52 -21.5 -84.5t-54 -51t-69.5 -25t-68 -6.5q-44 0 -89.5 4.5t-82.5 12.5v100h156q34 0 53.5 10t19.5 40q0 24 -14.5 36t-54.5 12h-68l22 142q-219 34 -330.5 213t-111.5 506q0 365 140 546 t413 181z" />
<glyph unicode="&#xc8;" horiz-adv-x="1120" d="M541 1538l-222 264l3 6h184l176 -270h-141zM143 0v1405h867v-164h-686v-440h596v-164h-596v-473h698v-164h-879z" />
<glyph unicode="&#xc9;" horiz-adv-x="1120" d="M580 1538h-142l176 270h185l2 -6zM143 0v1405h867v-164h-686v-440h596v-164h-596v-473h698v-164h-879z" />
<glyph unicode="&#xca;" horiz-adv-x="1120" d="M815 1530h-164l-90 162l-92 -162h-164l176 276h160zM143 0v1405h867v-164h-686v-440h596v-164h-596v-473h698v-164h-879z" />
<glyph unicode="&#xcb;" horiz-adv-x="1120" d="M803 1614h-178v194h178v-194zM496 1614h-179v194h179v-194zM143 0v1405h867v-164h-686v-440h596v-164h-596v-473h698v-164h-879z" />
<glyph unicode="&#xcc;" horiz-adv-x="467" d="M143 0v1405h180v-1405h-180zM215 1538l-222 264l2 7h185l176 -271h-141z" />
<glyph unicode="&#xcd;" horiz-adv-x="467" d="M143 0v1405h180v-1405h-180zM254 1538h-142l176 271h184l2 -7z" />
<glyph unicode="&#xce;" horiz-adv-x="467" d="M323 0h-180v1405h180v-1405zM490 1530h-164l-90 162l-93 -162h-165l177 277h160z" />
<glyph unicode="&#xcf;" horiz-adv-x="467" d="M323 0h-180v1405h180v-1405zM477 1614h-179v195h179v-195zM169 1614h-178v195h178v-195z" />
<glyph unicode="&#xd0;" horiz-adv-x="1212" d="M10 793h133v612h437q124 0 222.5 -43t167.5 -128.5t105.5 -213t36.5 -297.5q0 -180 -36.5 -315.5t-105.5 -226t-167.5 -136t-222.5 -45.5h-437v662h-133v131zM324 1241v-448h321v-131h-321v-498h239q83 0 149.5 31.5t113.5 94.5t72.5 158.5t25.5 223.5v102 q0 117 -25.5 205t-72.5 146t-113.5 87t-149.5 29h-239z" />
<glyph unicode="&#xd1;" horiz-adv-x="1212" d="M1069 0h-150l-525 895q-14 23 -29.5 54.5t-29.5 61.5q-16 34 -32 72l-6 -2q2 -37 4 -71q2 -29 3 -61t1 -54v-895h-162v1405h156l523 -882q11 -20 25.5 -52.5t28.5 -62.5q15 -36 31 -74l6 2q-2 40 -3 76q-2 31 -2.5 62.5t-0.5 48.5v882h162v-1405zM905 1809 q0 -36 -10 -73.5t-31 -68.5t-54 -51t-79 -20q-33 0 -63 10t-58.5 21.5t-56.5 21.5t-58 10q-28 0 -46 -14t-23 -49h-119q0 35 10 73t31 69t54 51t79 20q33 0 62.5 -10t58 -21.5t56.5 -21.5t58 -10q28 0 46.5 14t23.5 49h119z" />
<glyph unicode="&#xd2;" horiz-adv-x="1307" d="M653 1430q129 0 232 -45t174 -136t109 -227t38 -319t-38 -319.5t-109 -227t-174 -135.5t-232 -45t-231.5 45t-173.5 135.5t-109 227t-38 319.5t38 319t109 227t173.5 136t231.5 45zM653 1264q-84 0 -151.5 -31.5t-115 -95.5t-72.5 -159.5t-25 -223.5v-103q0 -128 25 -224 t72.5 -159.5t115 -95t151.5 -31.5q85 0 152.5 31.5t114.5 95t72.5 159.5t25.5 224v103q0 128 -25.5 223.5t-72.5 159.5t-114.5 95.5t-152.5 31.5zM635 1538l-222 264l2 7h185l176 -271h-141z" />
<glyph unicode="&#xd3;" horiz-adv-x="1307" d="M653 1430q129 0 232 -45t174 -136t109 -227t38 -319t-38 -319.5t-109 -227t-174 -135.5t-232 -45t-231.5 45t-173.5 135.5t-109 227t-38 319.5t38 319t109 227t173.5 136t231.5 45zM653 1264q-84 0 -151.5 -31.5t-115 -95.5t-72.5 -159.5t-25 -223.5v-103q0 -128 25 -224 t72.5 -159.5t115 -95t151.5 -31.5q85 0 152.5 31.5t114.5 95t72.5 159.5t25.5 224v103q0 128 -25.5 223.5t-72.5 159.5t-114.5 95.5t-152.5 31.5zM674 1538h-142l176 271h184l2 -7z" />
<glyph unicode="&#xd4;" horiz-adv-x="1307" d="M653 1430q129 0 232 -45t174 -136t109 -227t38 -319t-38 -319.5t-109 -227t-174 -135.5t-232 -45t-231.5 45t-173.5 135.5t-109 227t-38 319.5t38 319t109 227t173.5 136t231.5 45zM653 1264q-84 0 -151.5 -31.5t-115 -95.5t-72.5 -159.5t-25 -223.5v-103q0 -128 25 -224 t72.5 -159.5t115 -95t151.5 -31.5q85 0 152.5 31.5t114.5 95t72.5 159.5t25.5 224v103q0 128 -25.5 223.5t-72.5 159.5t-114.5 95.5t-152.5 31.5zM910 1530h-164l-90 162l-93 -162h-164l176 277h160z" />
<glyph unicode="&#xd5;" horiz-adv-x="1307" d="M653 1430q129 0 232 -45t174 -136t109 -227t38 -319t-38 -319.5t-109 -227t-174 -135.5t-232 -45t-231.5 45t-173.5 135.5t-109 227t-38 319.5t38 319t109 227t173.5 136t231.5 45zM653 1264q-84 0 -151.5 -31.5t-115 -95.5t-72.5 -159.5t-25 -223.5v-103q0 -128 25 -224 t72.5 -159.5t115 -95t151.5 -31.5q85 0 152.5 31.5t114.5 95t72.5 159.5t25.5 224v103q0 128 -25.5 223.5t-72.5 159.5t-114.5 95.5t-152.5 31.5zM953 1809q0 -36 -10 -73.5t-31 -68.5t-54 -51t-79 -20q-33 0 -63 10t-58.5 21.5t-56.5 21.5t-58 10q-28 0 -46 -14t-23 -49 h-119q0 35 10 73t31 69t54 51t79 20q33 0 62.5 -10t58 -21.5t56.5 -21.5t58 -10q28 0 46.5 14t23.5 49h119z" />
<glyph unicode="&#xd6;" horiz-adv-x="1307" d="M653 1430q129 0 232 -45t174 -136t109 -227t38 -319t-38 -319.5t-109 -227t-174 -135.5t-232 -45t-231.5 45t-173.5 135.5t-109 227t-38 319.5t38 319t109 227t173.5 136t231.5 45zM653 1264q-84 0 -151.5 -31.5t-115 -95.5t-72.5 -159.5t-25 -223.5v-103q0 -128 25 -224 t72.5 -159.5t115 -95t151.5 -31.5q85 0 152.5 31.5t114.5 95t72.5 159.5t25.5 224v103q0 128 -25.5 223.5t-72.5 159.5t-114.5 95.5t-152.5 31.5zM897 1614h-179v195h179v-195zM589 1614h-178v195h178v-195z" />
<glyph unicode="&#xd7;" horiz-adv-x="981" d="M820 955q29 -32 56.5 -61t54.5 -60l-313 -311l313 -310q-29 -31 -56.5 -60.5t-54.5 -59.5q-79 76 -158 152.5t-157 154.5l-315 -307q-27 30 -55 59.5t-57 60.5l313 310l-313 311q29 31 57 60t55 61l315 -312z" />
<glyph unicode="&#xd8;" horiz-adv-x="1307" d="M1059 1248q71 -91 109 -227t38 -318q0 -183 -38 -319.5t-109 -227t-174 -135.5t-232 -45q-97 0 -178.5 24.5t-147.5 75.5l-93 -152h-131l145 232q-72 91 -109.5 227t-37.5 320q0 183 38 319t109 227t173.5 136t231.5 45q196 0 326 -103l96 154h131zM422 228 q88 -87 231 -87q85 0 152.5 31.5t114.5 95t72.5 159.5t25.5 224v103q0 102 -16 183t-47 142zM653 1264q-84 0 -151.5 -31.5t-115 -95.5t-72.5 -159.5t-25 -223.5v-103q0 -103 16 -184t47 -144l533 853q-93 88 -232 88z" />
<glyph unicode="&#xd9;" horiz-adv-x="1212" d="M1069 457q0 -119 -31.5 -208.5t-91.5 -150.5t-146 -91.5t-194 -30.5t-194 30.5t-146 91.5t-91.5 150.5t-31.5 208.5v948h180v-959q0 -149 75.5 -227t207.5 -78t207.5 78t75.5 227v959h180v-948zM587 1538l-222 264l2 7h185l176 -271h-141z" />
<glyph unicode="&#xda;" horiz-adv-x="1212" d="M1069 457q0 -119 -31.5 -208.5t-91.5 -150.5t-146 -91.5t-194 -30.5t-194 30.5t-146 91.5t-91.5 150.5t-31.5 208.5v948h180v-959q0 -149 75.5 -227t207.5 -78t207.5 78t75.5 227v959h180v-948zM626 1538h-142l176 271h184l2 -7z" />
<glyph unicode="&#xdb;" horiz-adv-x="1212" d="M1069 457q0 -119 -31.5 -208.5t-91.5 -150.5t-146 -91.5t-194 -30.5t-194 30.5t-146 91.5t-91.5 150.5t-31.5 208.5v948h180v-959q0 -149 75.5 -227t207.5 -78t207.5 78t75.5 227v959h180v-948zM862 1530h-164l-90 162l-93 -162h-164l176 277h160z" />
<glyph unicode="&#xdc;" horiz-adv-x="1212" d="M1069 457q0 -119 -31.5 -208.5t-91.5 -150.5t-146 -91.5t-194 -30.5t-194 30.5t-146 91.5t-91.5 150.5t-31.5 208.5v948h180v-959q0 -149 75.5 -227t207.5 -78t207.5 78t75.5 227v959h180v-948zM849 1614h-179v195h179v-195zM541 1614h-178v195h178v-195z" />
<glyph unicode="&#xdd;" horiz-adv-x="1120" d="M651 0h-180v582l-455 823h199l356 -651h9l349 651h175l-453 -823v-582zM580 1538h-142l176 271h184l2 -7z" />
<glyph unicode="&#xde;" horiz-adv-x="1120" d="M324 1126h321q104 0 182.5 -29.5t131.5 -83.5t79.5 -129.5t26.5 -166.5q0 -93 -29 -169.5t-83.5 -131.5t-132.5 -85t-175 -30h-321v-301h-181v1405h181v-279zM324 963v-498h315q54 0 97.5 18t75 51t48.5 79.5t17 103.5q0 114 -61 180t-177 66h-315z" />
<glyph unicode="&#xdf;" horiz-adv-x="1026" d="M521 1505q82 0 152.5 -26t122 -75.5t80.5 -120t29 -160.5q0 -51 -14 -100t-39.5 -91t-61.5 -74t-79 -49v-9q52 -19 95.5 -56t75 -85t49 -105t17.5 -116q0 -99 -31.5 -180t-87 -138t-130 -88.5t-160.5 -31.5h-154v152h138q53 0 99 22.5t80.5 61.5t54 91.5t19.5 112.5 q0 57 -19.5 107.5t-54 88t-80.5 59.5t-99 22h-138v149h120q47 0 88.5 20t72.5 54.5t49 80t18 96.5q0 54 -14.5 98t-43 75.5t-70 48.5t-96.5 17q-54 0 -98.5 -18.5t-75.5 -55.5t-48 -92.5t-17 -128.5v-1061h-167v1057q0 120 32.5 205t89 139t132.5 79t164 25z" />
<glyph unicode="&#xe0;" d="M457 1102q163 0 244 -79.5t81 -222.5v-604q0 -38 18 -54.5t40 -16.5h65v-117q-14 -8 -42 -16t-69 -8q-66 0 -110 36.5t-60 96.5h-10q-42 -67 -109.5 -104t-152.5 -37q-27 0 -58 4.5t-62.5 16t-61 33t-52 55t-36 81.5t-13.5 113q0 111 41 181.5t114 110t173 54t217 14.5 v139q0 39 -7 71t-26 55t-52 36t-85 13q-48 0 -79.5 -15t-50.5 -39.5t-27 -55t-8 -61.5v-24h-166q-2 9 -2 19v25q0 74 25.5 130.5t71.5 94t109.5 56.5t139.5 19zM614 489q-82 0 -149.5 -7.5t-116 -29.5t-75.5 -61t-27 -102q0 -92 37 -128t108 -36q40 0 79.5 16.5t71.5 49.5 t52 83t20 117v98zM439 1210l-222 264l2 7h185l176 -271h-141z" />
<glyph unicode="&#xe1;" d="M457 1102q163 0 244 -79.5t81 -222.5v-604q0 -38 18 -54.5t40 -16.5h65v-117q-14 -8 -42 -16t-69 -8q-66 0 -110 36.5t-60 96.5h-10q-42 -67 -109.5 -104t-152.5 -37q-27 0 -58 4.5t-62.5 16t-61 33t-52 55t-36 81.5t-13.5 113q0 111 41 181.5t114 110t173 54t217 14.5 v139q0 39 -7 71t-26 55t-52 36t-85 13q-48 0 -79.5 -15t-50.5 -39.5t-27 -55t-8 -61.5v-24h-166q-2 9 -2 19v25q0 74 25.5 130.5t71.5 94t109.5 56.5t139.5 19zM614 489q-82 0 -149.5 -7.5t-116 -29.5t-75.5 -61t-27 -102q0 -92 37 -128t108 -36q40 0 79.5 16.5t71.5 49.5 t52 83t20 117v98zM478 1210h-142l176 271h184l2 -7z" />
<glyph unicode="&#xe2;" d="M457 1102q163 0 244 -79.5t81 -222.5v-604q0 -38 18 -54.5t40 -16.5h65v-117q-14 -8 -42 -16t-69 -8q-66 0 -110 36.5t-60 96.5h-10q-42 -67 -109.5 -104t-152.5 -37q-27 0 -58 4.5t-62.5 16t-61 33t-52 55t-36 81.5t-13.5 113q0 111 41 181.5t114 110t173 54t217 14.5 v139q0 39 -7 71t-26 55t-52 36t-85 13q-48 0 -79.5 -15t-50.5 -39.5t-27 -55t-8 -61.5v-24h-166q-2 9 -2 19v25q0 74 25.5 130.5t71.5 94t109.5 56.5t139.5 19zM614 489q-82 0 -149.5 -7.5t-116 -29.5t-75.5 -61t-27 -102q0 -92 37 -128t108 -36q40 0 79.5 16.5t71.5 49.5 t52 83t20 117v98zM723 1202h-164l-90 162l-93 -162h-164l176 277h160z" />
<glyph unicode="&#xe3;" d="M457 1102q163 0 244 -79.5t81 -222.5v-604q0 -38 18 -54.5t40 -16.5h65v-117q-14 -8 -42 -16t-69 -8q-66 0 -110 36.5t-60 96.5h-10q-42 -67 -109.5 -104t-152.5 -37q-27 0 -58 4.5t-62.5 16t-61 33t-52 55t-36 81.5t-13.5 113q0 111 41 181.5t114 110t173 54t217 14.5 v139q0 39 -7 71t-26 55t-52 36t-85 13q-48 0 -79.5 -15t-50.5 -39.5t-27 -55t-8 -61.5v-24h-166q-2 9 -2 19v25q0 74 25.5 130.5t71.5 94t109.5 56.5t139.5 19zM614 489q-82 0 -149.5 -7.5t-116 -29.5t-75.5 -61t-27 -102q0 -92 37 -128t108 -36q40 0 79.5 16.5t71.5 49.5 t52 83t20 117v98zM766 1481q0 -36 -10 -73.5t-31 -68.5t-54 -51t-79 -20q-33 0 -63 10t-58.5 21.5t-56.5 21.5t-58 10q-28 0 -46 -14t-23 -49h-119q0 35 10 73t31 69t54 51t79 20q33 0 62.5 -10t58 -21.5t56.5 -21.5t58 -10q28 0 46.5 14t23.5 49h119z" />
<glyph unicode="&#xe4;" d="M457 1102q163 0 244 -79.5t81 -222.5v-604q0 -38 18 -54.5t40 -16.5h65v-117q-14 -8 -42 -16t-69 -8q-66 0 -110 36.5t-60 96.5h-10q-42 -67 -109.5 -104t-152.5 -37q-27 0 -58 4.5t-62.5 16t-61 33t-52 55t-36 81.5t-13.5 113q0 111 41 181.5t114 110t173 54t217 14.5 v139q0 39 -7 71t-26 55t-52 36t-85 13q-48 0 -79.5 -15t-50.5 -39.5t-27 -55t-8 -61.5v-24h-166q-2 9 -2 19v25q0 74 25.5 130.5t71.5 94t109.5 56.5t139.5 19zM614 489q-82 0 -149.5 -7.5t-116 -29.5t-75.5 -61t-27 -102q0 -92 37 -128t108 -36q40 0 79.5 16.5t71.5 49.5 t52 83t20 117v98zM710 1286h-179v195h179v-195zM402 1286h-178v195h178v-195z" />
<glyph unicode="&#xe5;" d="M457 1102q163 0 244 -79.5t81 -222.5v-604q0 -38 18 -54.5t40 -16.5h65v-117q-14 -8 -42 -16t-69 -8q-66 0 -110 36.5t-60 96.5h-10q-42 -67 -109.5 -104t-152.5 -37q-27 0 -58 4.5t-62.5 16t-61 33t-52 55t-36 81.5t-13.5 113q0 111 41 181.5t114 110t173 54t217 14.5 v139q0 39 -7 71t-26 55t-52 36t-85 13q-48 0 -79.5 -15t-50.5 -39.5t-27 -55t-8 -61.5v-24h-166q-2 9 -2 19v25q0 74 25.5 130.5t71.5 94t109.5 56.5t139.5 19zM467 1545q42 0 77.5 -15.5t62 -42.5t41.5 -62.5t15 -75.5q0 -41 -15.5 -77t-42 -62.5t-62 -42t-76.5 -15.5 q-40 0 -76 15t-63 41.5t-42.5 62.5t-15.5 78q0 41 15.5 76.5t42 62t62.5 42t77 15.5zM614 489q-82 0 -149.5 -7.5t-116 -29.5t-75.5 -61t-27 -102q0 -92 37 -128t108 -36q40 0 79.5 16.5t71.5 49.5t52 83t20 117v98zM467 1453q-21 0 -40.5 -8t-33.5 -22.5t-22.5 -33.5 t-8.5 -40t8.5 -40.5t22.5 -33.5t33.5 -22.5t40.5 -8.5t39.5 8.5t33 22.5t23 33.5t8.5 40.5t-8.5 40t-23 33.5t-33 22.5t-39.5 8z" />
<glyph unicode="&#xe6;" horiz-adv-x="1493" d="M1032 1102q88 0 154.5 -28.5t111 -89.5t66.5 -157t22 -231v-107h-584q2 -189 59 -276.5t177 -87.5q40 0 73.5 16.5t57.5 48t37.5 76.5t13.5 101h166q0 -91 -25.5 -163.5t-72 -123t-111.5 -77.5t-143 -27q-112 0 -194 38t-133 125q-58 -75 -137.5 -119t-173.5 -44 q-50 0 -105.5 10.5t-102 43t-76.5 92t-30 157.5q0 111 41 181.5t113.5 110t172.5 54t217 14.5v139q0 39 -7 71t-26 55t-52 36t-84 13q-48 0 -80 -15t-51 -39.5t-27 -55t-8 -61.5v-24h-166q-2 9 -2 19v25q0 74 25.5 130.5t71.5 94t109.5 56.5t139.5 19q99 0 168.5 -31.5 t107.5 -91.5q52 63 122.5 93t164.5 30zM626 489q-82 0 -149.5 -7.5t-116 -29.5t-75.5 -61t-27 -102q0 -92 37.5 -128t108.5 -36q39 0 79 15.5t71.5 46.5t51.5 78t20 110v114zM1032 953q-56 0 -96.5 -20t-67.5 -59.5t-42 -98t-21 -136.5h405q0 155 -45 234.5t-133 79.5z" />
<glyph unicode="&#xe7;" horiz-adv-x="840" d="M442 1102q88 0 150.5 -27.5t102.5 -81.5t58.5 -133t18.5 -182h-174q0 70 -7.5 121.5t-25.5 85.5t-48 51t-75 17q-100 0 -146 -94t-46 -281v-79q0 -186 45 -280t147 -94q45 0 76.5 18t51 53t28 86t8.5 118h166q0 -83 -17.5 -158.5t-55.5 -133.5t-98.5 -93t-146.5 -38 l-7 -51q33 -2 63 -10t53 -23.5t36.5 -39.5t13.5 -59q0 -52 -21.5 -84.5t-54 -51t-69.5 -25t-68 -6.5q-44 0 -89.5 4.5t-82.5 12.5v100h156q34 0 53.5 10t19.5 40q0 24 -14.5 36t-54.5 12h-68l22 145q-138 32 -203 167.5t-65 384.5q0 289 89.5 426t278.5 137z" />
<glyph unicode="&#xe8;" d="M491 1102q88 0 155 -28.5t111 -89.5t66.5 -157t22.5 -231v-107h-584q1 -188 58.5 -276t176.5 -88q40 0 73.5 16.5t58 48t38 76.5t13.5 101h166q0 -91 -25.5 -163.5t-72 -123t-111.5 -77.5t-144 -27q-100 0 -176 31.5t-127.5 100t-77.5 175t-26 256.5q0 289 101.5 426 t303.5 137zM491 953q-56 0 -96.5 -20t-67.5 -59.5t-42 -98t-21 -136.5h406q0 155 -45.5 234.5t-133.5 79.5zM472 1210l-222 264l2 7h185l176 -271h-141z" />
<glyph unicode="&#xe9;" d="M491 1102q88 0 155 -28.5t111 -89.5t66.5 -157t22.5 -231v-107h-584q1 -188 58.5 -276t176.5 -88q40 0 73.5 16.5t58 48t38 76.5t13.5 101h166q0 -91 -25.5 -163.5t-72 -123t-111.5 -77.5t-144 -27q-100 0 -176 31.5t-127.5 100t-77.5 175t-26 256.5q0 289 101.5 426 t303.5 137zM491 953q-56 0 -96.5 -20t-67.5 -59.5t-42 -98t-21 -136.5h406q0 155 -45.5 234.5t-133.5 79.5zM511 1210h-142l176 271h184l2 -7z" />
<glyph unicode="&#xea;" d="M491 1102q88 0 155 -28.5t111 -89.5t66.5 -157t22.5 -231v-107h-584q1 -188 58.5 -276t176.5 -88q40 0 73.5 16.5t58 48t38 76.5t13.5 101h166q0 -91 -25.5 -163.5t-72 -123t-111.5 -77.5t-144 -27q-100 0 -176 31.5t-127.5 100t-77.5 175t-26 256.5q0 289 101.5 426 t303.5 137zM491 953q-56 0 -96.5 -20t-67.5 -59.5t-42 -98t-21 -136.5h406q0 155 -45.5 234.5t-133.5 79.5zM723 1202h-164l-90 162l-93 -162h-164l176 277h160z" />
<glyph unicode="&#xeb;" d="M491 1102q88 0 155 -28.5t111 -89.5t66.5 -157t22.5 -231v-107h-584q1 -188 58.5 -276t176.5 -88q40 0 73.5 16.5t58 48t38 76.5t13.5 101h166q0 -91 -25.5 -163.5t-72 -123t-111.5 -77.5t-144 -27q-100 0 -176 31.5t-127.5 100t-77.5 175t-26 256.5q0 289 101.5 426 t303.5 137zM491 953q-56 0 -96.5 -20t-67.5 -59.5t-42 -98t-21 -136.5h406q0 155 -45.5 234.5t-133.5 79.5zM710 1286h-179v195h179v-195zM402 1286h-178v195h178v-195z" />
<glyph unicode="&#xec;" horiz-adv-x="467" d="M149 0v1077h168v-1077h-168zM215 1210l-222 264l2 7h185l176 -271h-141z" />
<glyph unicode="&#xed;" horiz-adv-x="467" d="M149 0v1077h168v-1077h-168zM254 1210h-142l176 271h184l2 -7z" />
<glyph unicode="&#xee;" horiz-adv-x="467" d="M317 0h-168v1077h168v-1077zM490 1202h-164l-90 162l-93 -162h-165l177 277h160z" />
<glyph unicode="&#xef;" horiz-adv-x="467" d="M317 0h-168v1077h168v-1077zM477 1286h-179v195h179v-195zM169 1286h-178v195h178v-195z" />
<glyph unicode="&#xf0;" d="M424 1481q23 -25 46.5 -50t46.5 -51l239 23v-123l-146 -14q55 -75 99.5 -156t76 -171t49 -189.5t17.5 -210.5q0 -290 -98 -426.5t-287 -136.5t-287 136.5t-98 426.5q0 149 27 255.5t75 175t114.5 100.5t145.5 32q28 0 54 -7t49 -18q-24 45 -53.5 87t-61.5 86l-242 -22 v123l146 13q-23 26 -46.5 53.5t-49.5 54.5l4 9h180zM467 953q-106 0 -157.5 -94t-51.5 -281v-79q0 -186 51.5 -280t157.5 -94q105 0 157 94t52 280v79q0 187 -53 281t-156 94z" />
<glyph unicode="&#xf1;" d="M545 1102q61 0 110 -17t83.5 -56t53.5 -101t19 -152v-776h-168v764q0 56 -11 92.5t-31 58t-48 30t-62 8.5q-40 0 -76 -20t-63.5 -58t-44 -93t-16.5 -125v-657h-168v1077h127l23 -124h12q45 80 112 114.5t148 34.5zM766 1481q0 -36 -10 -73.5t-31 -68.5t-54 -51t-79 -20 q-33 0 -63 10t-58.5 21.5t-56.5 21.5t-58 10q-28 0 -46 -14t-23 -49h-119q0 35 10 73t31 69t54 51t79 20q33 0 62.5 -10t58 -21.5t56.5 -21.5t58 -10q28 0 46.5 14t23.5 49h119z" />
<glyph unicode="&#xf2;" d="M467 1102q189 0 287 -137t98 -426q0 -290 -98 -426.5t-287 -136.5t-287 136.5t-98 426.5q0 289 98 426t287 137zM467 953q-106 0 -157.5 -94t-51.5 -281v-79q0 -186 51.5 -280t157.5 -94q105 0 157 94t52 280v79q0 187 -52 281t-157 94zM448 1210l-222 264l2 7h185 l176 -271h-141z" />
<glyph unicode="&#xf3;" d="M467 1102q189 0 287 -137t98 -426q0 -290 -98 -426.5t-287 -136.5t-287 136.5t-98 426.5q0 289 98 426t287 137zM467 953q-106 0 -157.5 -94t-51.5 -281v-79q0 -186 51.5 -280t157.5 -94q105 0 157 94t52 280v79q0 187 -52 281t-157 94zM487 1210h-142l176 271h184l2 -7z " />
<glyph unicode="&#xf4;" d="M467 1102q189 0 287 -137t98 -426q0 -290 -98 -426.5t-287 -136.5t-287 136.5t-98 426.5q0 289 98 426t287 137zM467 953q-106 0 -157.5 -94t-51.5 -281v-79q0 -186 51.5 -280t157.5 -94q105 0 157 94t52 280v79q0 187 -52 281t-157 94zM723 1202h-164l-90 162l-93 -162 h-164l176 277h160z" />
<glyph unicode="&#xf5;" d="M467 1102q189 0 287 -137t98 -426q0 -290 -98 -426.5t-287 -136.5t-287 136.5t-98 426.5q0 289 98 426t287 137zM467 953q-106 0 -157.5 -94t-51.5 -281v-79q0 -186 51.5 -280t157.5 -94q105 0 157 94t52 280v79q0 187 -52 281t-157 94zM766 1481q0 -36 -10 -73.5 t-31 -68.5t-54 -51t-79 -20q-33 0 -63 10t-58.5 21.5t-56.5 21.5t-58 10q-28 0 -46 -14t-23 -49h-119q0 35 10 73t31 69t54 51t79 20q33 0 62.5 -10t58 -21.5t56.5 -21.5t58 -10q28 0 46.5 14t23.5 49h119z" />
<glyph unicode="&#xf6;" d="M467 1102q189 0 287 -137t98 -426q0 -290 -98 -426.5t-287 -136.5t-287 136.5t-98 426.5q0 289 98 426t287 137zM467 953q-106 0 -157.5 -94t-51.5 -281v-79q0 -186 51.5 -280t157.5 -94q105 0 157 94t52 280v79q0 187 -52 281t-157 94zM710 1286h-179v195h179v-195z M402 1286h-178v195h178v-195z" />
<glyph unicode="&#xf7;" horiz-adv-x="1124" d="M1034 436h-946v172h946v-172zM647 105h-172v184h172v-184zM647 756h-172v186h172v-186z" />
<glyph unicode="&#xf8;" horiz-adv-x="1026" d="M798 965q99 -140 99 -426q0 -290 -98 -426.5t-288 -136.5q-64 0 -118.5 15.5t-97.5 47.5l-55 -104h-113l97 178q-48 69 -72.5 174t-24.5 252q0 289 98 426t286 137q131 0 216 -64l57 105h113zM377 186q49 -61 134 -61q106 0 158 94t52 280v79q0 60 -5.5 110t-16.5 90z M511 953q-104 0 -156 -94t-52 -281v-79q0 -60 4.5 -110t15.5 -92l324 594q-54 62 -136 62z" />
<glyph unicode="&#xf9;" d="M684 0l-22 125h-13q-45 -81 -112.5 -115t-147.5 -34q-60 0 -109.5 17t-84 55.5t-53.5 100.5t-19 152v776h168v-764q0 -56 11 -92.5t31 -57.5t47.5 -29.5t61.5 -8.5q40 0 76.5 20t64 58t44 92.5t16.5 124.5v657h168v-1077h-127zM448 1210l-222 264l2 7h185l176 -271h-141z " />
<glyph unicode="&#xfa;" d="M684 0l-22 125h-13q-45 -81 -112.5 -115t-147.5 -34q-60 0 -109.5 17t-84 55.5t-53.5 100.5t-19 152v776h168v-764q0 -56 11 -92.5t31 -57.5t47.5 -29.5t61.5 -8.5q40 0 76.5 20t64 58t44 92.5t16.5 124.5v657h168v-1077h-127zM487 1210h-142l176 271h184l2 -7z" />
<glyph unicode="&#xfb;" d="M811 0h-127l-22 125h-13q-45 -81 -112.5 -115t-147.5 -34q-60 0 -109.5 17t-84 55.5t-53.5 100.5t-19 152v776h168v-764q0 -56 11 -92.5t31 -57.5t47.5 -29.5t61.5 -8.5q40 0 76.5 20t64 58t44 92.5t16.5 124.5v657h168v-1077zM723 1202h-164l-90 162l-93 -162h-164 l176 277h160z" />
<glyph unicode="&#xfc;" d="M811 0h-127l-22 125h-13q-45 -81 -112.5 -115t-147.5 -34q-60 0 -109.5 17t-84 55.5t-53.5 100.5t-19 152v776h168v-764q0 -56 11 -92.5t31 -57.5t47.5 -29.5t61.5 -8.5q40 0 76.5 20t64 58t44 92.5t16.5 124.5v657h168v-1077zM710 1286h-179v195h179v-195zM402 1286 h-178v195h178v-195z" />
<glyph unicode="&#xfd;" horiz-adv-x="840" d="M547 55q-24 -88 -55 -166t-72.5 -136t-96 -92t-125.5 -34q-35 0 -64.5 3.5t-55.5 13.5v116h59q34 0 66 11.5t60 39.5t50 74t37 115l-330 1077h184l238 -835h8l201 835h171zM440 1210h-142l176 271h184l2 -7z" />
<glyph unicode="&#xfe;" d="M291 983l8 -2q32 56 90 88.5t130 32.5q76 0 138 -33t105 -102t66.5 -175.5t23.5 -254.5q0 -147 -25 -253t-68.5 -174.5t-102 -101t-125.5 -32.5q-79 0 -140.5 31t-89.5 88h-10v-449h-168v1835h168v-498zM483 953q-97 0 -144.5 -94t-47.5 -281v-79q0 -186 47.5 -280 t144.5 -94q48 0 84.5 21t60.5 66t36 116t12 171v79q0 100 -12 171.5t-36 116.5t-60.5 66t-84.5 21z" />
<glyph unicode="&#xff;" horiz-adv-x="840" d="M547 55q-24 -88 -55 -166t-72.5 -136t-96 -92t-125.5 -34q-35 0 -64.5 3.5t-55.5 13.5v116h59q34 0 66 11.5t60 39.5t50 74t37 115l-330 1077h184l238 -835h8l201 835h171zM663 1286h-179v195h179v-195zM355 1286h-178v195h178v-195z" />
<glyph unicode="&#x100;" horiz-adv-x="1120" d="M817 1554h-514v148h514v-148zM831 313h-557l-96 -313h-180l446 1405h232l446 -1405h-194zM324 477h456l-190 625q-6 17 -11.5 43.5t-10.5 51.5q-5 29 -11 60h-8q-6 -32 -11 -61q-5 -25 -11 -51t-11 -43z" />
<glyph unicode="&#x101;" d="M457 1102q163 0 244 -79.5t81 -222.5v-604q0 -38 18 -54.5t40 -16.5h65v-117q-14 -8 -42 -16t-69 -8q-66 0 -110 36.5t-60 96.5h-10q-42 -67 -109.5 -104t-152.5 -37q-27 0 -58 4.5t-62.5 16t-61 33t-52 55t-36 81.5t-13.5 113q0 111 41 181.5t114 110t173 54t217 14.5 v139q0 39 -7 71t-26 55t-52 36t-85 13q-48 0 -79.5 -15t-50.5 -39.5t-27 -55t-8 -61.5v-24h-166q-2 9 -2 19v25q0 74 25.5 130.5t71.5 94t109.5 56.5t139.5 19zM614 489q-82 0 -149.5 -7.5t-116 -29.5t-75.5 -61t-27 -102q0 -92 37 -128t108 -36q40 0 79.5 16.5t71.5 49.5 t52 83t20 117v98zM724 1226h-513v148h513v-148z" />
<glyph unicode="&#x102;" horiz-adv-x="1120" d="M813 1808q0 -35 -17.5 -70t-50.5 -63.5t-80 -46.5t-106 -18t-105.5 18t-79 46.5t-50 63.5t-17.5 70h131q2 -11 12 -22.5t25.5 -21.5t37 -16.5t46.5 -6.5q26 0 48.5 6.5t38.5 16.5t25.5 21.5t10.5 22.5h131zM831 313h-557l-96 -313h-180l446 1405h232l446 -1405h-194z M324 477h456l-190 625q-6 17 -11.5 43.5t-10.5 51.5q-5 29 -11 60h-8q-6 -32 -11 -61q-5 -25 -11 -51t-11 -43z" />
<glyph unicode="&#x103;" d="M457 1102q163 0 244 -79.5t81 -222.5v-604q0 -38 18 -54.5t40 -16.5h65v-117q-14 -8 -42 -16t-69 -8q-66 0 -110 36.5t-60 96.5h-10q-42 -67 -109.5 -104t-152.5 -37q-27 0 -58 4.5t-62.5 16t-61 33t-52 55t-36 81.5t-13.5 113q0 111 41 181.5t114 110t173 54t217 14.5 v139q0 39 -7 71t-26 55t-52 36t-85 13q-48 0 -79.5 -15t-50.5 -39.5t-27 -55t-8 -61.5v-24h-166q-2 9 -2 19v25q0 74 25.5 130.5t71.5 94t109.5 56.5t139.5 19zM614 489q-82 0 -149.5 -7.5t-116 -29.5t-75.5 -61t-27 -102q0 -92 37 -128t108 -36q40 0 79.5 16.5t71.5 49.5 t52 83t20 117v98zM721 1481q0 -35 -17.5 -70.5t-50.5 -64t-80 -46.5t-106 -18t-105.5 18t-79.5 46.5t-50.5 64t-17.5 70.5h132q2 -11 11.5 -23t25.5 -22t37 -16.5t47 -6.5t48 6.5t38 16.5t25.5 22t11.5 23h131z" />
<glyph unicode="&#x104;" horiz-adv-x="1120" d="M1122 0h-61q-17 -23 -33 -56.5t-16 -70.5q0 -21 5 -41.5t16 -36.5t29 -25.5t44 -9.5h63v-104q-32 -14 -63 -21.5t-62 -7.5q-33 0 -67 9t-62 30.5t-45.5 57t-17.5 88.5q0 65 22 109t54 79l-97 313h-557l-96 -313h-180l446 1405h232zM549 1257q-6 -32 -11 -61 q-5 -25 -11 -51t-11 -43l-192 -625h456l-190 625q-6 17 -11.5 43.5t-10.5 51.5q-5 29 -11 60h-8z" />
<glyph unicode="&#x105;" d="M457 1102q163 0 244 -79.5t81 -222.5v-604q0 -38 18 -54.5t40 -16.5h65v-117q-3 -2 -7 -4t-9 -4q-17 -23 -33 -56.5t-16 -70.5q0 -21 5 -41.5t16 -36.5t28.5 -25.5t43.5 -9.5h65v-104q-32 -14 -63 -21.5t-62 -7.5q-33 0 -67.5 9t-62 30.5t-45.5 57t-18 88.5q0 60 19 102 t48 76q-47 11 -78.5 44.5t-44.5 82.5h-10q-42 -67 -109.5 -104t-152.5 -37q-27 0 -58 4.5t-62.5 16t-61 33t-52 55t-36 81.5t-13.5 113q0 111 41 181.5t114 110t173 54t217 14.5v139q0 39 -7 71t-26 55t-52 36t-85 13q-48 0 -79.5 -15t-50.5 -39.5t-27 -55t-8 -61.5v-24 h-166q-2 9 -2 19v25q0 74 25.5 130.5t71.5 94t109.5 56.5t139.5 19zM614 489q-82 0 -149.5 -7.5t-116 -29.5t-75.5 -61t-27 -102q0 -92 37 -128t108 -36q40 0 79.5 16.5t71.5 49.5t52 83t20 117v98z" />
<glyph unicode="&#x106;" horiz-adv-x="1212" d="M639 1430q107 0 197 -33t155 -99t101.5 -166t36.5 -235h-185q0 92 -21.5 161t-61.5 114.5t-96.5 68.5t-125.5 23q-185 0 -274.5 -126.5t-89.5 -383.5v-103q0 -258 89.5 -384t274.5 -126q71 0 128.5 22.5t98 67.5t62.5 113t22 159h179q0 -136 -36.5 -235t-101.5 -164 t-155 -96.5t-197 -31.5q-273 0 -413 180.5t-140 546.5q0 365 140 546t413 181zM656 1538h-142l176 271h184l2 -7z" />
<glyph unicode="&#x107;" horiz-adv-x="840" d="M442 1102q88 0 150.5 -27.5t102.5 -81.5t58.5 -133t18.5 -182h-174q0 70 -7.5 121.5t-25.5 85.5t-48 51t-75 17q-100 0 -146 -94t-46 -281v-79q0 -186 45 -280t147 -94q45 0 76.5 18t51 53t28 86t8.5 118h166q0 -85 -18 -161.5t-57.5 -135t-102.5 -93t-152 -34.5 q-95 0 -164.5 33.5t-114.5 103t-67 175.5t-22 251q0 289 89.5 426t278.5 137zM460 1210h-142l176 271h184l2 -7z" />
<glyph unicode="&#x108;" horiz-adv-x="1212" d="M639 1430q107 0 197 -33t155 -99t101.5 -166t36.5 -235h-185q0 92 -21.5 161t-61.5 114.5t-96.5 68.5t-125.5 23q-185 0 -274.5 -126.5t-89.5 -383.5v-103q0 -258 89.5 -384t274.5 -126q71 0 128.5 22.5t98 67.5t62.5 113t22 159h179q0 -136 -36.5 -235t-101.5 -164 t-155 -96.5t-197 -31.5q-273 0 -413 180.5t-140 546.5q0 365 140 546t413 181zM862 1530h-164l-90 162l-93 -162h-164l176 277h160z" />
<glyph unicode="&#x109;" horiz-adv-x="840" d="M442 1102q88 0 150.5 -27.5t102.5 -81.5t58.5 -133t18.5 -182h-174q0 70 -7.5 121.5t-25.5 85.5t-48 51t-75 17q-100 0 -146 -94t-46 -281v-79q0 -186 45 -280t147 -94q45 0 76.5 18t51 53t28 86t8.5 118h166q0 -85 -18 -161.5t-57.5 -135t-102.5 -93t-152 -34.5 q-95 0 -164.5 33.5t-114.5 103t-67 175.5t-22 251q0 289 89.5 426t278.5 137zM676 1202h-164l-90 162l-93 -162h-164l176 277h160z" />
<glyph unicode="&#x10a;" horiz-adv-x="1212" d="M639 1430q107 0 197 -33t155 -99t101.5 -166t36.5 -235h-185q0 92 -21.5 161t-61.5 114.5t-96.5 68.5t-125.5 23q-185 0 -274.5 -126.5t-89.5 -383.5v-103q0 -258 89.5 -384t274.5 -126q71 0 128.5 22.5t98 67.5t62.5 113t22 159h179q0 -136 -36.5 -235t-101.5 -164 t-155 -96.5t-197 -31.5q-273 0 -413 180.5t-140 546.5q0 365 140 546t413 181zM696 1614h-179v195h179v-195z" />
<glyph unicode="&#x10b;" horiz-adv-x="840" d="M442 1102q88 0 150.5 -27.5t102.5 -81.5t58.5 -133t18.5 -182h-174q0 70 -7.5 121.5t-25.5 85.5t-48 51t-75 17q-100 0 -146 -94t-46 -281v-79q0 -186 45 -280t147 -94q45 0 76.5 18t51 53t28 86t8.5 118h166q0 -85 -18 -161.5t-57.5 -135t-102.5 -93t-152 -34.5 q-95 0 -164.5 33.5t-114.5 103t-67 175.5t-22 251q0 289 89.5 426t278.5 137zM510 1286h-179v195h179v-195z" />
<glyph unicode="&#x10c;" horiz-adv-x="1212" d="M639 1430q107 0 197 -33t155 -99t101.5 -166t36.5 -235h-185q0 92 -21.5 161t-61.5 114.5t-96.5 68.5t-125.5 23q-185 0 -274.5 -126.5t-89.5 -383.5v-103q0 -258 89.5 -384t274.5 -126q71 0 128.5 22.5t98 67.5t62.5 113t22 159h179q0 -136 -36.5 -235t-101.5 -164 t-155 -96.5t-197 -31.5q-273 0 -413 180.5t-140 546.5q0 365 140 546t413 181zM685 1532h-160l-174 277h164l91 -162l92 162h164z" />
<glyph unicode="&#x10d;" horiz-adv-x="840" d="M442 1102q88 0 150.5 -27.5t102.5 -81.5t58.5 -133t18.5 -182h-174q0 70 -7.5 121.5t-25.5 85.5t-48 51t-75 17q-100 0 -146 -94t-46 -281v-79q0 -186 45 -280t147 -94q45 0 76.5 18t51 53t28 86t8.5 118h166q0 -85 -18 -161.5t-57.5 -135t-102.5 -93t-152 -34.5 q-95 0 -164.5 33.5t-114.5 103t-67 175.5t-22 251q0 289 89.5 426t278.5 137zM499 1204h-160l-174 277h164l91 -162l92 162h164z" />
<glyph unicode="&#x10e;" horiz-adv-x="1212" d="M684 1532h-160l-174 276h164l92 -161l92 161h164zM143 0v1405h437q124 0 222.5 -43t167.5 -128.5t105.5 -213t36.5 -297.5q0 -180 -36.5 -315.5t-105.5 -226t-167.5 -136t-222.5 -45.5h-437zM324 1241v-1077h239q83 0 149.5 31.5t113.5 94.5t72.5 158.5t25.5 223.5v102 q0 117 -25.5 205t-72.5 146t-113.5 87t-149.5 29h-239z" />
<glyph unicode="&#x10f;" horiz-adv-x="1032" d="M811 0h-127l-22 125h-11q-38 -75 -99 -112t-136 -37q-77 0 -139 32.5t-105.5 101.5t-66.5 175.5t-23 255.5q0 146 25.5 252t69 174.5t102 101.5t125.5 33q78 0 139.5 -33.5t89.5 -93.5h10v506h168v-1481zM450 953q-48 0 -84 -21t-60 -66t-36 -116.5t-12 -171.5v-79 q0 -100 12 -171t36 -116t60 -66t84 -21q98 0 145.5 94t47.5 280v70q0 384 -193 384zM1097 1202l-99 -273h-106l82 255h-82v221h205v-203z" />
<glyph unicode="&#x110;" horiz-adv-x="1212" d="M10 793h133v612h437q124 0 222.5 -43t167.5 -128.5t105.5 -213t36.5 -297.5q0 -180 -36.5 -315.5t-105.5 -226t-167.5 -136t-222.5 -45.5h-437v662h-133v131zM324 1241v-448h321v-131h-321v-498h239q83 0 149.5 31.5t113.5 94.5t72.5 158.5t25.5 223.5v102 q0 117 -25.5 205t-72.5 146t-113.5 87t-149.5 29h-239z" />
<glyph unicode="&#x111;" horiz-adv-x="928" d="M811 1333h118v-138h-118v-1195h-127l-22 125h-11q-38 -75 -99 -112t-136 -37q-77 0 -139 32.5t-105.5 101.5t-66.5 175.5t-23 255.5q0 146 25.5 252t69 174.5t102 101.5t125.5 33q78 0 139.5 -33.5t89.5 -93.5h10v220h-227v138h227v148h168v-148zM450 953q-48 0 -84 -21 t-60 -66t-36 -116.5t-12 -171.5v-79q0 -100 12 -171t36 -116t60 -66t84 -21q98 0 145.5 94t47.5 280v70q0 384 -193 384z" />
<glyph unicode="&#x112;" horiz-adv-x="1120" d="M817 1554h-514v148h514v-148zM143 0v1405h867v-164h-686v-440h596v-164h-596v-473h698v-164h-879z" />
<glyph unicode="&#x113;" d="M491 1102q88 0 155 -28.5t111 -89.5t66.5 -157t22.5 -231v-107h-584q1 -188 58.5 -276t176.5 -88q40 0 73.5 16.5t58 48t38 76.5t13.5 101h166q0 -91 -25.5 -163.5t-72 -123t-111.5 -77.5t-144 -27q-100 0 -176 31.5t-127.5 100t-77.5 175t-26 256.5q0 289 101.5 426 t303.5 137zM491 953q-56 0 -96.5 -20t-67.5 -59.5t-42 -98t-21 -136.5h406q0 155 -45.5 234.5t-133.5 79.5zM724 1226h-513v148h513v-148z" />
<glyph unicode="&#x114;" horiz-adv-x="1120" d="M813 1808q0 -35 -17.5 -70t-50.5 -63.5t-80 -46.5t-106 -18t-105.5 18t-79 46.5t-50 63.5t-17.5 70h131q2 -11 12 -22.5t25.5 -21.5t37 -16.5t46.5 -6.5q26 0 48.5 6.5t38.5 16.5t25.5 21.5t10.5 22.5h131zM143 0v1405h867v-164h-686v-440h596v-164h-596v-473h698v-164 h-879z" />
<glyph unicode="&#x115;" d="M491 1102q88 0 155 -28.5t111 -89.5t66.5 -157t22.5 -231v-107h-584q1 -188 58.5 -276t176.5 -88q40 0 73.5 16.5t58 48t38 76.5t13.5 101h166q0 -91 -25.5 -163.5t-72 -123t-111.5 -77.5t-144 -27q-100 0 -176 31.5t-127.5 100t-77.5 175t-26 256.5q0 289 101.5 426 t303.5 137zM491 953q-56 0 -96.5 -20t-67.5 -59.5t-42 -98t-21 -136.5h406q0 155 -45.5 234.5t-133.5 79.5zM721 1481q0 -35 -17.5 -70.5t-50.5 -64t-80 -46.5t-106 -18t-105.5 18t-79.5 46.5t-50.5 64t-17.5 70.5h132q2 -11 11.5 -23t25.5 -22t37 -16.5t47 -6.5t48 6.5 t38 16.5t25.5 22t11.5 23h131z" />
<glyph unicode="&#x116;" horiz-adv-x="1120" d="M649 1614h-178v194h178v-194zM143 0v1405h867v-164h-686v-440h596v-164h-596v-473h698v-164h-879z" />
<glyph unicode="&#x117;" d="M491 1102q88 0 155 -28.5t111 -89.5t66.5 -157t22.5 -231v-107h-584q1 -188 58.5 -276t176.5 -88q40 0 73.5 16.5t58 48t38 76.5t13.5 101h166q0 -91 -25.5 -163.5t-72 -123t-111.5 -77.5t-144 -27q-100 0 -176 31.5t-127.5 100t-77.5 175t-26 256.5q0 289 101.5 426 t303.5 137zM491 953q-56 0 -96.5 -20t-67.5 -59.5t-42 -98t-21 -136.5h406q0 155 -45.5 234.5t-133.5 79.5zM557 1286h-179v195h179v-195z" />
<glyph unicode="&#x118;" horiz-adv-x="1120" d="M1010 1241h-686v-440h596v-164h-596v-473h698v-164q-17 -23 -33 -56.5t-16 -70.5q0 -21 5 -41.5t16 -36.5t29 -25.5t44 -9.5h63v-104q-32 -14 -62.5 -21.5t-61.5 -7.5q-33 0 -67.5 9t-62 30.5t-45.5 57t-18 88.5q0 65 22 109t54 79h-746v1405h867v-164z" />
<glyph unicode="&#x119;" d="M491 1102q88 0 155 -28.5t111 -89.5t66.5 -157t22.5 -231v-107h-584q1 -188 58.5 -276t176.5 -88q40 0 73.5 16.5t58 48t38 76.5t13.5 101h166q0 -128 -49 -217.5t-134 -134.5q-9 -11 -20 -26t-20 -33.5t-15 -39.5t-6 -43q0 -21 5 -41.5t16 -36.5t28.5 -25.5t43.5 -9.5 h65v-104q-32 -14 -63 -21.5t-62 -7.5q-33 0 -67.5 9t-62 30.5t-45.5 57t-18 88.5q0 54 15.5 93t40.5 71h-5q-100 0 -176 31.5t-127.5 100t-77.5 175t-26 256.5q0 289 101.5 426t303.5 137zM491 953q-56 0 -96.5 -20t-67.5 -59.5t-42 -98t-21 -136.5h406q0 155 -45.5 234.5 t-133.5 79.5z" />
<glyph unicode="&#x11a;" horiz-adv-x="1120" d="M639 1532h-160l-174 276h164l90 -161l92 161h164zM143 0v1405h867v-164h-686v-440h596v-164h-596v-473h698v-164h-879z" />
<glyph unicode="&#x11b;" d="M491 1102q88 0 155 -28.5t111 -89.5t66.5 -157t22.5 -231v-107h-584q1 -188 58.5 -276t176.5 -88q40 0 73.5 16.5t58 48t38 76.5t13.5 101h166q0 -91 -25.5 -163.5t-72 -123t-111.5 -77.5t-144 -27q-100 0 -176 31.5t-127.5 100t-77.5 175t-26 256.5q0 289 101.5 426 t303.5 137zM491 953q-56 0 -96.5 -20t-67.5 -59.5t-42 -98t-21 -136.5h406q0 155 -45.5 234.5t-133.5 79.5zM546 1204h-160l-174 277h164l91 -162l92 162h164z" />
<glyph unicode="&#x11c;" horiz-adv-x="1307" d="M909 1530h-164l-90 162l-92 -162h-164l176 276h160zM1016 156q-65 -96 -156.5 -138.5t-206.5 -42.5q-133 0 -236 45t-173.5 136t-107 227t-36.5 319t39 319.5t111.5 227.5t177 136t236.5 45q109 0 202.5 -31t162 -93.5t107 -157.5t38.5 -222h-185q0 87 -24 151 t-66.5 105.5t-102.5 61.5t-132 20q-87 0 -156.5 -31.5t-118 -95t-74.5 -159.5t-26 -224v-103q0 -257 94 -383.5t270 -126.5q175 0 255.5 99t80.5 301v32h-364v158h549v-731h-119z" />
<glyph unicode="&#x11d;" d="M893 1252q0 -48 -12 -90.5t-35.5 -76.5t-57 -57.5t-75.5 -34.5q45 -47 70.5 -110t25.5 -144q0 -83 -24.5 -150t-69.5 -113.5t-108.5 -72t-141.5 -26.5h-113q-21 0 -38.5 -7.5t-31 -20.5t-21 -30.5t-7.5 -37.5t8 -37.5t21.5 -31t31 -21t37.5 -7.5h308q58 0 105 -20 t80 -54.5t50.5 -80t17.5 -96.5q0 -64 -20.5 -120t-60.5 -97t-99 -65t-135 -24h-305q-66 0 -116 20t-83.5 55t-50.5 81.5t-17 99.5q0 39 10 75.5t28 66.5t44 53t58 35q-42 26 -65 69.5t-23 92.5q0 66 41.5 113.5t110.5 72.5q-59 48 -92 117.5t-33 160.5q0 85 24 152t69.5 114 t111 72t147.5 25q41 0 81 -10.5t74 -28.5q39 19 66 37.5t43.5 40t24.5 48t9 63.5h138zM319 24q-32 0 -55.5 -9.5t-39 -26.5t-23 -40t-7.5 -49t8 -49t23.5 -40.5t39 -27.5t54.5 -10h297q27 0 50 10t40.5 27.5t27 40.5t9.5 49t-7.5 49t-23.5 40t-39.5 26.5t-56.5 9.5h-297z M455 963q-90 0 -136 -60t-46 -164q0 -108 46 -165t136 -57t137 59.5t47 162.5q0 109 -47 166.5t-137 57.5zM723 1202h-164l-90 162l-93 -162h-164l176 277h160z" />
<glyph unicode="&#x11e;" horiz-adv-x="1307" d="M907 1808q0 -35 -17.5 -70t-50.5 -63.5t-80 -46.5t-106 -18q-58 0 -104.5 18t-79.5 46.5t-50.5 63.5t-17.5 70h131q3 -11 12.5 -22.5t25.5 -21.5t37 -16.5t46 -6.5q26 0 48 6.5t38 16.5t25.5 21.5t11.5 22.5h131zM1016 156q-65 -96 -156.5 -138.5t-206.5 -42.5 q-133 0 -236 45t-173.5 136t-107 227t-36.5 319t39 319.5t111.5 227.5t177 136t236.5 45q109 0 202.5 -31t162 -93.5t107 -157.5t38.5 -222h-185q0 87 -24 151t-66.5 105.5t-102.5 61.5t-132 20q-87 0 -156.5 -31.5t-118 -95t-74.5 -159.5t-26 -224v-103q0 -257 94 -383.5 t270 -126.5q175 0 255.5 99t80.5 301v32h-364v158h549v-731h-119z" />
<glyph unicode="&#x11f;" d="M893 1252q0 -48 -12 -90.5t-35.5 -76.5t-57 -57.5t-75.5 -34.5q45 -47 70.5 -110t25.5 -144q0 -83 -24.5 -150t-69.5 -113.5t-108.5 -72t-141.5 -26.5h-113q-21 0 -38.5 -7.5t-31 -20.5t-21 -30.5t-7.5 -37.5t8 -37.5t21.5 -31t31 -21t37.5 -7.5h308q58 0 105 -20 t80 -54.5t50.5 -80t17.5 -96.5q0 -64 -20.5 -120t-60.5 -97t-99 -65t-135 -24h-305q-66 0 -116 20t-83.5 55t-50.5 81.5t-17 99.5q0 39 10 75.5t28 66.5t44 53t58 35q-42 26 -65 69.5t-23 92.5q0 66 41.5 113.5t110.5 72.5q-59 48 -92 117.5t-33 160.5q0 85 24 152t69.5 114 t111 72t147.5 25q41 0 81 -10.5t74 -28.5q36 19 60 41.5t39 47t22.5 49.5t11.5 51h148zM319 24q-32 0 -55.5 -9.5t-39 -26.5t-23 -40t-7.5 -49t8 -49t23.5 -40.5t39 -27.5t54.5 -10h297q27 0 50 10t40.5 27.5t27 40.5t9.5 49t-7.5 49t-23.5 40t-39.5 26.5t-56.5 9.5h-297z M455 963q-90 0 -136 -60t-46 -164q0 -108 46 -165t136 -57t137 59.5t47 162.5q0 109 -47 166.5t-137 57.5zM721 1481q0 -35 -17.5 -70.5t-50.5 -64t-80 -46.5t-106 -18t-105.5 18t-79.5 46.5t-50.5 64t-17.5 70.5h132q2 -11 11.5 -23t25.5 -22t37 -16.5t47 -6.5t48 6.5 t38 16.5t25.5 22t11.5 23h131z" />
<glyph unicode="&#x120;" horiz-adv-x="1307" d="M743 1614h-178v194h178v-194zM1016 156q-65 -96 -156.5 -138.5t-206.5 -42.5q-133 0 -236 45t-173.5 136t-107 227t-36.5 319t39 319.5t111.5 227.5t177 136t236.5 45q109 0 202.5 -31t162 -93.5t107 -157.5t38.5 -222h-185q0 87 -24 151t-66.5 105.5t-102.5 61.5 t-132 20q-87 0 -156.5 -31.5t-118 -95t-74.5 -159.5t-26 -224v-103q0 -257 94 -383.5t270 -126.5q175 0 255.5 99t80.5 301v32h-364v158h549v-731h-119z" />
<glyph unicode="&#x121;" d="M893 1252q0 -48 -12 -90.5t-35.5 -76.5t-57 -57.5t-75.5 -34.5q45 -47 70.5 -110t25.5 -144q0 -83 -24.5 -150t-69.5 -113.5t-108.5 -72t-141.5 -26.5h-113q-21 0 -38.5 -7.5t-31 -20.5t-21 -30.5t-7.5 -37.5t8 -37.5t21.5 -31t31 -21t37.5 -7.5h308q58 0 105 -20 t80 -54.5t50.5 -80t17.5 -96.5q0 -64 -20.5 -120t-60.5 -97t-99 -65t-135 -24h-305q-66 0 -116 20t-83.5 55t-50.5 81.5t-17 99.5q0 39 10 75.5t28 66.5t44 53t58 35q-42 26 -65 69.5t-23 92.5q0 66 41.5 113.5t110.5 72.5q-59 48 -92 117.5t-33 160.5q0 85 24 152t69.5 114 t111 72t147.5 25q41 0 81 -10.5t74 -28.5q36 19 60 41.5t39 47t22.5 49.5t11.5 51h148zM319 24q-32 0 -55.5 -9.5t-39 -26.5t-23 -40t-7.5 -49t8 -49t23.5 -40.5t39 -27.5t54.5 -10h297q27 0 50 10t40.5 27.5t27 40.5t9.5 49t-7.5 49t-23.5 40t-39.5 26.5t-56.5 9.5h-297z M455 963q-90 0 -136 -60t-46 -164q0 -108 46 -165t136 -57t137 59.5t47 162.5q0 109 -47 166.5t-137 57.5zM557 1286h-179v195h179v-195z" />
<glyph unicode="&#x122;" horiz-adv-x="1307" d="M741 -295l-59 -160h-90l45 146h-70v186h174v-172zM1016 156q-65 -96 -156.5 -138.5t-206.5 -42.5q-133 0 -236 45t-173.5 136t-107 227t-36.5 319t39 319.5t111.5 227.5t177 136t236.5 45q109 0 202.5 -31t162 -93.5t107 -157.5t38.5 -222h-185q0 87 -24 151t-66.5 105.5 t-102.5 61.5t-132 20q-87 0 -156.5 -31.5t-118 -95t-74.5 -159.5t-26 -224v-103q0 -257 94 -383.5t270 -126.5q175 0 255.5 99t80.5 301v32h-364v158h549v-731h-119z" />
<glyph unicode="&#x123;" d="M893 1252q0 -48 -12 -90.5t-35.5 -76.5t-57 -57.5t-75.5 -34.5q45 -47 70.5 -110t25.5 -144q0 -83 -24.5 -150t-69.5 -113.5t-108.5 -72t-141.5 -26.5h-113q-21 0 -38.5 -7.5t-31 -20.5t-21 -30.5t-7.5 -37.5t8 -37.5t21.5 -31t31 -21t37.5 -7.5h308q58 0 105 -20 t80 -54.5t50.5 -80t17.5 -96.5q0 -64 -20.5 -120t-60.5 -97t-99 -65t-135 -24h-305q-66 0 -116 20t-83.5 55t-50.5 81.5t-17 99.5q0 39 10 75.5t28 66.5t44 53t58 35q-42 26 -65 69.5t-23 92.5q0 66 41.5 113.5t110.5 72.5q-59 48 -92 117.5t-33 160.5q0 85 24 152t69.5 114 t111 72t147.5 25q41 0 81 -10.5t74 -28.5q36 19 60 41.5t39 47t22.5 49.5t11.5 51h148zM319 24q-32 0 -55.5 -9.5t-39 -26.5t-23 -40t-7.5 -49t8 -49t23.5 -40.5t39 -27.5t54.5 -10h297q27 0 50 10t40.5 27.5t27 40.5t9.5 49t-7.5 49t-23.5 40t-39.5 26.5t-56.5 9.5h-297z M455 963q-90 0 -136 -60t-46 -164q0 -108 46 -165t136 -57t137 59.5t47 162.5q0 109 -47 166.5t-137 57.5zM349 1391l60 159h91l-46 -145h70v-186h-175v172z" />
<glyph unicode="&#x124;" horiz-adv-x="1212" d="M862 1530h-164l-90 162l-94 -162h-164l176 276h160zM1069 0h-180v637h-565v-637h-181v1405h181v-604h565v604h180v-1405z" />
<glyph unicode="&#x125;" d="M291 965h12q42 72 101.5 104.5t140.5 32.5q61 0 110 -17t83.5 -56t53.5 -101t19 -152v-776h-168v764q0 56 -11 92.5t-31 58t-48 30t-62 8.5q-40 0 -76 -20t-63.5 -58t-44 -93t-16.5 -125v-657h-168v1481h168v-516zM467 1530h-164l-90 162l-93 -162h-165l177 277h160z" />
<glyph unicode="&#x126;" horiz-adv-x="1212" d="M1171 1004h-102v-1004h-180v627h-565v-627h-181v1004h-102v147h102v254h181v-254h565v254h180v-254h102v-147zM889 791v213h-565v-213h565z" />
<glyph unicode="&#x127;" d="M291 1333h222v-138h-222v-230h12q42 72 101.5 104.5t140.5 32.5q61 0 110 -17t83.5 -56t53.5 -101t19 -152v-776h-168v764q0 56 -11 92.5t-31 58t-48 30t-62 8.5q-40 0 -76 -20t-63.5 -58t-44 -93t-16.5 -125v-657h-168v1195h-123v138h123v148h168v-148z" />
<glyph unicode="&#x128;" horiz-adv-x="467" d="M323 0h-180v1405h180v-1405zM533 1809q0 -36 -10 -73.5t-31 -68.5t-54 -51t-79 -20q-33 0 -63 10t-58.5 21.5t-56.5 21.5t-58 10q-28 0 -46 -14t-23 -49h-119q0 35 10 73t31 69t54 51t79 20q33 0 62.5 -10t58 -21.5t56.5 -21.5t58 -10q28 0 46.5 14t23.5 49h119z" />
<glyph unicode="&#x129;" horiz-adv-x="467" d="M317 0h-168v1077h168v-1077zM533 1481q0 -36 -10 -73.5t-31 -68.5t-54 -51t-79 -20q-33 0 -63 10t-58.5 21.5t-56.5 21.5t-58 10q-28 0 -46 -14t-23 -49h-119q0 35 10 73t31 69t54 51t79 20q33 0 62.5 -10t58 -21.5t56.5 -21.5t58 -10q28 0 46.5 14t23.5 49h119z" />
<glyph unicode="&#x12a;" horiz-adv-x="467" d="M323 0h-180v1405h180v-1405zM491 1554h-514v148h514v-148z" />
<glyph unicode="&#x12b;" horiz-adv-x="467" d="M317 0h-168v1077h168v-1077zM491 1226h-514v148h514v-148z" />
<glyph unicode="&#x12c;" horiz-adv-x="467" d="M323 0h-180v1405h180v-1405zM488 1809q0 -35 -17.5 -70.5t-50.5 -64t-80 -46.5t-106 -18t-106 18t-80 46.5t-50.5 64t-17.5 70.5h133q2 -11 11.5 -23t25.5 -22t37 -16.5t47 -6.5t48 6.5t38 16.5t25.5 22t11.5 23h131z" />
<glyph unicode="&#x12d;" horiz-adv-x="467" d="M317 0h-168v1077h168v-1077zM488 1481q0 -35 -17.5 -70.5t-50.5 -64t-80 -46.5t-106 -18t-106 18t-80 46.5t-50.5 64t-17.5 70.5h133q2 -11 11.5 -23t25.5 -22t37 -16.5t47 -6.5t48 6.5t38 16.5t25.5 22t11.5 23h131z" />
<glyph unicode="&#x12e;" horiz-adv-x="467" d="M323 0h-14q-17 -23 -32.5 -56.5t-15.5 -70.5q0 -21 5 -41.5t16 -36.5t28.5 -25.5t43.5 -9.5h65v-104q-32 -14 -63 -21.5t-62 -7.5q-33 0 -67.5 9t-62 30.5t-45.5 57t-18 88.5q0 64 22 108.5t54 79.5h-34v1405h180v-1405z" />
<glyph unicode="&#x12f;" horiz-adv-x="373" d="M271 0h-14q-17 -23 -32.5 -56.5t-15.5 -70.5q0 -21 5 -41.5t16 -36.5t28.5 -25.5t43.5 -9.5h65v-104q-32 -14 -63 -21.5t-62 -7.5q-33 0 -67.5 9t-62 30.5t-45.5 57t-18 88.5q0 64 22 108.5t54 79.5h-22v1077h168v-1077zM278 1286h-179v195h179v-195z" />
<glyph unicode="&#x130;" horiz-adv-x="467" d="M323 0h-180v1405h180v-1405zM324 1614h-179v195h179v-195z" />
<glyph unicode="&#x131;" horiz-adv-x="467" d="M317 0h-168v1077h168v-1077z" />
<glyph unicode="&#x132;" horiz-adv-x="1307" d="M323 0h-180v1405h180v-1405zM1174 334q0 -176 -89 -267t-251 -91t-251.5 91t-89.5 267v92h180v-103q0 -90 41.5 -136t119.5 -46q77 0 118.5 46t41.5 136v1082h180v-1071z" />
<glyph unicode="&#x133;" horiz-adv-x="746" d="M270 0h-167v1077h167v-1077zM270 1280h-167v201h167v-201zM643 -125q0 -46 -10 -90.5t-34.5 -79.5t-65.5 -56.5t-103 -21.5q-37 0 -76 8t-65 17v116h90q48 0 72.5 25.5t24.5 73.5v1210h167v-1202zM643 1280h-167v201h167v-201z" />
<glyph unicode="&#x134;" horiz-adv-x="840" d="M707 334q0 -176 -89 -267t-251 -91t-251.5 91t-89.5 267v92h180v-103q0 -90 41.5 -136t119.5 -46q77 0 118.5 46t41.5 136v1082h180v-1071zM874 1530h-164l-90 162l-93 -162h-164l176 277h160z" />
<glyph unicode="&#x135;" horiz-adv-x="373" d="M270 -125q0 -46 -10 -90.5t-34.5 -79.5t-65.5 -56.5t-103 -21.5q-37 0 -76 8t-65 17v116h90q48 0 72.5 25.5t24.5 73.5v1210h167v-1202zM442 1202h-164l-90 162l-93 -162h-164l176 277h160z" />
<glyph unicode="&#x136;" horiz-adv-x="1120" d="M647 -295l-59 -160h-90l45 146h-70v186h174v-172zM324 662l557 743h200l-422 -567l437 -838h-205l-342 686l-225 -250v-436h-181v1405h181v-743z" />
<glyph unicode="&#x137;" horiz-adv-x="840" d="M291 578l348 499h187l-319 -442l335 -635h-191l-245 491l-115 -124v-367h-168v1481h168v-903zM508 -295l-60 -159h-91l46 145h-70v186h175v-172z" />
<glyph unicode="&#x138;" horiz-adv-x="836" d="M507 635l335 -635h-191l-245 491l-115 -124v-367h-168v1077h168v-499l348 499h187z" />
<glyph unicode="&#x139;" d="M248 1538h-144l177 270h184l2 -6zM143 0v1405h181v-1241h573v-164h-754z" />
<glyph unicode="&#x13a;" horiz-adv-x="373" d="M103 0v1481h167v-1481h-167zM207 1538h-142l176 271h184l2 -7z" />
<glyph unicode="&#x13b;" d="M555 -295l-59 -160h-93l48 146h-70v186h174v-172zM143 0v1405h181v-1241h573v-164h-754z" />
<glyph unicode="&#x13c;" horiz-adv-x="373" d="M270 0h-167v1481h167v-1481zM275 -295l-60 -159h-91l46 145h-70v186h175v-172z" />
<glyph unicode="&#x13d;" d="M858 1202l-98 -272h-107l82 254h-82v221h205v-203zM143 0v1405h181v-1241h573v-164h-754z" />
<glyph unicode="&#x13e;" horiz-adv-x="489" d="M270 0h-167v1481h167v-1481zM558 1202l-99 -273h-106l82 255h-82v221h205v-203z" />
<glyph unicode="&#x13f;" d="M811 848h-207v227h207v-227zM143 0v1405h181v-1241h573v-164h-754z" />
<glyph unicode="&#x140;" horiz-adv-x="661" d="M270 0h-167v1481h167v-1481zM560 590h-207v228h207v-228z" />
<glyph unicode="&#x141;" d="M324 809l280 250v-150l-280 -247v-498h573v-164h-754v502l-143 -125v145l143 127v756h181v-596z" />
<glyph unicode="&#x142;" horiz-adv-x="373" d="M270 801l178 158v-149l-178 -157v-653h-167v505l-147 -129v146l147 130v829h167v-680z" />
<glyph unicode="&#x143;" horiz-adv-x="1212" d="M919 0l-525 895q-14 23 -29.5 54.5t-29.5 61.5q-16 34 -32 72l-6 -2q2 -37 4 -71q2 -29 3 -61t1 -54v-895h-162v1405h156l523 -882q11 -20 25.5 -52.5t28.5 -62.5q15 -36 31 -74l6 2q-2 40 -3 76q-2 31 -2.5 62.5t-0.5 48.5v882h162v-1405h-150zM626 1538h-142l176 271 h184l2 -7z" />
<glyph unicode="&#x144;" d="M545 1102q61 0 110 -17t83.5 -56t53.5 -101t19 -152v-776h-168v764q0 56 -11 92.5t-31 58t-48 30t-62 8.5q-40 0 -76 -20t-63.5 -58t-44 -93t-16.5 -125v-657h-168v1077h127l23 -124h12q45 80 112 114.5t148 34.5zM487 1210h-142l176 271h184l2 -7z" />
<glyph unicode="&#x145;" horiz-adv-x="1212" d="M1069 0h-150l-525 895q-14 23 -29.5 54.5t-29.5 61.5q-16 34 -32 72l-6 -2q2 -37 4 -71q2 -29 3 -61t1 -54v-895h-162v1405h156l523 -882q11 -20 25.5 -52.5t28.5 -62.5q15 -36 31 -74l6 2q-2 40 -3 76q-2 31 -2.5 62.5t-0.5 48.5v882h162v-1405zM694 -295l-60 -159h-91 l46 145h-70v186h175v-172z" />
<glyph unicode="&#x146;" d="M545 1102q61 0 110 -17t83.5 -56t53.5 -101t19 -152v-776h-168v764q0 56 -11 92.5t-31 58t-48 30t-62 8.5q-40 0 -76 -20t-63.5 -58t-44 -93t-16.5 -125v-657h-168v1077h127l23 -124h12q45 80 112 114.5t148 34.5zM555 -295l-60 -159h-91l46 145h-70v186h175v-172z" />
<glyph unicode="&#x147;" horiz-adv-x="1212" d="M1069 0h-150l-525 895q-14 23 -29.5 54.5t-29.5 61.5q-16 34 -32 72l-6 -2q2 -37 4 -71q2 -29 3 -61t1 -54v-895h-162v1405h156l523 -882q11 -20 25.5 -52.5t28.5 -62.5q15 -36 31 -74l6 2q-2 40 -3 76q-2 31 -2.5 62.5t-0.5 48.5v882h162v-1405zM685 1532h-160l-174 277 h164l91 -162l92 162h164z" />
<glyph unicode="&#x148;" d="M545 1102q61 0 110 -17t83.5 -56t53.5 -101t19 -152v-776h-168v764q0 56 -11 92.5t-31 58t-48 30t-62 8.5q-40 0 -76 -20t-63.5 -58t-44 -93t-16.5 -125v-657h-168v1077h127l23 -124h12q45 80 112 114.5t148 34.5zM546 1204h-160l-174 277h164l91 -162l92 162h164z" />
<glyph unicode="&#x149;" horiz-adv-x="1173" d="M272 1230l-60 -159h-91l46 145h-70v186h175v-172zM784 1102q61 0 110 -17t83.5 -56t53.5 -101t19 -152v-776h-168v764q0 56 -11 92.5t-31 58t-48 30t-62 8.5q-40 0 -76 -20t-63.5 -58t-44 -93t-16.5 -125v-657h-168v1077h127l23 -124h12q45 80 112 114.5t148 34.5z" />
<glyph unicode="&#x14a;" horiz-adv-x="1212" d="M1069 -125q0 -46 -10 -90.5t-35 -79.5t-66 -56.5t-102 -21.5q-37 0 -76 8t-65 17v117h90q96 0 96 98v164l-508 864q-14 22 -29 54t-29 62q-16 35 -32 72l-6 -2q2 -38 4 -72q2 -29 3 -61t1 -53v-895h-162v1405h156l522 -883q11 -20 26 -52t29 -62q16 -35 31 -74l6 2 q-2 40 -3 76q-2 31 -2.5 62t-0.5 48l-6 883h168v-1530z" />
<glyph unicode="&#x14b;" d="M545 1102q61 0 110 -17t83.5 -56t53.5 -101t19 -152v-901q0 -46 -10 -90.5t-35 -79.5t-66 -56.5t-102 -21.5q-37 0 -76 8t-65 17v116h90q48 0 72 25.5t24 73.5v897q0 56 -11 92.5t-31 58t-48 30t-62 8.5q-40 0 -76 -20t-63.5 -58t-44 -93t-16.5 -125v-657h-168v1077h127 l23 -124h12q45 80 112 114.5t148 34.5z" />
<glyph unicode="&#x14c;" horiz-adv-x="1307" d="M653 1430q129 0 232 -45t174 -136t109 -227t38 -319t-38 -319.5t-109 -227t-174 -135.5t-232 -45t-231.5 45t-173.5 135.5t-109 227t-38 319.5t38 319t109 227t173.5 136t231.5 45zM653 1264q-84 0 -151.5 -31.5t-115 -95.5t-72.5 -159.5t-25 -223.5v-103q0 -128 25 -224 t72.5 -159.5t115 -95t151.5 -31.5q85 0 152.5 31.5t114.5 95t72.5 159.5t25.5 224v103q0 128 -25.5 223.5t-72.5 159.5t-114.5 95.5t-152.5 31.5zM911 1554h-513v148h513v-148z" />
<glyph unicode="&#x14d;" d="M467 1102q189 0 287 -137t98 -426q0 -290 -98 -426.5t-287 -136.5t-287 136.5t-98 426.5q0 289 98 426t287 137zM467 953q-106 0 -157.5 -94t-51.5 -281v-79q0 -186 51.5 -280t157.5 -94q105 0 157 94t52 280v79q0 187 -52 281t-157 94zM724 1226h-513v148h513v-148z" />
<glyph unicode="&#x14e;" horiz-adv-x="1307" d="M653 1430q129 0 232 -45t174 -136t109 -227t38 -319t-38 -319.5t-109 -227t-174 -135.5t-232 -45t-231.5 45t-173.5 135.5t-109 227t-38 319.5t38 319t109 227t173.5 136t231.5 45zM653 1264q-84 0 -151.5 -31.5t-115 -95.5t-72.5 -159.5t-25 -223.5v-103q0 -128 25 -224 t72.5 -159.5t115 -95t151.5 -31.5q85 0 152.5 31.5t114.5 95t72.5 159.5t25.5 224v103q0 128 -25.5 223.5t-72.5 159.5t-114.5 95.5t-152.5 31.5zM908 1809q0 -35 -17.5 -70.5t-50.5 -64t-80 -46.5t-106 -18t-105.5 18t-79.5 46.5t-50.5 64t-17.5 70.5h132q2 -11 11.5 -23 t25.5 -22t37 -16.5t47 -6.5t48 6.5t38 16.5t25.5 22t11.5 23h131z" />
<glyph unicode="&#x14f;" d="M467 1102q189 0 287 -137t98 -426q0 -290 -98 -426.5t-287 -136.5t-287 136.5t-98 426.5q0 289 98 426t287 137zM467 953q-106 0 -157.5 -94t-51.5 -281v-79q0 -186 51.5 -280t157.5 -94q105 0 157 94t52 280v79q0 187 -52 281t-157 94zM721 1481q0 -35 -17.5 -70.5 t-50.5 -64t-80 -46.5t-106 -18t-105.5 18t-79.5 46.5t-50.5 64t-17.5 70.5h132q2 -11 11.5 -23t25.5 -22t37 -16.5t47 -6.5t48 6.5t38 16.5t25.5 22t11.5 23h131z" />
<glyph unicode="&#x150;" horiz-adv-x="1307" d="M653 1430q129 0 232 -45t174 -136t109 -227t38 -319t-38 -319.5t-109 -227t-174 -135.5t-232 -45t-231.5 45t-173.5 135.5t-109 227t-38 319.5t38 319t109 227t173.5 136t231.5 45zM653 1264q-84 0 -151.5 -31.5t-115 -95.5t-72.5 -159.5t-25 -223.5v-103q0 -128 25 -224 t72.5 -159.5t115 -95t151.5 -31.5q85 0 152.5 31.5t114.5 95t72.5 159.5t25.5 224v103q0 128 -25.5 223.5t-72.5 159.5t-114.5 95.5t-152.5 31.5zM1038 1802l-172 -264h-141l127 271h184zM771 1802l-172 -264h-141l127 271h184z" />
<glyph unicode="&#x151;" d="M467 1102q189 0 287 -137t98 -426q0 -290 -98 -426.5t-287 -136.5t-287 136.5t-98 426.5q0 289 98 426t287 137zM467 953q-106 0 -157.5 -94t-51.5 -281v-79q0 -186 51.5 -280t157.5 -94q105 0 157 94t52 280v79q0 187 -52 281t-157 94zM851 1474l-172 -264h-141l127 271 h184zM584 1474l-172 -264h-141l127 271h184z" />
<glyph unicode="&#x152;" horiz-adv-x="1679" d="M870 0v139q-112 -164 -311 -164q-108 0 -193.5 45t-144.5 136t-90 227t-31 319t31 319.5t90 227.5t144.5 136t193.5 45q197 0 311 -164v139h723v-164h-542v-440h450v-164h-450v-473h555v-164h-736zM289 651q0 -257 77.5 -383.5t213.5 -126.5q135 0 212.5 126.5 t77.5 383.5v103q0 256 -77.5 383t-212.5 127q-136 0 -213.5 -127t-77.5 -383v-103z" />
<glyph unicode="&#x153;" horiz-adv-x="1585" d="M1112 1102q88 0 154.5 -28.5t110.5 -89.5t66.5 -157t22.5 -231v-107h-583q1 -188 58.5 -276t177.5 -88q39 0 72.5 16.5t58 48t38 76.5t13.5 101h165q0 -91 -25.5 -163.5t-72 -123t-111 -77.5t-142.5 -27q-110 0 -191 36.5t-132 118.5q-48 -81 -123.5 -118t-175.5 -37 q-188 0 -286 136.5t-98 426.5q0 289 98 426t286 137q205 0 299 -158q101 158 320 158zM493 953q-105 0 -156.5 -94t-51.5 -281v-79q0 -186 51.5 -280t156.5 -94q106 0 158 94t52 280v79q0 187 -52 281t-158 94zM1112 953q-56 0 -96.5 -20t-67.5 -59.5t-42.5 -98 t-20.5 -136.5h405q0 155 -45 234.5t-133 79.5z" />
<glyph unicode="&#x154;" horiz-adv-x="1212" d="M582 1538h-144l176 270h185l2 -6zM1128 1016q0 -131 -65.5 -226.5t-183.5 -136.5l282 -653h-200l-261 621h-376v-621h-181v1405h566q103 0 181.5 -28.5t131.5 -79.5t79.5 -122.5t26.5 -158.5zM324 1241v-457h378q54 0 98 16.5t75 47t48 73.5t17 95q0 105 -61 165t-177 60 h-378z" />
<glyph unicode="&#x155;" horiz-adv-x="559" d="M467 1102q17 0 31 -3t25 -6l24 -8v-174h-56q-40 0 -76 -13t-63.5 -42.5t-44 -78t-16.5 -120.5v-657h-168v1077h127l23 -141h12q10 31 25 60.5t37 53t51.5 38t68.5 14.5zM210 1210h-142l176 271h184l2 -7z" />
<glyph unicode="&#x156;" horiz-adv-x="1212" d="M694 -295l-59 -160h-92l47 146h-72v186h176v-172zM1128 1016q0 -131 -65.5 -226.5t-183.5 -136.5l282 -653h-200l-261 621h-376v-621h-181v1405h566q103 0 181.5 -28.5t131.5 -79.5t79.5 -122.5t26.5 -158.5zM324 1241v-457h378q54 0 98 16.5t75 47t48 73.5t17 95 q0 105 -61 165t-177 60h-378z" />
<glyph unicode="&#x157;" horiz-adv-x="559" d="M467 1102q17 0 31 -3t25 -6l24 -8v-174h-56q-40 0 -76 -13t-63.5 -42.5t-44 -78t-16.5 -120.5v-657h-168v1077h127l23 -141h12q10 31 25 60.5t37 53t51.5 38t68.5 14.5zM311 -295l-60 -159h-91l46 145h-70v186h175v-172z" />
<glyph unicode="&#x158;" horiz-adv-x="1212" d="M684 1532h-160l-174 276h164l92 -161l92 161h164zM1128 1016q0 -131 -65.5 -226.5t-183.5 -136.5l282 -653h-200l-261 621h-376v-621h-181v1405h566q103 0 181.5 -28.5t131.5 -79.5t79.5 -122.5t26.5 -158.5zM324 1241v-457h378q54 0 98 16.5t75 47t48 73.5t17 95 q0 105 -61 165t-177 60h-378z" />
<glyph unicode="&#x159;" horiz-adv-x="559" d="M467 1102q17 0 31 -3t25 -6l24 -8v-174h-56q-40 0 -76 -13t-63.5 -42.5t-44 -78t-16.5 -120.5v-657h-168v1077h127l23 -141h12q10 31 25 60.5t37 53t51.5 38t68.5 14.5zM329 1204h-160l-175 277h165l91 -162l92 162h164z" />
<glyph unicode="&#x15a;" horiz-adv-x="1120" d="M559 1430q91 0 171.5 -22.5t140.5 -70.5t94.5 -123t34.5 -180v-24h-186v30q0 54 -19.5 95.5t-53 70t-79.5 43.5t-99 15q-55 0 -102.5 -12t-82.5 -36t-55 -61t-20 -88q0 -63 31.5 -104.5t82.5 -71t116.5 -51.5t134 -45t134 -52t116.5 -73t82.5 -108t31.5 -156 q0 -118 -36 -200t-99.5 -133t-150.5 -74t-189 -23q-96 0 -182 22.5t-150.5 72.5t-102.5 130.5t-38 196.5q0 11 1 23t1 17h187q0 -1 -0.5 -6t-1 -11.5t-1 -13.5t-0.5 -11q0 -65 21 -112.5t58.5 -79.5t88.5 -47.5t111 -15.5q142 0 218.5 60t76.5 174q0 66 -31.5 109.5t-83 74 t-117 52.5t-134 45t-134 52t-117 74t-83 110t-31.5 160q0 97 35 168.5t95.5 118t142 69t173.5 22.5zM580 1538h-142l176 271h184l2 -7z" />
<glyph unicode="&#x15b;" horiz-adv-x="840" d="M428 1102q75 0 132.5 -23.5t97 -64t59.5 -94t20 -113.5q0 -11 -1 -23.5t-1 -15.5h-174v18q0 31 -7 61.5t-24.5 54.5t-46 38.5t-71.5 14.5q-45 0 -73 -15t-44.5 -37t-22.5 -48t-6 -48q0 -44 21 -72.5t55.5 -48.5t79 -35t90.5 -32t90.5 -39.5t79 -58t55.5 -87.5t21 -127 q0 -87 -26 -149.5t-72 -103t-109 -59.5t-137 -19q-93 0 -159 26.5t-107.5 71t-61 101t-19.5 116.5q0 21 1 31.5t1 13.5h177v-21q0 -51 13.5 -87t37.5 -59.5t56 -34.5t69 -11q33 0 62 10t51.5 30.5t35.5 50.5t13 69q0 51 -21 84t-55.5 55.5t-78.5 39t-90.5 33.5t-90.5 39 t-78.5 55.5t-55.5 83t-21 121.5t23.5 129t67.5 96.5t105.5 61t138.5 21.5zM440 1210h-142l176 271h184l2 -7z" />
<glyph unicode="&#x15c;" horiz-adv-x="1120" d="M559 1430q91 0 171.5 -22.5t140.5 -70.5t94.5 -123t34.5 -180v-24h-186v30q0 54 -19.5 95.5t-53 70t-79.5 43.5t-99 15q-55 0 -102.5 -12t-82.5 -36t-55 -61t-20 -88q0 -63 31.5 -104.5t82.5 -71t116.5 -51.5t134 -45t134 -52t116.5 -73t82.5 -108t31.5 -156 q0 -118 -36 -200t-99.5 -133t-150.5 -74t-189 -23q-96 0 -182 22.5t-150.5 72.5t-102.5 130.5t-38 196.5q0 11 1 23t1 17h187q0 -1 -0.5 -6t-1 -11.5t-1 -13.5t-0.5 -11q0 -65 21 -112.5t58.5 -79.5t88.5 -47.5t111 -15.5q142 0 218.5 60t76.5 174q0 66 -31.5 109.5t-83 74 t-117 52.5t-134 45t-134 52t-117 74t-83 110t-31.5 160q0 97 35 168.5t95.5 118t142 69t173.5 22.5zM816 1530h-164l-90 162l-93 -162h-164l176 277h160z" />
<glyph unicode="&#x15d;" horiz-adv-x="840" d="M428 1102q75 0 132.5 -23.5t97 -64t59.5 -94t20 -113.5q0 -11 -1 -23.5t-1 -15.5h-174v18q0 31 -7 61.5t-24.5 54.5t-46 38.5t-71.5 14.5q-45 0 -73 -15t-44.5 -37t-22.5 -48t-6 -48q0 -44 21 -72.5t55.5 -48.5t79 -35t90.5 -32t90.5 -39.5t79 -58t55.5 -87.5t21 -127 q0 -87 -26 -149.5t-72 -103t-109 -59.5t-137 -19q-93 0 -159 26.5t-107.5 71t-61 101t-19.5 116.5q0 21 1 31.5t1 13.5h177v-21q0 -51 13.5 -87t37.5 -59.5t56 -34.5t69 -11q33 0 62 10t51.5 30.5t35.5 50.5t13 69q0 51 -21 84t-55.5 55.5t-78.5 39t-90.5 33.5t-90.5 39 t-78.5 55.5t-55.5 83t-21 121.5t23.5 129t67.5 96.5t105.5 61t138.5 21.5zM676 1202h-164l-90 162l-93 -162h-164l176 277h160z" />
<glyph unicode="&#x15e;" horiz-adv-x="1120" d="M559 1430q91 0 171.5 -22.5t140.5 -70.5t94.5 -123t34.5 -180v-24h-186v30q0 54 -19.5 95.5t-53 70t-79.5 43.5t-99 15q-55 0 -102.5 -12t-82.5 -36t-55 -61t-20 -88q0 -63 31.5 -104.5t82.5 -71t116.5 -51.5t134 -45t134 -52t116.5 -73t82.5 -108t31.5 -156 q0 -113 -32.5 -192.5t-91 -130.5t-139 -76.5t-175.5 -29.5l-7 -51q33 -2 63 -10t53 -23.5t36.5 -39.5t13.5 -59q0 -52 -21.5 -84.5t-54 -51t-69.5 -25t-68 -6.5q-44 0 -89.5 4.5t-82.5 12.5v100h156q34 0 53.5 10t19.5 40q0 24 -14.5 36t-54.5 12h-68l21 138 q-83 7 -155.5 34.5t-126 77.5t-84.5 125.5t-31 180.5q0 11 1 23t1 17h187q0 -1 -0.5 -6t-1 -11.5t-1 -13.5t-0.5 -11q0 -65 21 -112.5t58.5 -79.5t88.5 -47.5t111 -15.5q142 0 218.5 60t76.5 174q0 66 -31.5 109.5t-83 74t-117 52.5t-134 45t-134 52t-117 74t-83 110 t-31.5 160q0 97 35 168.5t95.5 118t142 69t173.5 22.5z" />
<glyph unicode="&#x15f;" horiz-adv-x="840" d="M428 1102q75 0 132.5 -23.5t97 -64t59.5 -94t20 -113.5q0 -11 -1 -23.5t-1 -15.5h-174v18q0 31 -7 61.5t-24.5 54.5t-46 38.5t-71.5 14.5q-45 0 -73 -15t-44.5 -37t-22.5 -48t-6 -48q0 -44 21 -72.5t55.5 -48.5t79 -35t90.5 -32t90.5 -39.5t79 -58t55.5 -87.5t21 -127 q0 -81 -22.5 -140.5t-63 -100t-96.5 -62t-122 -26.5l-7 -52q33 -2 63 -10t53 -23.5t36.5 -39.5t13.5 -59q0 -52 -21.5 -84.5t-54 -51t-69.5 -25t-68 -6.5q-44 0 -89.5 4.5t-82.5 12.5v100h156q34 0 53.5 10t19.5 40q0 24 -14.5 36t-54.5 12h-68l21 139q-73 10 -125 39.5 t-85 71.5t-48.5 93.5t-15.5 105.5q0 21 1 31.5t1 13.5h177v-21q0 -51 13.5 -87t37.5 -59.5t56 -34.5t69 -11q33 0 62 10t51.5 30.5t35.5 50.5t13 69q0 51 -21 84t-55.5 55.5t-78.5 39t-90.5 33.5t-90.5 39t-78.5 55.5t-55.5 83t-21 121.5t23.5 129t67.5 96.5t105.5 61 t138.5 21.5z" />
<glyph unicode="&#x160;" horiz-adv-x="1120" d="M559 1430q91 0 171.5 -22.5t140.5 -70.5t94.5 -123t34.5 -180v-24h-186v30q0 54 -19.5 95.5t-53 70t-79.5 43.5t-99 15q-55 0 -102.5 -12t-82.5 -36t-55 -61t-20 -88q0 -63 31.5 -104.5t82.5 -71t116.5 -51.5t134 -45t134 -52t116.5 -73t82.5 -108t31.5 -156 q0 -118 -36 -200t-99.5 -133t-150.5 -74t-189 -23q-96 0 -182 22.5t-150.5 72.5t-102.5 130.5t-38 196.5q0 11 1 23t1 17h187q0 -1 -0.5 -6t-1 -11.5t-1 -13.5t-0.5 -11q0 -65 21 -112.5t58.5 -79.5t88.5 -47.5t111 -15.5q142 0 218.5 60t76.5 174q0 66 -31.5 109.5t-83 74 t-117 52.5t-134 45t-134 52t-117 74t-83 110t-31.5 160q0 97 35 168.5t95.5 118t142 69t173.5 22.5zM639 1532h-160l-174 277h164l91 -162l92 162h164z" />
<glyph unicode="&#x161;" horiz-adv-x="840" d="M428 1102q75 0 132.5 -23.5t97 -64t59.5 -94t20 -113.5q0 -11 -1 -23.5t-1 -15.5h-174v18q0 31 -7 61.5t-24.5 54.5t-46 38.5t-71.5 14.5q-45 0 -73 -15t-44.5 -37t-22.5 -48t-6 -48q0 -44 21 -72.5t55.5 -48.5t79 -35t90.5 -32t90.5 -39.5t79 -58t55.5 -87.5t21 -127 q0 -87 -26 -149.5t-72 -103t-109 -59.5t-137 -19q-93 0 -159 26.5t-107.5 71t-61 101t-19.5 116.5q0 21 1 31.5t1 13.5h177v-21q0 -51 13.5 -87t37.5 -59.5t56 -34.5t69 -11q33 0 62 10t51.5 30.5t35.5 50.5t13 69q0 51 -21 84t-55.5 55.5t-78.5 39t-90.5 33.5t-90.5 39 t-78.5 55.5t-55.5 83t-21 121.5t23.5 129t67.5 96.5t105.5 61t138.5 21.5zM499 1204h-160l-174 277h164l91 -162l92 162h164z" />
<glyph unicode="&#x162;" horiz-adv-x="1026" d="M600 -295l-59 -160h-90l45 146h-70v186h174v-172zM39 1405h946v-164h-383v-1241h-180v1241h-383v164z" />
<glyph unicode="&#x163;" horiz-adv-x="467" d="M289 1077h145v-150h-145v-703q0 -48 24 -73.5t72 -25.5h49v-117q-21 -12 -55.5 -20t-65.5 -8q-55 0 -92 21.5t-59 56.5t-31.5 79.5t-9.5 90.5v699h-93v150h93l37 299h131v-299zM322 -295l-60 -159h-91l46 145h-70v186h175v-172z" />
<glyph unicode="&#x164;" horiz-adv-x="1026" d="M592 1532h-160l-174 276h164l90 -161l92 161h164zM39 1405h946v-164h-383v-1241h-180v1241h-383v164z" />
<glyph unicode="&#x165;" horiz-adv-x="629" d="M289 1077h145v-150h-145v-703q0 -48 24 -73.5t72 -25.5h49v-117q-21 -12 -55.5 -20t-65.5 -8q-55 0 -92 21.5t-59 56.5t-31.5 79.5t-9.5 90.5v699h-93v150h93l37 299h131v-299zM722 1202l-99 -273h-106l82 255h-82v221h205v-203z" />
<glyph unicode="&#x166;" horiz-adv-x="1026" d="M985 1241h-383v-436h268v-150h-268v-655h-180v655h-264v150h264v436h-383v164h946v-164z" />
<glyph unicode="&#x167;" horiz-adv-x="468" d="M289 1077h145v-150h-145v-213h135v-138h-135v-352q0 -48 24 -73.5t72 -25.5h49v-117q-21 -12 -55.5 -20t-65.5 -8q-55 0 -92 21.5t-59 56.5t-31.5 79.5t-9.5 90.5v348h-89v138h89v213h-93v150h93l37 299h131v-299z" />
<glyph unicode="&#x168;" horiz-adv-x="1212" d="M1069 457q0 -119 -31.5 -208.5t-91.5 -150.5t-146 -91.5t-194 -30.5t-194 30.5t-146 91.5t-91.5 150.5t-31.5 208.5v948h180v-959q0 -149 75.5 -227t207.5 -78t207.5 78t75.5 227v959h180v-948zM905 1809q0 -36 -10 -73.5t-31 -68.5t-54 -51t-79 -20q-33 0 -63 10 t-58.5 21.5t-56.5 21.5t-58 10q-28 0 -46 -14t-23 -49h-119q0 35 10 73t31 69t54 51t79 20q33 0 62.5 -10t58 -21.5t56.5 -21.5t58 -10q28 0 46.5 14t23.5 49h119z" />
<glyph unicode="&#x169;" d="M811 0h-127l-22 125h-13q-45 -81 -112.5 -115t-147.5 -34q-60 0 -109.5 17t-84 55.5t-53.5 100.5t-19 152v776h168v-764q0 -56 11 -92.5t31 -57.5t47.5 -29.5t61.5 -8.5q40 0 76.5 20t64 58t44 92.5t16.5 124.5v657h168v-1077zM766 1481q0 -36 -10 -73.5t-31 -68.5 t-54 -51t-79 -20q-33 0 -63 10t-58.5 21.5t-56.5 21.5t-58 10q-28 0 -46 -14t-23 -49h-119q0 35 10 73t31 69t54 51t79 20q33 0 62.5 -10t58 -21.5t56.5 -21.5t58 -10q28 0 46.5 14t23.5 49h119z" />
<glyph unicode="&#x16a;" horiz-adv-x="1212" d="M1069 457q0 -119 -31.5 -208.5t-91.5 -150.5t-146 -91.5t-194 -30.5t-194 30.5t-146 91.5t-91.5 150.5t-31.5 208.5v948h180v-959q0 -149 75.5 -227t207.5 -78t207.5 78t75.5 227v959h180v-948zM863 1554h-513v148h513v-148z" />
<glyph unicode="&#x16b;" d="M811 0h-127l-22 125h-13q-45 -81 -112.5 -115t-147.5 -34q-60 0 -109.5 17t-84 55.5t-53.5 100.5t-19 152v776h168v-764q0 -56 11 -92.5t31 -57.5t47.5 -29.5t61.5 -8.5q40 0 76.5 20t64 58t44 92.5t16.5 124.5v657h168v-1077zM724 1226h-513v148h513v-148z" />
<glyph unicode="&#x16c;" horiz-adv-x="1212" d="M1069 457q0 -119 -31.5 -208.5t-91.5 -150.5t-146 -91.5t-194 -30.5t-194 30.5t-146 91.5t-91.5 150.5t-31.5 208.5v948h180v-959q0 -149 75.5 -227t207.5 -78t207.5 78t75.5 227v959h180v-948zM860 1809q0 -35 -17.5 -70.5t-50.5 -64t-80 -46.5t-106 -18t-105.5 18 t-79.5 46.5t-50.5 64t-17.5 70.5h132q2 -11 11.5 -23t25.5 -22t37 -16.5t47 -6.5t48 6.5t38 16.5t25.5 22t11.5 23h131z" />
<glyph unicode="&#x16d;" d="M811 0h-127l-22 125h-13q-45 -81 -112.5 -115t-147.5 -34q-60 0 -109.5 17t-84 55.5t-53.5 100.5t-19 152v776h168v-764q0 -56 11 -92.5t31 -57.5t47.5 -29.5t61.5 -8.5q40 0 76.5 20t64 58t44 92.5t16.5 124.5v657h168v-1077zM721 1481q0 -35 -17.5 -70.5t-50.5 -64 t-80 -46.5t-106 -18t-105.5 18t-79.5 46.5t-50.5 64t-17.5 70.5h132q2 -11 11.5 -23t25.5 -22t37 -16.5t47 -6.5t48 6.5t38 16.5t25.5 22t11.5 23h131z" />
<glyph unicode="&#x16e;" horiz-adv-x="1212" d="M1069 457q0 -119 -31.5 -208.5t-91.5 -150.5t-146 -91.5t-194 -30.5t-194 30.5t-146 91.5t-91.5 150.5t-31.5 208.5v948h180v-959q0 -149 75.5 -227t207.5 -78t207.5 78t75.5 227v959h180v-948zM606 1873q42 0 77.5 -15.5t62 -42.5t41.5 -62.5t15 -75.5q0 -41 -15.5 -77 t-42 -62.5t-62 -42t-76.5 -15.5q-40 0 -76 15t-63 41.5t-42.5 62.5t-15.5 78q0 41 15.5 76.5t42 62t62.5 42t77 15.5zM606 1781q-21 0 -40.5 -8t-33.5 -22.5t-22.5 -33.5t-8.5 -40t8.5 -40.5t22.5 -33.5t33.5 -22.5t40.5 -8.5t39.5 8.5t33 22.5t23 33.5t8.5 40.5t-8.5 40 t-23 33.5t-33 22.5t-39.5 8z" />
<glyph unicode="&#x16f;" d="M811 0h-127l-22 125h-13q-45 -81 -112.5 -115t-147.5 -34q-60 0 -109.5 17t-84 55.5t-53.5 100.5t-19 152v776h168v-764q0 -56 11 -92.5t31 -57.5t47.5 -29.5t61.5 -8.5q40 0 76.5 20t64 58t44 92.5t16.5 124.5v657h168v-1077zM467 1545q42 0 77.5 -15.5t62 -42.5 t41.5 -62.5t15 -75.5q0 -41 -15.5 -77t-42 -62.5t-62 -42t-76.5 -15.5q-40 0 -76 15t-63 41.5t-42.5 62.5t-15.5 78q0 41 15.5 76.5t42 62t62.5 42t77 15.5zM467 1453q-21 0 -40.5 -8t-33.5 -22.5t-22.5 -33.5t-8.5 -40t8.5 -40.5t22.5 -33.5t33.5 -22.5t40.5 -8.5t39.5 8.5 t33 22.5t23 33.5t8.5 40.5t-8.5 40t-23 33.5t-33 22.5t-39.5 8z" />
<glyph unicode="&#x170;" horiz-adv-x="1212" d="M1069 457q0 -119 -31.5 -208.5t-91.5 -150.5t-146 -91.5t-194 -30.5t-194 30.5t-146 91.5t-91.5 150.5t-31.5 208.5v948h180v-959q0 -149 75.5 -227t207.5 -78t207.5 78t75.5 227v959h180v-948zM990 1802l-172 -264h-141l127 271h184zM723 1802l-172 -264h-141l127 271 h184z" />
<glyph unicode="&#x171;" d="M811 0h-127l-22 125h-13q-45 -81 -112.5 -115t-147.5 -34q-60 0 -109.5 17t-84 55.5t-53.5 100.5t-19 152v776h168v-764q0 -56 11 -92.5t31 -57.5t47.5 -29.5t61.5 -8.5q40 0 76.5 20t64 58t44 92.5t16.5 124.5v657h168v-1077zM851 1474l-172 -264h-141l127 271h184z M584 1474l-172 -264h-141l127 271h184z" />
<glyph unicode="&#x172;" horiz-adv-x="1212" d="M1069 457q0 -173 -65.5 -284t-186.5 -160q-9 -11 -19.5 -26.5t-19.5 -33.5t-14.5 -38.5t-5.5 -41.5t5 -41.5t16 -36.5t28.5 -25.5t43.5 -9.5h65v-104q-32 -14 -63 -21.5t-62 -7.5q-33 0 -67.5 9t-62 30.5t-45.5 57t-18 88.5q0 54 16 94t41 72q-12 -1 -24 -1.5t-25 -0.5 q-108 0 -194 30.5t-146 91.5t-91.5 150.5t-31.5 208.5v948h180v-959q0 -149 75.5 -227t207.5 -78t207.5 78t75.5 227v959h180v-948z" />
<glyph unicode="&#x173;" d="M811 0h-14q-17 -23 -32.5 -56.5t-15.5 -70.5q0 -21 5 -41.5t16 -36.5t28.5 -25.5t43.5 -9.5h65v-104q-32 -14 -63 -21.5t-62 -7.5q-33 0 -67.5 9t-62 30.5t-45.5 57t-18 88.5q0 36 7.5 65.5t20 54t29.5 45.5t35 40l-19 108h-13q-45 -81 -112.5 -115t-147.5 -34 q-60 0 -109.5 17t-84 55.5t-53.5 100.5t-19 152v776h168v-764q0 -56 11 -92.5t31 -57.5t47.5 -29.5t61.5 -8.5q40 0 76.5 20t64 58t44 92.5t16.5 124.5v657h168v-1077z" />
<glyph unicode="&#x174;" horiz-adv-x="1585" d="M1239 0h-233l-172 953q-6 35 -13 82.5t-13 92.5q-7 52 -14 106h-8q-6 -54 -13 -106q-6 -45 -13 -92.5t-13 -82.5l-167 -953h-234l-326 1405h190l216 -971q7 -31 14 -74t14 -82q7 -46 15 -94h8q4 38 9 79q5 35 11 79.5t14 91.5l163 971h249l175 -971q7 -38 14 -81.5 t12 -81.5q6 -44 11 -87h8l14 90q6 38 13.5 81.5t15.5 78.5l215 971h164zM1049 1530h-164l-90 162l-93 -162h-164l176 277h160z" />
<glyph unicode="&#x175;" horiz-adv-x="1212" d="M940 0h-186l-113 614q-8 42 -13.5 86t-10.5 80q-5 42 -9 82h-8q-4 -40 -9 -82q-5 -36 -10.5 -80t-13.5 -86l-110 -614h-187l-268 1077h184l135 -606q8 -33 15.5 -77t13.5 -84q7 -47 14 -95h9q4 42 9 86q5 38 10.5 83t13.5 87l109 606h194l111 -606q7 -42 12.5 -86.5 t10.5 -82.5q5 -44 9 -87h8q5 39 12 82q5 37 13 82t18 92l135 606h170zM862 1202h-164l-90 162l-93 -162h-164l176 277h160z" />
<glyph unicode="&#x176;" horiz-adv-x="1120" d="M651 582v-582h-180v582l-455 823h199l356 -651h9l349 651h175zM816 1530h-164l-90 162l-93 -162h-164l176 277h160z" />
<glyph unicode="&#x177;" horiz-adv-x="840" d="M547 55q-24 -88 -55 -166t-72.5 -136t-96 -92t-125.5 -34q-35 0 -64.5 3.5t-55.5 13.5v116h59q34 0 66 11.5t60 39.5t50 74t37 115l-330 1077h184l238 -835h8l201 835h171zM676 1202h-164l-90 162l-93 -162h-164l176 277h160z" />
<glyph unicode="&#x178;" horiz-adv-x="1120" d="M651 582v-582h-180v582l-455 823h199l356 -651h9l349 651h175zM803 1614h-179v195h179v-195zM495 1614h-178v195h178v-195z" />
<glyph unicode="&#x179;" horiz-adv-x="1026" d="M532 1538h-141l176 270h185l2 -6zM41 0v78l668 1163h-625v164h883v-78l-670 -1163h684v-164h-940z" />
<glyph unicode="&#x17a;" horiz-adv-x="840" d="M283 149h501v-149h-731v80l474 847h-441v150h672v-77zM440 1210h-142l176 271h184l2 -7z" />
<glyph unicode="&#x17b;" horiz-adv-x="1026" d="M602 1614h-178v194h178v-194zM41 0v78l668 1163h-625v164h883v-78l-670 -1163h684v-164h-940z" />
<glyph unicode="&#x17c;" horiz-adv-x="840" d="M758 1000l-475 -851h501v-149h-731v80l474 847h-441v150h672v-77zM510 1286h-179v195h179v-195z" />
<glyph unicode="&#x17d;" horiz-adv-x="1026" d="M592 1532h-160l-174 276h164l90 -161l92 161h164zM41 0v78l668 1163h-625v164h883v-78l-670 -1163h684v-164h-940z" />
<glyph unicode="&#x17e;" horiz-adv-x="840" d="M758 1000l-475 -851h501v-149h-731v80l474 847h-441v150h672v-77zM499 1204h-160l-174 277h164l91 -162l92 162h164z" />
<glyph unicode="&#x17f;" horiz-adv-x="373" d="M325 1497q38 0 77 -7.5t65 -17.5v-116h-90q-48 0 -72 -25t-24 -73v-1258h-168v927h-95v150h95v173q0 46 10 90t34.5 79t65.5 56.5t102 21.5z" />
<glyph unicode="&#x192;" d="M723 1497q37 0 74 -7.5t61 -17.5l-16 -116h-91q-48 0 -76.5 -25t-31.5 -73l-45 -285h186l-22 -149h-186l-138 -949q-8 -54 -24.5 -99.5t-46.5 -78.5t-74 -51.5t-105 -18.5q-37 0 -73.5 8t-59.5 17l14 116h91q48 0 76.5 25.5t31.5 73.5l140 957h-146l23 149h145l43 277 q8 54 25 99.5t46.5 78.5t73 51t105.5 18z" />
<glyph unicode="&#x1fa;" horiz-adv-x="1120" d="M561 1681q42 0 78 -15t62.5 -40.5t41.5 -60t15 -72.5q0 -43 -18.5 -79t-47.5 -62l430 -1352h-194l-97 313h-557l-96 -313h-180l430 1354q-29 24 -46 60t-17 79q0 39 15.5 73t42 59.5t62 40.5t76.5 15zM549 1257q-6 -32 -11 -61q-5 -25 -11 -51t-11 -43l-192 -625h456 l-190 625q-6 17 -11.5 43.5t-10.5 51.5q-5 29 -11 60h-8zM829 1952l-190 -215h-141l145 223h184zM561 1593q-21 0 -40 -8t-33.5 -21.5t-22.5 -31.5t-8 -39t8 -39t22.5 -31.5t33.5 -21.5t40 -8t40 8t33.5 21.5t23 31.5t8.5 39t-8.5 39t-23 31.5t-33.5 21.5t-40 8z" />
<glyph unicode="&#x1fb;" d="M457 1102q163 0 244 -79.5t81 -222.5v-604q0 -38 18 -54.5t40 -16.5h65v-117q-14 -8 -42 -16t-69 -8q-66 0 -110 36.5t-60 96.5h-10q-42 -67 -109.5 -104t-152.5 -37q-27 0 -58 4.5t-62.5 16t-61 33t-52 55t-36 81.5t-13.5 113q0 111 41 181.5t114 110t173 54t217 14.5 v139q0 39 -7 71t-26 55t-52 36t-85 13q-48 0 -79.5 -15t-50.5 -39.5t-27 -55t-8 -61.5v-24h-166q-2 9 -2 19v25q0 74 25.5 130.5t71.5 94t109.5 56.5t139.5 19zM468 1525q42 0 77.5 -14.5t62 -39.5t41.5 -58.5t15 -71.5q0 -39 -15.5 -73t-42 -58.5t-62 -38.5t-76.5 -14 q-40 0 -76 13.5t-63 38t-42.5 58.5t-15.5 74q0 39 15.5 73t42 58.5t62.5 38.5t77 14zM614 489q-82 0 -149.5 -7.5t-116 -29.5t-75.5 -61t-27 -102q0 -92 37 -128t108 -36q40 0 79.5 16.5t71.5 49.5t52 83t20 117v98zM742 1802l-199 -229h-142l155 236h184zM468 1436 q-21 0 -40.5 -7t-33.5 -20t-22.5 -30t-8.5 -38t8.5 -38.5t22.5 -30t33.5 -20t40.5 -7.5t39.5 7.5t33 20t23 30t8.5 38.5t-8.5 38t-23 30t-33 20t-39.5 7z" />
<glyph unicode="&#x1fc;" horiz-adv-x="1679" d="M1059 1538h-141l176 270h184l2 -6zM928 0l-70 313h-559l-121 -313h-180l573 1405h1020v-164h-751l100 -440h561v-164h-524l106 -473h521v-164h-676zM362 477h461l-139 635q-5 17 -9 39t-7 42q-4 23 -6 46h-9q-7 -24 -15 -47q-7 -20 -14.5 -41.5t-13.5 -38.5z" />
<glyph unicode="&#x1fd;" horiz-adv-x="1493" d="M1032 1102q88 0 154.5 -28.5t111 -89.5t66.5 -157t22 -231v-107h-584q2 -189 59 -276.5t177 -87.5q40 0 73.5 16.5t57.5 48t37.5 76.5t13.5 101h166q0 -91 -25.5 -163.5t-72 -123t-111.5 -77.5t-143 -27q-112 0 -194 38t-133 125q-58 -75 -137.5 -119t-173.5 -44 q-50 0 -105.5 10.5t-102 43t-76.5 92t-30 157.5q0 111 41 181.5t113.5 110t172.5 54t217 14.5v139q0 39 -7 71t-26 55t-52 36t-84 13q-48 0 -80 -15t-51 -39.5t-27 -55t-8 -61.5v-24h-166q-2 9 -2 19v25q0 74 25.5 130.5t71.5 94t109.5 56.5t139.5 19q99 0 168.5 -31.5 t107.5 -91.5q52 63 122.5 93t164.5 30zM626 489q-82 0 -149.5 -7.5t-116 -29.5t-75.5 -61t-27 -102q0 -92 37.5 -128t108.5 -36q39 0 79 15.5t71.5 46.5t51.5 78t20 110v114zM1032 953q-56 0 -96.5 -20t-67.5 -59.5t-42 -98t-21 -136.5h405q0 155 -45 234.5t-133 79.5z M767 1210h-142l176 271h184l2 -7z" />
<glyph unicode="&#x1fe;" horiz-adv-x="1307" d="M1059 1248q71 -91 109 -227t38 -318q0 -183 -38 -319.5t-109 -227t-174 -135.5t-232 -45q-97 0 -178.5 24.5t-147.5 75.5l-93 -152h-131l145 232q-72 91 -109.5 227t-37.5 320q0 183 38 319t109 227t173.5 136t231.5 45q196 0 326 -103l96 154h131zM422 228 q88 -87 231 -87q85 0 152.5 31.5t114.5 95t72.5 159.5t25.5 224v103q0 102 -16 183t-47 142zM653 1264q-84 0 -151.5 -31.5t-115 -95.5t-72.5 -159.5t-25 -223.5v-103q0 -103 16 -184t47 -144l533 853q-93 88 -232 88zM674 1538h-142l176 271h184l2 -7z" />
<glyph unicode="&#x1ff;" horiz-adv-x="1026" d="M798 965q99 -140 99 -426q0 -290 -98 -426.5t-288 -136.5q-64 0 -118.5 15.5t-97.5 47.5l-55 -104h-113l97 178q-48 69 -72.5 174t-24.5 252q0 289 98 426t286 137q131 0 216 -64l57 105h113zM377 186q49 -61 134 -61q106 0 158 94t52 280v79q0 60 -5.5 110t-16.5 90z M511 953q-104 0 -156 -94t-52 -281v-79q0 -60 4.5 -110t15.5 -92l324 594q-54 62 -136 62zM533 1210h-142l176 271h184l2 -7z" />
<glyph unicode="&#x2c6;" horiz-adv-x="559" d="M531 1202h-164l-90 162l-93 -162h-164l176 277h160z" />
<glyph unicode="&#x2c7;" horiz-adv-x="559" d="M354 1204h-160l-174 277h164l91 -162l92 162h164z" />
<glyph unicode="&#x2c9;" horiz-adv-x="1024" d="M1026 1620h-1026v109h1026v-109z" />
<glyph unicode="&#x2d8;" horiz-adv-x="559" d="M529 1481q0 -35 -17.5 -70.5t-50.5 -64t-80 -46.5t-106 -18t-105.5 18t-79.5 46.5t-50.5 64t-17.5 70.5h132q2 -11 11.5 -23t25.5 -22t37 -16.5t47 -6.5t48 6.5t38 16.5t25.5 22t11.5 23h131z" />
<glyph unicode="&#x2d9;" horiz-adv-x="559" d="M369 1286h-179v195h179v-195z" />
<glyph unicode="&#x2da;" horiz-adv-x="559" d="M285 1545q42 0 77.5 -15.5t62 -42.5t41.5 -62.5t15 -75.5q0 -41 -15.5 -77t-42 -62.5t-62 -42t-76.5 -15.5q-40 0 -76 15t-63 41.5t-42.5 62.5t-15.5 78q0 41 15.5 76.5t42 62t62.5 42t77 15.5zM285 1453q-21 0 -40.5 -8t-33.5 -22.5t-22.5 -33.5t-8.5 -40t8.5 -40.5 t22.5 -33.5t33.5 -22.5t40.5 -8.5t39.5 8.5t33 22.5t23 33.5t8.5 40.5t-8.5 40t-23 33.5t-33 22.5t-39.5 8z" />
<glyph unicode="&#x2db;" horiz-adv-x="559" d="M369 16q-9 -11 -20 -26.5t-20.5 -34t-15.5 -39.5t-6 -43q0 -21 5 -41.5t16 -36.5t28.5 -25.5t43.5 -9.5h65v-104q-32 -14 -63 -21.5t-62 -7.5q-33 0 -67.5 9t-62 30.5t-45.5 57t-18 88.5q0 37 8 67.5t22 56t31.5 47t37.5 41.5h123v-8z" />
<glyph unicode="&#x2dc;" horiz-adv-x="559" d="M578 1481q0 -36 -10 -73.5t-31 -68.5t-54 -51t-79 -20q-33 0 -63 10t-58.5 21.5t-56.5 21.5t-58 10q-28 0 -46 -14t-23 -49h-119q0 35 10 73t31 69t54 51t79 20q33 0 62.5 -10t58 -21.5t56.5 -21.5t58 -10q28 0 46.5 14t23.5 49h119z" />
<glyph unicode="&#x2dd;" horiz-adv-x="559" d="M588 1474l-172 -264h-141l127 271h184zM321 1474l-172 -264h-141l127 271h184z" />
<glyph unicode="&#x3c0;" horiz-adv-x="1139" d="M1085 927h-160v-608q0 -63 2 -112t5.5 -87.5t9 -67.5t11.5 -52h-165q-14 25 -22 101t-8 200v626h-322q-3 -66 -9.5 -147.5t-15.5 -169.5t-21 -177t-26 -170t-29.5 -149t-31.5 -114h-166q17 54 32.5 125.5t29.5 152.5t26 168t21 172t14.5 164t7.5 145q-43 0 -76.5 -1.5 t-59.5 -4.5t-46.5 -8t-36.5 -12l-25 115q35 29 106 45t191 16h781z" />
<glyph unicode="&#x1e80;" horiz-adv-x="1585" d="M1006 0l-172 953q-6 35 -13 82.5t-13 92.5q-7 52 -14 106h-8q-6 -54 -13 -106q-6 -45 -13 -92.5t-13 -82.5l-167 -953h-234l-326 1405h190l216 -971q7 -31 14 -74t14 -82q7 -46 15 -94h8q4 38 9 79q5 35 11 79.5t14 91.5l163 971h249l175 -971q7 -38 14 -81.5t12 -81.5 q6 -44 11 -87h8l14 90q6 38 13.5 81.5t15.5 78.5l215 971h164l-326 -1405h-233zM774 1538l-222 264l2 7h185l176 -271h-141z" />
<glyph unicode="&#x1e81;" horiz-adv-x="1212" d="M754 0l-113 614q-8 42 -13.5 86t-10.5 80q-5 42 -9 82h-8q-4 -40 -9 -82q-5 -36 -10.5 -80t-13.5 -86l-110 -614h-187l-268 1077h184l135 -606q8 -33 15.5 -77t13.5 -84q7 -47 14 -95h9q4 42 9 86q5 38 10.5 83t13.5 87l109 606h194l111 -606q7 -42 12.5 -86.5 t10.5 -82.5q5 -44 9 -87h8q5 39 12 82q5 37 13 82t18 92l135 606h170l-268 -1077h-186zM587 1210l-222 264l2 7h185l176 -271h-141z" />
<glyph unicode="&#x1e82;" horiz-adv-x="1585" d="M1006 0l-172 953q-6 35 -13 82.5t-13 92.5q-7 52 -14 106h-8q-6 -54 -13 -106q-6 -45 -13 -92.5t-13 -82.5l-167 -953h-234l-326 1405h190l216 -971q7 -31 14 -74t14 -82q7 -46 15 -94h8q4 38 9 79q5 35 11 79.5t14 91.5l163 971h249l175 -971q7 -38 14 -81.5t12 -81.5 q6 -44 11 -87h8l14 90q6 38 13.5 81.5t15.5 78.5l215 971h164l-326 -1405h-233zM813 1538h-142l176 271h184l2 -7z" />
<glyph unicode="&#x1e83;" horiz-adv-x="1212" d="M754 0l-113 614q-8 42 -13.5 86t-10.5 80q-5 42 -9 82h-8q-4 -40 -9 -82q-5 -36 -10.5 -80t-13.5 -86l-110 -614h-187l-268 1077h184l135 -606q8 -33 15.5 -77t13.5 -84q7 -47 14 -95h9q4 42 9 86q5 38 10.5 83t13.5 87l109 606h194l111 -606q7 -42 12.5 -86.5 t10.5 -82.5q5 -44 9 -87h8q5 39 12 82q5 37 13 82t18 92l135 606h170l-268 -1077h-186zM626 1210h-142l176 271h184l2 -7z" />
<glyph unicode="&#x1e84;" horiz-adv-x="1585" d="M1239 0h-233l-172 953q-6 35 -13 82.5t-13 92.5q-7 52 -14 106h-8q-6 -54 -13 -106q-6 -45 -13 -92.5t-13 -82.5l-167 -953h-234l-326 1405h190l216 -971q7 -31 14 -74t14 -82q7 -46 15 -94h8q4 38 9 79q5 35 11 79.5t14 91.5l163 971h249l175 -971q7 -38 14 -81.5 t12 -81.5q6 -44 11 -87h8l14 90q6 38 13.5 81.5t15.5 78.5l215 971h164zM1036 1614h-179v195h179v-195zM728 1614h-178v195h178v-195z" />
<glyph unicode="&#x1e85;" horiz-adv-x="1212" d="M940 0h-186l-113 614q-8 42 -13.5 86t-10.5 80q-5 42 -9 82h-8q-4 -40 -9 -82q-5 -36 -10.5 -80t-13.5 -86l-110 -614h-187l-268 1077h184l135 -606q8 -33 15.5 -77t13.5 -84q7 -47 14 -95h9q4 42 9 86q5 38 10.5 83t13.5 87l109 606h194l111 -606q7 -42 12.5 -86.5 t10.5 -82.5q5 -44 9 -87h8q5 39 12 82q5 37 13 82t18 92l135 606h170zM849 1286h-179v195h179v-195zM541 1286h-178v195h178v-195z" />
<glyph unicode="&#x1ef2;" horiz-adv-x="1120" d="M651 0h-180v582l-455 823h199l356 -651h9l349 651h175l-453 -823v-582zM541 1538l-222 264l2 7h185l176 -271h-141z" />
<glyph unicode="&#x1ef3;" horiz-adv-x="840" d="M547 55q-24 -88 -55 -166t-72.5 -136t-96 -92t-125.5 -34q-35 0 -64.5 3.5t-55.5 13.5v116h59q34 0 66 11.5t60 39.5t50 74t37 115l-330 1077h184l238 -835h8l201 835h171zM401 1210l-222 264l2 7h185l176 -271h-141z" />
<glyph unicode="&#x2000;" horiz-adv-x="980" />
<glyph unicode="&#x2001;" horiz-adv-x="1960" />
<glyph unicode="&#x2002;" horiz-adv-x="980" />
<glyph unicode="&#x2003;" horiz-adv-x="1960" />
<glyph unicode="&#x2004;" horiz-adv-x="653" />
<glyph unicode="&#x2005;" horiz-adv-x="490" />
<glyph unicode="&#x2006;" horiz-adv-x="326" />
<glyph unicode="&#x2007;" horiz-adv-x="326" />
<glyph unicode="&#x2008;" horiz-adv-x="245" />
<glyph unicode="&#x2009;" horiz-adv-x="392" />
<glyph unicode="&#x200a;" horiz-adv-x="108" />
<glyph unicode="&#x2010;" horiz-adv-x="559" d="M537 453h-517v200h517v-200z" />
<glyph unicode="&#x2011;" horiz-adv-x="559" d="M537 453h-517v200h517v-200z" />
<glyph unicode="&#x2012;" horiz-adv-x="559" d="M537 453h-517v200h517v-200z" />
<glyph unicode="&#x2013;" d="M931 477h-931v153h931v-153z" />
<glyph unicode="&#x2014;" horiz-adv-x="1679" d="M1679 477h-1679v153h1679v-153z" />
<glyph unicode="&#x2015;" horiz-adv-x="1679" d="M1464 477h-1256v153h1256v-153z" />
<glyph unicode="&#x2017;" horiz-adv-x="1024" d="M979 -254h-932v109h932v-109zM979 -444h-932v108h932v-108z" />
<glyph unicode="&#x2018;" horiz-adv-x="373" d="M206 1151h83v-222h-205v204l98 272h107z" />
<glyph unicode="&#x2019;" horiz-adv-x="373" d="M289 1202l-99 -273h-106l82 255h-82v221h205v-203z" />
<glyph unicode="&#x201a;" horiz-adv-x="373" d="M281 18l-99 -272h-106l82 254h-82v222h205v-204z" />
<glyph unicode="&#x201b;" horiz-adv-x="373" d="M289 1184h-83l83 -255h-107l-98 273v203h205v-221z" />
<glyph unicode="&#x201c;" horiz-adv-x="559" d="M168 1151h82v-222h-205v204l98 272h107zM428 1151h81v-222h-204v204l99 272h105z" />
<glyph unicode="&#x201d;" horiz-adv-x="559" d="M515 1202l-99 -273h-107l82 255h-82v221h206v-203zM254 1202l-98 -273h-107l82 255h-82v221h205v-203z" />
<glyph unicode="&#x201e;" horiz-adv-x="559" d="M515 18l-99 -272h-107l82 254h-82v222h206v-204zM254 18l-98 -272h-107l82 254h-82v222h205v-204z" />
<glyph unicode="&#x2020;" d="M521 1010l339 34v-190l-339 37l40 -1239h-192l41 1239l-339 -37v190l339 -34l-35 395h180z" />
<glyph unicode="&#x2021;" d="M521 1010l339 34v-190l-339 37l40 -358l-40 -367l339 36v-190l-339 35l34 -395h-180l35 395l-339 -35v190l339 -36l-41 367l41 358l-339 -37v190l339 -34l-35 395h180z" />
<glyph unicode="&#x2022;" horiz-adv-x="588" d="M293 931q47 0 88 -17.5t72 -48.5t48.5 -72t17.5 -88t-17.5 -88.5t-48.5 -73t-72 -50t-88 -18.5q-46 0 -87 18.5t-71.5 50t-48 73t-17.5 88.5t17.5 88t48 72t71.5 48.5t87 17.5z" />
<glyph unicode="&#x2026;" horiz-adv-x="1679" d="M1499 0h-205v222h205v-222zM383 0h-205v222h205v-222zM942 0h-205v222h205v-222z" />
<glyph unicode="&#x202f;" horiz-adv-x="392" />
<glyph unicode="&#x2030;" horiz-adv-x="1679" d="M279 0h-127l773 1405h130zM895 715q57 0 101.5 -19t76 -62.5t48 -114.5t16.5 -175q0 -105 -16.5 -175.5t-48 -113t-76 -61t-101.5 -18.5t-102 18.5t-76 61.5t-47.5 113.5t-16.5 174.5t16.5 175t47.5 114.5t76 62.5t102 19zM895 594q-30 0 -50 -17.5t-31 -48.5t-15.5 -74 t-4.5 -94v-31q0 -51 4.5 -94t15.5 -73.5t31 -47.5t50 -17q31 0 50.5 17t30.5 47.5t15.5 73.5t4.5 94v31q0 51 -4.5 94t-15.5 74t-30.5 48.5t-50.5 17.5zM313 1430q57 0 102 -19t76 -62.5t47.5 -114.5t16.5 -175q0 -105 -16.5 -175.5t-47.5 -113.5t-76 -61.5t-102 -18.5 t-101.5 18.5t-76 62t-48 114t-16.5 174.5t16.5 175t48 114.5t76 62.5t101.5 19zM313 1309q-30 0 -49.5 -17.5t-31 -48.5t-15.5 -74t-4 -94v-31q0 -51 4 -94t15.5 -74t31 -48t49.5 -17q31 0 50.5 17t31 48t15.5 74t4 94v31q0 51 -4 94t-15.5 74t-31 48.5t-50.5 17.5z M1438 715q57 0 101.5 -19t75.5 -62.5t47.5 -114.5t16.5 -175q0 -105 -16.5 -175.5t-47.5 -113t-75.5 -61t-101.5 -18.5t-102 18.5t-76 61.5t-47.5 113.5t-16.5 174.5t16.5 175t47.5 114.5t76 62.5t102 19zM1438 594q-31 0 -50.5 -17.5t-31 -48.5t-15.5 -74t-4 -94v-31 q0 -51 4 -94t15.5 -73.5t31 -47.5t50.5 -17q30 0 50 17t31 47.5t15.5 73.5t4.5 94v31q0 51 -4.5 94t-15.5 74t-31 48.5t-50 17.5z" />
<glyph unicode="&#x2032;" horiz-adv-x="322" d="M285 1399l-97 -322h-141l52 328h184z" />
<glyph unicode="&#x2033;" horiz-adv-x="596" d="M545 1399l-97 -322h-141l51 328h185zM285 1399l-97 -322h-141l52 328h184z" />
<glyph unicode="&#x2039;" horiz-adv-x="559" d="M262 668l231 -410h-145l-289 410l289 409h145z" />
<glyph unicode="&#x203a;" horiz-adv-x="559" d="M499 668l-289 -410h-145l232 410l-232 409h145z" />
<glyph unicode="&#x203c;" d="M794 1405q-3 -29 -6.5 -93t-7.5 -150t-9 -189t-10 -210.5t-10 -213.5t-10 -199h-127q-12 265 -23.5 528t-27.5 527h231zM342 0h-205v222h205v-222zM782 0h-204v222h204v-222zM354 1405q-3 -29 -6.5 -93t-8 -150t-9 -189t-10 -210.5t-10.5 -213.5t-9 -199h-127 q-12 265 -24 528t-27 527h231z" />
<glyph unicode="&#x203e;" horiz-adv-x="1024" d="M1026 1620h-1026v109h1026v-109z" />
<glyph unicode="&#x2044;" horiz-adv-x="281" d="M-228 -24h-128l851 1454h127z" />
<glyph unicode="&#x205f;" horiz-adv-x="490" />
<glyph unicode="&#x207f;" horiz-adv-x="612" d="M360 1505q42 0 75.5 -12t57.5 -38.5t37 -69.5t13 -105v-524h-121v516q0 37 -7 61t-20 38t-31.5 20t-40.5 6q-26 0 -49.5 -13t-41 -38t-28 -61.5t-10.5 -82.5v-446h-123v733h95l16 -84q28 54 75.5 77t102.5 23z" />
<glyph unicode="&#x20a3;" horiz-adv-x="1032" d="M1006 762h-56q-40 0 -76 -13t-63.5 -43t-44 -78.5t-16.5 -119.5v-508h-168v623h-279v-623h-180v1405h692v-164h-512v-455h279v142h127l22 -142h12q10 31 25.5 60.5t37.5 53t51.5 38t68.5 14.5q17 0 31.5 -2.5t25.5 -5.5q12 -4 23 -8v-174z" />
<glyph unicode="&#x20a4;" d="M517 1430q75 0 136 -21t103.5 -68t66 -123t23.5 -186v-26h-168v32q0 125 -41.5 183.5t-119.5 58.5q-79 0 -120 -54t-41 -171v-189h272v-147h-272v-103h272v-145h-272l-20 -309h510v-162h-785v162h125v309h-147v145h147v103h-147v147h147v156q0 204 87.5 306t243.5 102z " />
<glyph unicode="&#x20a7;" horiz-adv-x="1952" d="M1116 1077h303q32 13 70 19t80 6q75 0 132.5 -23.5t97 -64t59.5 -94t20 -113.5q0 -11 -1 -23.5t-1 -15.5h-174v18q0 31 -7.5 61t-24.5 53.5t-46 37.5t-72 14q-44 0 -72 -14.5t-44 -36t-21.5 -47t-5.5 -47.5q0 -44 21 -72.5t55.5 -48.5t78.5 -35t89.5 -32t89.5 -39.5 t78.5 -58t55.5 -87.5t21 -127q0 -87 -26 -149.5t-71.5 -103t-108.5 -60t-138 -19.5q-111 0 -182.5 36.5t-109.5 94.5v-98q-22 -12 -56 -20t-65 -8q-56 0 -93 19.5t-59 51.5t-31.5 73t-9.5 83v721h-53q-10 -80 -43 -145t-86 -111.5t-125.5 -71.5t-161.5 -25h-155v-575h-181 v1405h336q91 0 162.5 -23.5t123.5 -66.5t84 -103.5t44 -134.5h55l37 299h131v-299zM1386 336v-21q0 -51 13.5 -87t37.5 -59t56.5 -33.5t69.5 -10.5q33 0 62 10t50.5 29.5t34 49.5t12.5 69q0 51 -21 84t-55.5 55.5t-78.5 39t-89.5 33.5t-89.5 39t-78.5 55.5t-55.5 83 t-21 122.5q0 74 24 133h-141v-705q0 -48 21.5 -73t64.5 -25h47q-21 37 -31 79t-10 87q0 21 1 31.5t1 13.5h176zM324 1241v-502h149q54 0 97.5 17.5t75 50.5t48.5 79.5t17 104.5q0 57 -15.5 103t-45.5 79t-74.5 50.5t-102.5 17.5h-149z" />
<glyph unicode="&#x20ac;" d="M737 1430q35 0 69.5 -5t68.5 -16v-145q-28 8 -56 12t-57 4q-74 0 -140.5 -22.5t-121.5 -68t-95.5 -116t-62.5 -166.5h414v-133h-433q-2 -19 -2 -36v-73q0 -18 2 -35h433v-133h-414q22 -96 62.5 -166t95.5 -115.5t121.5 -68t140.5 -22.5q29 0 57 4t56 12v-145 q-34 -9 -68.5 -14.5t-69.5 -5.5q-116 0 -211 34.5t-167.5 101t-120.5 163.5t-70 222h-129v133h115q-2 17 -2 35v73q0 17 2 36h-115v133h129q22 125 70 222.5t120.5 164t167.5 101.5t211 35z" />
<glyph unicode="&#x2105;" horiz-adv-x="1553" d="M402 -24h-129l852 1454h127zM367 1430q126 0 181.5 -82.5t55.5 -237.5h-141q0 100 -20.5 147.5t-75.5 47.5q-65 0 -95 -61.5t-30 -186.5v-51q0 -124 30 -185t95 -61q55 0 78.5 49.5t23.5 145.5h135q0 -64 -13 -122t-41 -102t-73.5 -70t-109.5 -26q-70 0 -120.5 23.5 t-83.5 72t-48.5 123.5t-15.5 178q0 205 65.5 301.5t202.5 96.5zM1178 645q-134 0 -134 -247v-52q0 -247 134 -247q135 0 135 247v52q0 247 -135 247zM1178 770q137 0 206.5 -97t69.5 -302q0 -204 -70 -300.5t-206 -96.5q-135 0 -205 96.5t-70 300.5t70 301.5t205 97.5z" />
<glyph unicode="&#x2113;" horiz-adv-x="715" d="M424 1505q54 0 94 -23.5t66.5 -65.5t39.5 -99.5t13 -124.5q0 -91 -25 -180.5t-70 -178.5t-108.5 -176.5t-140.5 -173.5v-77q0 -79 14 -134t38 -89.5t56.5 -50t69.5 -15.5q42 0 77 16.5t64 44.5v-150q-38 -26 -78.5 -39t-89.5 -13q-79 0 -133.5 29t-89 79t-50.5 117 t-17 143v29q-16 -16 -33.5 -32.5t-36.5 -33.5v143q17 17 33 33.5t35 39.5v517q0 132 23.5 221t62 143t87 77.5t99.5 23.5zM426 1374q-25 0 -49 -17t-42.5 -56t-30 -103t-11.5 -158v-389q48 65 90 132.5t73 136t49 137.5t18 137q0 85 -23 132.5t-74 47.5z" />
<glyph unicode="&#x2116;" horiz-adv-x="1802" d="M1057 0h-150l-526 895q-14 23 -29 54.5t-29 61.5q-16 34 -32 72l-6 -2q2 -37 4 -71q2 -29 3 -61t1 -54v-895h-162v1405h156l522 -882q11 -20 26 -52.5t29 -62.5q16 -36 31 -74l6 2q-2 40 -3 76q-2 31 -2.5 62.5t-0.5 48.5v882h162v-1405zM1702 414h-506v127h506v-127z M1448 1303q-65 0 -97 -63.5t-32 -187.5v-52q0 -124 32 -187.5t97 -63.5q66 0 97.5 63.5t31.5 187.5v52q0 124 -31.5 187.5t-97.5 63.5zM1448 1430q135 0 206 -97.5t71 -306.5t-71 -306.5t-206 -97.5t-206 97.5t-71 306.5t71 306.5t206 97.5z" />
<glyph unicode="&#x2122;" horiz-adv-x="1679" d="M1481 578h-107v688h-8l-180 -688h-97l-178 688h-8v-688h-96v827h162l172 -662h8l172 662h160v-827zM719 1305h-224v-725h-106v725h-225v100h555v-100z" />
<glyph unicode="&#x2126;" horiz-adv-x="1573" d="M786 1430q129 0 232 -45t174 -136t109 -227t38 -319q0 -181 -49.5 -314.5t-140.5 -224.5q34 2 67.5 5t71.5 3h51v-172h-487v125q70 15 125.5 52.5t94 98.5t59 146t20.5 194v138q0 128 -25.5 223.5t-72.5 159.5t-114.5 95.5t-152.5 31.5q-84 0 -151.5 -31.5t-115 -95.5 t-72.5 -159.5t-25 -223.5v-130q0 -219 79.5 -343.5t217.5 -155.5v-125h-485v172h51q24 0 58.5 -3t78.5 -5q-91 91 -139.5 224.5t-48.5 314.5q0 183 38 319t109 227t173.5 136t231.5 45z" />
<glyph unicode="&#x212e;" horiz-adv-x="1229" d="M618 1102q122 0 219.5 -43.5t166 -121.5t105 -185t36.5 -233v-12h-832v-337q57 -52 133 -80.5t172 -28.5q136 0 236.5 60t153.5 164l69 -43q-32 -62 -78 -111t-103.5 -83.5t-127.5 -53t-150 -18.5q-123 0 -220 42t-165 117t-104 178.5t-36 225.5t36 225t104 178 t165 117.5t220 42.5zM618 1016q-96 0 -172 -29t-133 -82v-311h610v309q-58 54 -134.5 83.5t-170.5 29.5z" />
<glyph unicode="&#x215b;" horiz-adv-x="1401" d="M360 -24h-128l851 1454h127zM350 701h149v-119h-438v119h163v527h-165v89q24 3 54.5 11t62 20t61.5 26.5t54 30.5h59v-704zM1085 356q-52 0 -79 -35t-27 -95q0 -63 27 -97t79 -34q53 0 79 34t26 97q0 60 -26 95t-79 35zM1085 836q54 0 95 -19t68.5 -52t42 -76.5 t14.5 -92.5q0 -54 -22 -101t-63 -79q56 -32 77.5 -80.5t21.5 -109.5q0 -51 -13 -96t-41.5 -79.5t-72.5 -54.5t-107 -20t-107.5 20t-73 54.5t-41.5 79.5t-13 96q0 61 24.5 111t73.5 81q-38 32 -60 78t-22 100q0 49 14 92.5t42 76.5t68.5 52t94.5 19zM1085 717q-42 0 -67 -32 t-25 -89q0 -58 25 -90.5t67 -32.5t67.5 32.5t25.5 90.5q0 57 -25.5 89t-67.5 32z" />
<glyph unicode="&#x215c;" horiz-adv-x="1401" d="M348 -24h-129l852 1454h127zM1085 356q-52 0 -79 -35t-27 -95q0 -63 27 -97t79 -34q53 0 79 34t26 97q0 60 -26 95t-79 35zM317 1430q51 0 92.5 -15.5t71.5 -45.5t46 -74t16 -101q0 -69 -26.5 -111t-72.5 -71q48 -25 79.5 -74.5t31.5 -121.5q0 -58 -17 -103.5t-48 -77 t-74 -48t-95 -16.5q-117 0 -179 69t-62 188v22h130v-26q0 -136 103 -136q51 0 82 32t31 102q0 37 -9.5 61.5t-25.5 38.5t-37 20t-43 6h-71v117h73q41 0 71 30t30 93q0 33 -8 56.5t-21 39t-30 22.5t-36 7q-40 0 -67.5 -31.5t-27.5 -97.5v-27h-129v37q0 54 16.5 97.5t45.5 74 t70 47.5t90 17zM1085 836q54 0 95 -19t68.5 -52t42 -76.5t14.5 -92.5q0 -54 -22 -101t-63 -79q56 -32 77.5 -80.5t21.5 -109.5q0 -51 -13 -96t-41.5 -79.5t-72.5 -54.5t-107 -20t-107.5 20t-73 54.5t-41.5 79.5t-13 96q0 61 24.5 111t73.5 81q-38 32 -60 78t-22 100 q0 49 14 92.5t42 76.5t68.5 52t94.5 19zM1085 717q-42 0 -67 -32t-25 -89q0 -58 25 -90.5t67 -32.5t67.5 32.5t25.5 90.5q0 57 -25.5 89t-67.5 32z" />
<glyph unicode="&#x215d;" horiz-adv-x="1401" d="M356 -24h-128l851 1454h127zM517 1274h-287l-13 -205q22 22 53.5 39t73.5 17q43 0 80.5 -17t65 -51.5t43.5 -86t16 -120.5q0 -140 -63 -216.5t-175 -76.5q-54 0 -99 18.5t-76.5 53t-49 85t-17.5 114.5h131q0 -72 32.5 -112t78.5 -40q47 0 77 42t30 132q0 75 -27.5 116.5 t-71.5 41.5q-33 0 -61.5 -24t-49.5 -65l-115 21l28 465h396v-131zM1100 356q-53 0 -80 -35t-27 -95q0 -63 27 -97t80 -34q52 0 78 34t26 97q0 60 -26 95t-78 35zM1100 836q54 0 94.5 -19t68.5 -52t42 -76.5t14 -92.5q0 -54 -22 -101t-63 -79q56 -32 77.5 -80.5t21.5 -109.5 q0 -51 -13 -96t-41 -79.5t-72.5 -54.5t-106.5 -20q-63 0 -108 20t-73.5 54.5t-41.5 79.5t-13 96q0 61 24.5 111t74.5 81q-39 32 -60.5 78t-21.5 100q0 49 14 92.5t42 76.5t68.5 52t94.5 19zM1100 717q-42 0 -67 -32t-25 -89q0 -58 25 -90.5t67 -32.5t67 32.5t25 90.5 q0 57 -25 89t-67 32z" />
<glyph unicode="&#x215e;" horiz-adv-x="1401" d="M323 -24h-129l852 1454h127zM1108 356q-53 0 -79.5 -35t-26.5 -95q0 -63 26.5 -97t79.5 -34t78.5 34t25.5 97q0 60 -25.5 95t-78.5 35zM604 1327l-2 -8q-41 -62 -84 -137t-78.5 -159.5t-58.5 -176t-23 -186.5q0 -16 1 -35t3 -39h-143q0 104 20.5 201.5t52.5 185.5 t72 164.5t78 138.5h-321v129h483v-78zM1108 836q54 0 95 -19t68.5 -52t41.5 -76.5t14 -92.5q0 -54 -21.5 -101t-62.5 -79q56 -32 77 -80.5t21 -109.5q0 -51 -13 -96t-41 -79.5t-72.5 -54.5t-106.5 -20q-63 0 -108 20t-73.5 54.5t-41.5 79.5t-13 96q0 61 24.5 111t74.5 81 q-39 32 -60.5 78t-21.5 100q0 49 14 92.5t42 76.5t68.5 52t94.5 19zM1108 717q-42 0 -67 -32t-25 -89q0 -58 25 -90.5t67 -32.5t67 32.5t25 90.5q0 57 -25 89t-67 32z" />
<glyph unicode="&#x2190;" horiz-adv-x="2048" d="M456 592h1510v-150h-1510l120 -280h-87l-403 333v44l403 333h87z" />
<glyph unicode="&#x2191;" horiz-adv-x="1024" d="M868 1051v-87l-280 120v-1510h-150v1510l-280 -120v87l333 403h44z" />
<glyph unicode="&#x2192;" horiz-adv-x="2048" d="M1964 539v-44l-403 -333h-87l120 280h-1510v150h1510l-120 280h87z" />
<glyph unicode="&#x2193;" horiz-adv-x="1024" d="M588 -56l280 120v-87l-333 -403h-44l-333 403v87l280 -120v1510h150v-1510z" />
<glyph unicode="&#x2194;" horiz-adv-x="2048" d="M1964 539v-44l-403 -333h-87l120 280h-1128l110 -280h-87l-403 333v44l403 333h87l-110 -280h1128l-120 280h87z" />
<glyph unicode="&#x2195;" horiz-adv-x="1024" d="M866 1053v-87l-280 110v-1128l280 120v-87l-333 -403h-44l-333 403v87l280 -120v1128l-280 -110v87l333 403h44z" />
<glyph unicode="&#x21a8;" horiz-adv-x="1024" d="M866 1053v-87l-280 110v-1128l280 120v-87l-333 -403h-44l-333 403v87l280 -120v1128l-280 -110v87l333 403h44zM870 -620h-716v97h716v-97z" />
<glyph unicode="&#x2202;" horiz-adv-x="1012" d="M455 1505q83 0 161.5 -40.5t140 -127.5t99 -224t37.5 -329q0 -189 -29.5 -339t-86.5 -254.5t-141 -159.5t-192 -55q-81 0 -142.5 35.5t-103 96t-62.5 141t-21 169.5q0 117 30.5 209.5t81.5 157.5t117 99.5t137 34.5q50 0 90 -14.5t70 -36t50 -46t30 -44.5h8q1 4 1.5 13 t0.5 19v38q0 109 -22.5 203.5t-62.5 164t-94 109t-118 39.5q-68 0 -116.5 -21t-83.5 -49v152q42 25 94 42t127 17zM507 782q-47 0 -86.5 -30t-69 -81t-46 -118t-16.5 -141q0 -65 11.5 -117.5t33.5 -90.5t53.5 -58.5t71.5 -20.5q54 0 98.5 41t77 109t53 155.5t27.5 181.5 q-9 28 -27 58.5t-44 55t-60.5 40.5t-76.5 16z" />
<glyph unicode="&#x2206;" horiz-adv-x="1145" d="M33 78l428 1327h231l430 -1327v-78h-1089v78zM239 172h654l-317 1034h-9z" />
<glyph unicode="&#x220f;" horiz-adv-x="1686" d="M1468 1317h-169v-1579h-166v1579h-582v-1579h-166v1579h-168v164h1251v-164z" />
<glyph unicode="&#x2211;" horiz-adv-x="1460" d="M1321 1321h-879v-8l537 -668l-579 -719v-8h956v-180h-1178v129l594 745l-576 731v138h1125v-160z" />
<glyph unicode="&#x2212;" horiz-adv-x="981" d="M891 436h-803v172h803v-172z" />
<glyph unicode="&#x2215;" horiz-adv-x="281" d="M-228 -24h-128l851 1454h127z" />
<glyph unicode="&#x2219;" horiz-adv-x="559" d="M381 590h-207v228h207v-228z" />
<glyph unicode="&#x221a;" horiz-adv-x="1124" d="M790 -303h-184q-88 227 -173.5 451.5t-172.5 451.5l-157 -61l-42 123l333 138q63 -179 128.5 -355t130.5 -354q16 -44 26 -82t18 -70l280 1816h146z" />
<glyph unicode="&#x221e;" horiz-adv-x="1460" d="M1059 927q71 0 127 -25t95 -68.5t60 -101.5t21 -124t-20.5 -124t-59 -100.5t-94.5 -67.5t-127 -25q-55 0 -101.5 16t-87 43t-75.5 62.5t-68 74.5q-33 -39 -68.5 -74.5t-76 -62.5t-86.5 -43t-100 -16q-71 0 -127 25t-94.5 67.5t-59 100.5t-20.5 124t20.5 124t59.5 101.5 t95.5 68.5t127.5 25q53 0 98.5 -16t86 -43.5t76 -63.5t68.5 -75q33 39 68 75t75.5 63.5t86.5 43.5t100 16zM400 772q-31 0 -58.5 -13t-48.5 -36t-33 -53.5t-12 -65.5t12 -65t32 -52.5t47.5 -35.5t58.5 -13q34 0 64.5 13.5t59 36.5t56 54t55.5 66q-27 34 -54.5 64t-56 52 t-59 35t-63.5 13zM1059 772q-35 0 -65.5 -13t-59 -35t-56 -52t-54.5 -64q27 -35 54.5 -66t56.5 -54t60 -36.5t66 -13.5q31 0 58 13t47 35.5t32 52.5t12 65t-12 65.5t-32.5 53.5t-48 36t-58.5 13z" />
<glyph unicode="&#x221f;" horiz-adv-x="2005" d="M515 136h1127v-136h-1280v1280h153v-1144z" />
<glyph unicode="&#x2229;" horiz-adv-x="1479" d="M737 1384q112 0 211 -39.5t172.5 -113t116 -177t42.5 -230.5v-824h-151v808q0 100 -30.5 181.5t-83.5 139t-124 89t-153 31.5q-81 0 -152.5 -31.5t-124 -89t-83 -139t-30.5 -181.5v-808h-151v824q0 127 42.5 230.5t116 177t172 113t210.5 39.5z" />
<glyph unicode="&#x222b;" horiz-adv-x="561" d="M509 1659q-37 0 -69.5 -6t-56.5 -19.5t-37.5 -35.5t-13.5 -55q16 -366 28 -684q3 -90 7 -182.5t7 -181.5t6 -172t5 -155t3 -130t1 -97q0 -73 -25.5 -118t-69 -70t-102.5 -33.5t-125 -8.5v103q38 0 70 6t55.5 19.5t36.5 36.5t13 57q-16 363 -28 680q-4 90 -7 182 t-6.5 180.5t-6 171.5t-4.5 154.5t-3 129.5t-1 98q0 73 26 118t70 70t102.5 33.5t124.5 8.5v-100z" />
<glyph unicode="&#x2248;" horiz-adv-x="1124" d="M766 273q60 0 111 22.5t88 50t59 51t24 26.5v-191q-28 -43 -69 -76q-35 -29 -88.5 -52.5t-124.5 -23.5q-56 0 -106 19.5t-99 43.5t-99.5 43.5t-107.5 19.5q-61 0 -112 -22.5t-88.5 -50.5t-59 -51.5t-23.5 -26.5v193q29 43 70 76q18 14 40 28t48.5 24.5t57.5 17t67 6.5 q55 0 105 -20t99 -43.5t100 -43.5t108 -20zM766 709q60 0 111 22.5t88 50t59 51t24 26.5v-191q-28 -43 -69 -76q-35 -29 -88 -52t-125 -23q-56 0 -106 19.5t-99 43.5t-99.5 43.5t-107.5 19.5q-41 0 -77 -11t-67 -27t-56 -35.5t-43 -36t-28.5 -28.5t-11.5 -14v193 q29 43 70 76q18 14 40 28t48.5 24.5t57.5 17t67 6.5q55 0 105 -20t99 -43.5t100 -43.5t108 -20z" />
<glyph unicode="&#x2260;" horiz-adv-x="1124" d="M784 824h187v-173h-274l-134 -264h408v-170h-494l-83 -166h-126l84 166h-184v170h270l133 264h-403v173h492l85 167h125z" />
<glyph unicode="&#x2261;" horiz-adv-x="979" d="M891 885h-803v172h803v-172zM891 14h-803v170h803v-170zM891 448h-803v172h803v-172z" />
<glyph unicode="&#x2264;" horiz-adv-x="1124" d="M963 1052l-638 -327l638 -327v-185l-803 401v220l803 403v-185zM965 0h-803v170h803v-170z" />
<glyph unicode="&#x2265;" horiz-adv-x="1124" d="M965 834v-220l-803 -401v185l636 327l-636 327v185zM963 0h-803v170h803v-170z" />
<glyph unicode="&#x2302;" horiz-adv-x="1229" d="M1075 635v-635h-921v635l460 518zM284 588v-466h662v466l-332 370z" />
<glyph unicode="&#x2310;" horiz-adv-x="981" d="M891 737h-639v-333h-172v523h811v-190z" />
<glyph unicode="&#x2320;" horiz-adv-x="1237" d="M854 1659q-38 0 -70.5 -6t-56.5 -19.5t-37.5 -35.5t-13.5 -55q5 -315 11 -658q3 -147 6 -314t6 -346t6 -365.5t6 -370.5h-152q-4 225 -7 452.5t-6.5 440.5t-6 403.5t-4.5 342t-3 256t-1 145.5q0 73 25.5 118t70 70t103 33.5t124.5 8.5v-100z" />
<glyph unicode="&#x2321;" horiz-adv-x="1237" d="M678 1759q3 -225 7 -452.5t7 -441t6 -404t5 -342.5t3 -256.5t1 -145.5q0 -72 -26 -116.5t-70 -69.5t-103 -33.5t-125 -8.5v99q37 0 69.5 6t56.5 19.5t38 36t14 55.5q-6 315 -11 658q-3 146 -5.5 313t-5.5 346t-6 365.5t-6 371.5h151z" />
<glyph unicode="&#xe000;" horiz-adv-x="1075" d="M0 1075h1075v-1075h-1075v1075z" />
<glyph unicode="&#xf6c3;" horiz-adv-x="559" d="M371 -295l-60 -159h-91l46 145h-70v186h175v-172z" />
<glyph unicode="&#xfb01;" horiz-adv-x="840" d="M325 1497q38 0 77 -7.5t65 -17.5v-116h-90q-48 0 -72 -25t-24 -73v-181h186v-150h-186v-927h-168v927h-95v150h95v173q0 46 10 90t34.5 79t65.5 56.5t102 21.5zM737 0h-168v1077h168v-1077zM737 1280h-168v201h168v-201z" />
<glyph unicode="&#xfb02;" horiz-adv-x="840" d="M325 1497q38 0 77 -7.5t65 -17.5v-116h-90q-48 0 -72 -25t-24 -73v-181h186v-150h-186v-927h-168v927h-95v150h95v173q0 46 10 90t34.5 79t65.5 56.5t102 21.5zM737 0h-168v1481h168v-1481z" />
<glyph horiz-adv-x="0" />
</font>
</defs>
</svg>
